<?xml version="1.0" encoding="utf-8" standalone="no"?>
<!DOCTYPE svg PUBLIC "-//W3C//DTD SVG 1.1//EN"
  "http://www.w3.org/Graphics/SVG/1.1/DTD/svg11.dtd">
<svg xmlns:xlink="http://www.w3.org/1999/xlink" width="238.161875pt" height="121.781562pt" viewBox="0 0 238.161875 121.781562" xmlns="http://www.w3.org/2000/svg" version="1.1">
 <metadata>
  <rdf:RDF xmlns:dc="http://purl.org/dc/elements/1.1/" xmlns:cc="http://creativecommons.org/ns#" xmlns:rdf="http://www.w3.org/1999/02/22-rdf-syntax-ns#">
   <cc:Work>
    <dc:type rdf:resource="http://purl.org/dc/dcmitype/StillImage"/>
    <dc:date>2026-03-31T21:07:12.993631</dc:date>
    <dc:format>image/svg+xml</dc:format>
    <dc:creator>
     <cc:Agent>
      <dc:title>Matplotlib v3.10.8, https://matplotlib.org/</dc:title>
     </cc:Agent>
    </dc:creator>
   </cc:Work>
  </rdf:RDF>
 </metadata>
 <defs>
  <style type="text/css">*{stroke-linejoin: round; stroke-linecap: butt}</style>
 </defs>
 <g id="figure_1">
  <g id="patch_1">
   <path d="M 0 121.781562 
L 238.161875 121.781562 
L 238.161875 0 
L 0 0 
z
" style="fill: #ffffff"/>
  </g>
  <g id="axes_1">
   <g id="patch_2">
    <path d="M 39.544375 91 
L 227.144375 91 
L 227.144375 7.2 
L 39.544375 7.2 
z
" style="fill: #ffffff"/>
   </g>
   <g id="LineCollection_1">
    <path d="M 42.191619 87.190909 
L 42.191619 11.009091 
" clip-path="url(#pc56f1e8946)" style="fill: none; stroke: #bf00bf; stroke-width: 0.8"/>
    <path d="M 46.673175 87.190909 
L 46.673175 11.009091 
" clip-path="url(#pc56f1e8946)" style="fill: none; stroke: #bf00bf; stroke-width: 0.8"/>
    <path d="M 51.217264 87.190909 
L 51.217264 11.009091 
" clip-path="url(#pc56f1e8946)" style="fill: none; stroke: #bf00bf; stroke-width: 0.8"/>
    <path d="M 56.157397 87.190909 
L 56.157397 11.009091 
" clip-path="url(#pc56f1e8946)" style="fill: none; stroke: #bf00bf; stroke-width: 0.8"/>
    <path d="M 61.222597 87.190909 
L 61.222597 11.009091 
" clip-path="url(#pc56f1e8946)" style="fill: none; stroke: #bf00bf; stroke-width: 0.8"/>
    <path d="M 66.037664 87.190909 
L 66.037664 11.009091 
" clip-path="url(#pc56f1e8946)" style="fill: none; stroke: #bf00bf; stroke-width: 0.8"/>
    <path d="M 71.019486 87.190909 
L 71.019486 11.009091 
" clip-path="url(#pc56f1e8946)" style="fill: none; stroke: #bf00bf; stroke-width: 0.8"/>
    <path d="M 76.105531 87.190909 
L 76.105531 11.009091 
" clip-path="url(#pc56f1e8946)" style="fill: none; stroke: #bf00bf; stroke-width: 0.8"/>
    <path d="M 81.149886 87.190909 
L 81.149886 11.009091 
" clip-path="url(#pc56f1e8946)" style="fill: none; stroke: #bf00bf; stroke-width: 0.8"/>
    <path d="M 86.131708 87.190909 
L 86.131708 11.009091 
" clip-path="url(#pc56f1e8946)" style="fill: none; stroke: #bf00bf; stroke-width: 0.8"/>
    <path d="M 91.030153 87.190909 
L 91.030153 11.009091 
" clip-path="url(#pc56f1e8946)" style="fill: none; stroke: #bf00bf; stroke-width: 0.8"/>
    <path d="M 96.095353 87.190909 
L 96.095353 11.009091 
" clip-path="url(#pc56f1e8946)" style="fill: none; stroke: #bf00bf; stroke-width: 0.8"/>
    <path d="M 101.077175 87.190909 
L 101.077175 11.009091 
" clip-path="url(#pc56f1e8946)" style="fill: none; stroke: #bf00bf; stroke-width: 0.8"/>
    <path d="M 106.017308 87.190909 
L 106.017308 11.009091 
" clip-path="url(#pc56f1e8946)" style="fill: none; stroke: #bf00bf; stroke-width: 0.8"/>
    <path d="M 111.103353 87.190909 
L 111.103353 11.009091 
" clip-path="url(#pc56f1e8946)" style="fill: none; stroke: #bf00bf; stroke-width: 0.8"/>
    <path d="M 116.231086 87.190909 
L 116.231086 11.009091 
" clip-path="url(#pc56f1e8946)" style="fill: none; stroke: #bf00bf; stroke-width: 0.8"/>
    <path d="M 121.129531 87.190909 
L 121.129531 11.009091 
" clip-path="url(#pc56f1e8946)" style="fill: none; stroke: #bf00bf; stroke-width: 0.8"/>
    <path d="M 125.840375 87.190909 
L 125.840375 11.009091 
" clip-path="url(#pc56f1e8946)" style="fill: none; stroke: #bf00bf; stroke-width: 0.8"/>
    <path d="M 130.634597 87.190909 
L 130.634597 11.009091 
" clip-path="url(#pc56f1e8946)" style="fill: none; stroke: #bf00bf; stroke-width: 0.8"/>
    <path d="M 135.407975 87.190909 
L 135.407975 11.009091 
" clip-path="url(#pc56f1e8946)" style="fill: none; stroke: #bf00bf; stroke-width: 0.8"/>
    <path d="M 140.160508 87.190909 
L 140.160508 11.009091 
" clip-path="url(#pc56f1e8946)" style="fill: none; stroke: #bf00bf; stroke-width: 0.8"/>
    <path d="M 144.704597 87.190909 
L 144.704597 11.009091 
" clip-path="url(#pc56f1e8946)" style="fill: none; stroke: #bf00bf; stroke-width: 0.8"/>
    <path d="M 149.186153 87.190909 
L 149.186153 11.009091 
" clip-path="url(#pc56f1e8946)" style="fill: none; stroke: #bf00bf; stroke-width: 0.8"/>
    <path d="M 153.855308 87.190909 
L 153.855308 11.009091 
" clip-path="url(#pc56f1e8946)" style="fill: none; stroke: #bf00bf; stroke-width: 0.8"/>
    <path d="M 158.586997 87.190909 
L 158.586997 11.009091 
" clip-path="url(#pc56f1e8946)" style="fill: none; stroke: #bf00bf; stroke-width: 0.8"/>
    <path d="M 163.422908 87.190909 
L 163.422908 11.009091 
" clip-path="url(#pc56f1e8946)" style="fill: none; stroke: #bf00bf; stroke-width: 0.8"/>
    <path d="M 168.029531 87.190909 
L 168.029531 11.009091 
" clip-path="url(#pc56f1e8946)" style="fill: none; stroke: #bf00bf; stroke-width: 0.8"/>
    <path d="M 172.636153 87.190909 
L 172.636153 11.009091 
" clip-path="url(#pc56f1e8946)" style="fill: none; stroke: #bf00bf; stroke-width: 0.8"/>
    <path d="M 177.263619 87.190909 
L 177.263619 11.009091 
" clip-path="url(#pc56f1e8946)" style="fill: none; stroke: #bf00bf; stroke-width: 0.8"/>
    <path d="M 181.849397 87.190909 
L 181.849397 11.009091 
" clip-path="url(#pc56f1e8946)" style="fill: none; stroke: #bf00bf; stroke-width: 0.8"/>
    <path d="M 186.289264 87.190909 
L 186.289264 11.009091 
" clip-path="url(#pc56f1e8946)" style="fill: none; stroke: #bf00bf; stroke-width: 0.8"/>
    <path d="M 190.854197 87.190909 
L 190.854197 11.009091 
" clip-path="url(#pc56f1e8946)" style="fill: none; stroke: #bf00bf; stroke-width: 0.8"/>
    <path d="M 195.502508 87.190909 
L 195.502508 11.009091 
" clip-path="url(#pc56f1e8946)" style="fill: none; stroke: #bf00bf; stroke-width: 0.8"/>
    <path d="M 199.984064 87.190909 
L 199.984064 11.009091 
" clip-path="url(#pc56f1e8946)" style="fill: none; stroke: #bf00bf; stroke-width: 0.8"/>
    <path d="M 204.403086 87.190909 
L 204.403086 11.009091 
" clip-path="url(#pc56f1e8946)" style="fill: none; stroke: #bf00bf; stroke-width: 0.8"/>
    <path d="M 208.968019 87.190909 
L 208.968019 11.009091 
" clip-path="url(#pc56f1e8946)" style="fill: none; stroke: #bf00bf; stroke-width: 0.8"/>
    <path d="M 213.699708 87.190909 
L 213.699708 11.009091 
" clip-path="url(#pc56f1e8946)" style="fill: none; stroke: #bf00bf; stroke-width: 0.8"/>
    <path d="M 218.514775 87.190909 
L 218.514775 11.009091 
" clip-path="url(#pc56f1e8946)" style="fill: none; stroke: #bf00bf; stroke-width: 0.8"/>
    <path d="M 223.183931 87.190909 
L 223.183931 11.009091 
" clip-path="url(#pc56f1e8946)" style="fill: none; stroke: #bf00bf; stroke-width: 0.8"/>
   </g>
   <g id="matplotlib.axis_1">
    <g id="xtick_1">
     <g id="line2d_1">
      <path d="M 39.544375 91 
L 39.544375 7.2 
" clip-path="url(#pc56f1e8946)" style="fill: none; stroke: #b0b0b0; stroke-width: 0.8; stroke-linecap: square"/>
     </g>
     <g id="line2d_2">
      <defs>
       <path id="m05486e7a81" d="M 0 0 
L 0 3.5 
" style="stroke: #000000; stroke-width: 0.8"/>
      </defs>
      <g>
       <use xlink:href="#m05486e7a81" x="39.544375" y="91" style="stroke: #000000; stroke-width: 0.8"/>
      </g>
     </g>
     <g id="text_1">
      <!-- 0 -->
      <g transform="translate(37.635625 102.559062) scale(0.06 -0.06)">
       <defs>
        <path id="DejaVuSans-30" d="M 2034 4250 
Q 1547 4250 1301 3770 
Q 1056 3291 1056 2328 
Q 1056 1369 1301 889 
Q 1547 409 2034 409 
Q 2525 409 2770 889 
Q 3016 1369 3016 2328 
Q 3016 3291 2770 3770 
Q 2525 4250 2034 4250 
z
M 2034 4750 
Q 2819 4750 3233 4129 
Q 3647 3509 3647 2328 
Q 3647 1150 3233 529 
Q 2819 -91 2034 -91 
Q 1250 -91 836 529 
Q 422 1150 422 2328 
Q 422 3509 836 4129 
Q 1250 4750 2034 4750 
z
" transform="scale(0.015625)"/>
       </defs>
       <use xlink:href="#DejaVuSans-30"/>
      </g>
     </g>
    </g>
    <g id="xtick_2">
     <g id="line2d_3">
      <path d="M 70.811042 91 
L 70.811042 7.2 
" clip-path="url(#pc56f1e8946)" style="fill: none; stroke: #b0b0b0; stroke-width: 0.8; stroke-linecap: square"/>
     </g>
     <g id="line2d_4">
      <g>
       <use xlink:href="#m05486e7a81" x="70.811042" y="91" style="stroke: #000000; stroke-width: 0.8"/>
      </g>
     </g>
     <g id="text_2">
      <!-- 5 -->
      <g transform="translate(68.902292 102.559062) scale(0.06 -0.06)">
       <defs>
        <path id="DejaVuSans-35" d="M 691 4666 
L 3169 4666 
L 3169 4134 
L 1269 4134 
L 1269 2991 
Q 1406 3038 1543 3061 
Q 1681 3084 1819 3084 
Q 2600 3084 3056 2656 
Q 3513 2228 3513 1497 
Q 3513 744 3044 326 
Q 2575 -91 1722 -91 
Q 1428 -91 1123 -41 
Q 819 9 494 109 
L 494 744 
Q 775 591 1075 516 
Q 1375 441 1709 441 
Q 2250 441 2565 725 
Q 2881 1009 2881 1497 
Q 2881 1984 2565 2268 
Q 2250 2553 1709 2553 
Q 1456 2553 1204 2497 
Q 953 2441 691 2322 
L 691 4666 
z
" transform="scale(0.015625)"/>
       </defs>
       <use xlink:href="#DejaVuSans-35"/>
      </g>
     </g>
    </g>
    <g id="xtick_3">
     <g id="line2d_5">
      <path d="M 102.077708 91 
L 102.077708 7.2 
" clip-path="url(#pc56f1e8946)" style="fill: none; stroke: #b0b0b0; stroke-width: 0.8; stroke-linecap: square"/>
     </g>
     <g id="line2d_6">
      <g>
       <use xlink:href="#m05486e7a81" x="102.077708" y="91" style="stroke: #000000; stroke-width: 0.8"/>
      </g>
     </g>
     <g id="text_3">
      <!-- 10 -->
      <g transform="translate(98.260208 102.559062) scale(0.06 -0.06)">
       <defs>
        <path id="DejaVuSans-31" d="M 794 531 
L 1825 531 
L 1825 4091 
L 703 3866 
L 703 4441 
L 1819 4666 
L 2450 4666 
L 2450 531 
L 3481 531 
L 3481 0 
L 794 0 
L 794 531 
z
" transform="scale(0.015625)"/>
       </defs>
       <use xlink:href="#DejaVuSans-31"/>
       <use xlink:href="#DejaVuSans-30" transform="translate(63.623047 0)"/>
      </g>
     </g>
    </g>
    <g id="xtick_4">
     <g id="line2d_7">
      <path d="M 133.344375 91 
L 133.344375 7.2 
" clip-path="url(#pc56f1e8946)" style="fill: none; stroke: #b0b0b0; stroke-width: 0.8; stroke-linecap: square"/>
     </g>
     <g id="line2d_8">
      <g>
       <use xlink:href="#m05486e7a81" x="133.344375" y="91" style="stroke: #000000; stroke-width: 0.8"/>
      </g>
     </g>
     <g id="text_4">
      <!-- 15 -->
      <g transform="translate(129.526875 102.559062) scale(0.06 -0.06)">
       <use xlink:href="#DejaVuSans-31"/>
       <use xlink:href="#DejaVuSans-35" transform="translate(63.623047 0)"/>
      </g>
     </g>
    </g>
    <g id="xtick_5">
     <g id="line2d_9">
      <path d="M 164.611042 91 
L 164.611042 7.2 
" clip-path="url(#pc56f1e8946)" style="fill: none; stroke: #b0b0b0; stroke-width: 0.8; stroke-linecap: square"/>
     </g>
     <g id="line2d_10">
      <g>
       <use xlink:href="#m05486e7a81" x="164.611042" y="91" style="stroke: #000000; stroke-width: 0.8"/>
      </g>
     </g>
     <g id="text_5">
      <!-- 20 -->
      <g transform="translate(160.793542 102.559062) scale(0.06 -0.06)">
       <defs>
        <path id="DejaVuSans-32" d="M 1228 531 
L 3431 531 
L 3431 0 
L 469 0 
L 469 531 
Q 828 903 1448 1529 
Q 2069 2156 2228 2338 
Q 2531 2678 2651 2914 
Q 2772 3150 2772 3378 
Q 2772 3750 2511 3984 
Q 2250 4219 1831 4219 
Q 1534 4219 1204 4116 
Q 875 4013 500 3803 
L 500 4441 
Q 881 4594 1212 4672 
Q 1544 4750 1819 4750 
Q 2544 4750 2975 4387 
Q 3406 4025 3406 3419 
Q 3406 3131 3298 2873 
Q 3191 2616 2906 2266 
Q 2828 2175 2409 1742 
Q 1991 1309 1228 531 
z
" transform="scale(0.015625)"/>
       </defs>
       <use xlink:href="#DejaVuSans-32"/>
       <use xlink:href="#DejaVuSans-30" transform="translate(63.623047 0)"/>
      </g>
     </g>
    </g>
    <g id="xtick_6">
     <g id="line2d_11">
      <path d="M 195.877708 91 
L 195.877708 7.2 
" clip-path="url(#pc56f1e8946)" style="fill: none; stroke: #b0b0b0; stroke-width: 0.8; stroke-linecap: square"/>
     </g>
     <g id="line2d_12">
      <g>
       <use xlink:href="#m05486e7a81" x="195.877708" y="91" style="stroke: #000000; stroke-width: 0.8"/>
      </g>
     </g>
     <g id="text_6">
      <!-- 25 -->
      <g transform="translate(192.060208 102.559062) scale(0.06 -0.06)">
       <use xlink:href="#DejaVuSans-32"/>
       <use xlink:href="#DejaVuSans-35" transform="translate(63.623047 0)"/>
      </g>
     </g>
    </g>
    <g id="xtick_7">
     <g id="line2d_13">
      <path d="M 227.144375 91 
L 227.144375 7.2 
" clip-path="url(#pc56f1e8946)" style="fill: none; stroke: #b0b0b0; stroke-width: 0.8; stroke-linecap: square"/>
     </g>
     <g id="line2d_14">
      <g>
       <use xlink:href="#m05486e7a81" x="227.144375" y="91" style="stroke: #000000; stroke-width: 0.8"/>
      </g>
     </g>
     <g id="text_7">
      <!-- 30 -->
      <g transform="translate(223.326875 102.559062) scale(0.06 -0.06)">
       <defs>
        <path id="DejaVuSans-33" d="M 2597 2516 
Q 3050 2419 3304 2112 
Q 3559 1806 3559 1356 
Q 3559 666 3084 287 
Q 2609 -91 1734 -91 
Q 1441 -91 1130 -33 
Q 819 25 488 141 
L 488 750 
Q 750 597 1062 519 
Q 1375 441 1716 441 
Q 2309 441 2620 675 
Q 2931 909 2931 1356 
Q 2931 1769 2642 2001 
Q 2353 2234 1838 2234 
L 1294 2234 
L 1294 2753 
L 1863 2753 
Q 2328 2753 2575 2939 
Q 2822 3125 2822 3475 
Q 2822 3834 2567 4026 
Q 2313 4219 1838 4219 
Q 1578 4219 1281 4162 
Q 984 4106 628 3988 
L 628 4550 
Q 988 4650 1302 4700 
Q 1616 4750 1894 4750 
Q 2613 4750 3031 4423 
Q 3450 4097 3450 3541 
Q 3450 3153 3228 2886 
Q 3006 2619 2597 2516 
z
" transform="scale(0.015625)"/>
       </defs>
       <use xlink:href="#DejaVuSans-33"/>
       <use xlink:href="#DejaVuSans-30" transform="translate(63.623047 0)"/>
      </g>
     </g>
    </g>
    <g id="text_8">
     <!-- Time (s) -->
     <g transform="translate(119.114141 113.125781) scale(0.07 -0.07)">
      <defs>
       <path id="DejaVuSans-54" d="M -19 4666 
L 3928 4666 
L 3928 4134 
L 2272 4134 
L 2272 0 
L 1638 0 
L 1638 4134 
L -19 4134 
L -19 4666 
z
" transform="scale(0.015625)"/>
       <path id="DejaVuSans-69" d="M 603 3500 
L 1178 3500 
L 1178 0 
L 603 0 
L 603 3500 
z
M 603 4863 
L 1178 4863 
L 1178 4134 
L 603 4134 
L 603 4863 
z
" transform="scale(0.015625)"/>
       <path id="DejaVuSans-6d" d="M 3328 2828 
Q 3544 3216 3844 3400 
Q 4144 3584 4550 3584 
Q 5097 3584 5394 3201 
Q 5691 2819 5691 2113 
L 5691 0 
L 5113 0 
L 5113 2094 
Q 5113 2597 4934 2840 
Q 4756 3084 4391 3084 
Q 3944 3084 3684 2787 
Q 3425 2491 3425 1978 
L 3425 0 
L 2847 0 
L 2847 2094 
Q 2847 2600 2669 2842 
Q 2491 3084 2119 3084 
Q 1678 3084 1418 2786 
Q 1159 2488 1159 1978 
L 1159 0 
L 581 0 
L 581 3500 
L 1159 3500 
L 1159 2956 
Q 1356 3278 1631 3431 
Q 1906 3584 2284 3584 
Q 2666 3584 2933 3390 
Q 3200 3197 3328 2828 
z
" transform="scale(0.015625)"/>
       <path id="DejaVuSans-65" d="M 3597 1894 
L 3597 1613 
L 953 1613 
Q 991 1019 1311 708 
Q 1631 397 2203 397 
Q 2534 397 2845 478 
Q 3156 559 3463 722 
L 3463 178 
Q 3153 47 2828 -22 
Q 2503 -91 2169 -91 
Q 1331 -91 842 396 
Q 353 884 353 1716 
Q 353 2575 817 3079 
Q 1281 3584 2069 3584 
Q 2775 3584 3186 3129 
Q 3597 2675 3597 1894 
z
M 3022 2063 
Q 3016 2534 2758 2815 
Q 2500 3097 2075 3097 
Q 1594 3097 1305 2825 
Q 1016 2553 972 2059 
L 3022 2063 
z
" transform="scale(0.015625)"/>
       <path id="DejaVuSans-20" transform="scale(0.015625)"/>
       <path id="DejaVuSans-28" d="M 1984 4856 
Q 1566 4138 1362 3434 
Q 1159 2731 1159 2009 
Q 1159 1288 1364 580 
Q 1569 -128 1984 -844 
L 1484 -844 
Q 1016 -109 783 600 
Q 550 1309 550 2009 
Q 550 2706 781 3412 
Q 1013 4119 1484 4856 
L 1984 4856 
z
" transform="scale(0.015625)"/>
       <path id="DejaVuSans-73" d="M 2834 3397 
L 2834 2853 
Q 2591 2978 2328 3040 
Q 2066 3103 1784 3103 
Q 1356 3103 1142 2972 
Q 928 2841 928 2578 
Q 928 2378 1081 2264 
Q 1234 2150 1697 2047 
L 1894 2003 
Q 2506 1872 2764 1633 
Q 3022 1394 3022 966 
Q 3022 478 2636 193 
Q 2250 -91 1575 -91 
Q 1294 -91 989 -36 
Q 684 19 347 128 
L 347 722 
Q 666 556 975 473 
Q 1284 391 1588 391 
Q 1994 391 2212 530 
Q 2431 669 2431 922 
Q 2431 1156 2273 1281 
Q 2116 1406 1581 1522 
L 1381 1569 
Q 847 1681 609 1914 
Q 372 2147 372 2553 
Q 372 3047 722 3315 
Q 1072 3584 1716 3584 
Q 2034 3584 2315 3537 
Q 2597 3491 2834 3397 
z
" transform="scale(0.015625)"/>
       <path id="DejaVuSans-29" d="M 513 4856 
L 1013 4856 
Q 1481 4119 1714 3412 
Q 1947 2706 1947 2009 
Q 1947 1309 1714 600 
Q 1481 -109 1013 -844 
L 513 -844 
Q 928 -128 1133 580 
Q 1338 1288 1338 2009 
Q 1338 2731 1133 3434 
Q 928 4138 513 4856 
z
" transform="scale(0.015625)"/>
      </defs>
      <use xlink:href="#DejaVuSans-54"/>
      <use xlink:href="#DejaVuSans-69" transform="translate(57.958984 0)"/>
      <use xlink:href="#DejaVuSans-6d" transform="translate(85.742188 0)"/>
      <use xlink:href="#DejaVuSans-65" transform="translate(183.154297 0)"/>
      <use xlink:href="#DejaVuSans-20" transform="translate(244.677734 0)"/>
      <use xlink:href="#DejaVuSans-28" transform="translate(276.464844 0)"/>
      <use xlink:href="#DejaVuSans-73" transform="translate(315.478516 0)"/>
      <use xlink:href="#DejaVuSans-29" transform="translate(367.578125 0)"/>
     </g>
    </g>
   </g>
   <g id="matplotlib.axis_2">
    <g id="ytick_1">
     <g id="line2d_15">
      <path d="M 39.544375 85.193316 
L 227.144375 85.193316 
" clip-path="url(#pc56f1e8946)" style="fill: none; stroke: #b0b0b0; stroke-width: 0.8; stroke-linecap: square"/>
     </g>
     <g id="line2d_16">
      <defs>
       <path id="m76c3db0125" d="M 0 0 
L -3.5 0 
" style="stroke: #000000; stroke-width: 0.8"/>
      </defs>
      <g>
       <use xlink:href="#m76c3db0125" x="39.544375" y="85.193316" style="stroke: #000000; stroke-width: 0.8"/>
      </g>
     </g>
     <g id="text_9">
      <!-- −0.5 -->
      <g transform="translate(17.974688 87.472848) scale(0.06 -0.06)">
       <defs>
        <path id="DejaVuSans-2212" d="M 678 2272 
L 4684 2272 
L 4684 1741 
L 678 1741 
L 678 2272 
z
" transform="scale(0.015625)"/>
        <path id="DejaVuSans-2e" d="M 684 794 
L 1344 794 
L 1344 0 
L 684 0 
L 684 794 
z
" transform="scale(0.015625)"/>
       </defs>
       <use xlink:href="#DejaVuSans-2212"/>
       <use xlink:href="#DejaVuSans-30" transform="translate(83.789062 0)"/>
       <use xlink:href="#DejaVuSans-2e" transform="translate(147.412109 0)"/>
       <use xlink:href="#DejaVuSans-35" transform="translate(179.199219 0)"/>
      </g>
     </g>
    </g>
    <g id="ytick_2">
     <g id="line2d_17">
      <path d="M 39.544375 58.842073 
L 227.144375 58.842073 
" clip-path="url(#pc56f1e8946)" style="fill: none; stroke: #b0b0b0; stroke-width: 0.8; stroke-linecap: square"/>
     </g>
     <g id="line2d_18">
      <g>
       <use xlink:href="#m76c3db0125" x="39.544375" y="58.842073" style="stroke: #000000; stroke-width: 0.8"/>
      </g>
     </g>
     <g id="text_10">
      <!-- 0.0 -->
      <g transform="translate(23.0025 61.121604) scale(0.06 -0.06)">
       <use xlink:href="#DejaVuSans-30"/>
       <use xlink:href="#DejaVuSans-2e" transform="translate(63.623047 0)"/>
       <use xlink:href="#DejaVuSans-30" transform="translate(95.410156 0)"/>
      </g>
     </g>
    </g>
    <g id="ytick_3">
     <g id="line2d_19">
      <path d="M 39.544375 32.490829 
L 227.144375 32.490829 
" clip-path="url(#pc56f1e8946)" style="fill: none; stroke: #b0b0b0; stroke-width: 0.8; stroke-linecap: square"/>
     </g>
     <g id="line2d_20">
      <g>
       <use xlink:href="#m76c3db0125" x="39.544375" y="32.490829" style="stroke: #000000; stroke-width: 0.8"/>
      </g>
     </g>
     <g id="text_11">
      <!-- 0.5 -->
      <g transform="translate(23.0025 34.770361) scale(0.06 -0.06)">
       <use xlink:href="#DejaVuSans-30"/>
       <use xlink:href="#DejaVuSans-2e" transform="translate(63.623047 0)"/>
       <use xlink:href="#DejaVuSans-35" transform="translate(95.410156 0)"/>
      </g>
     </g>
    </g>
    <g id="text_12">
     <!-- Amplitude (mV) -->
     <g transform="translate(12.518906 76.682734) rotate(-90) scale(0.07 -0.07)">
      <defs>
       <path id="DejaVuSans-41" d="M 2188 4044 
L 1331 1722 
L 3047 1722 
L 2188 4044 
z
M 1831 4666 
L 2547 4666 
L 4325 0 
L 3669 0 
L 3244 1197 
L 1141 1197 
L 716 0 
L 50 0 
L 1831 4666 
z
" transform="scale(0.015625)"/>
       <path id="DejaVuSans-70" d="M 1159 525 
L 1159 -1331 
L 581 -1331 
L 581 3500 
L 1159 3500 
L 1159 2969 
Q 1341 3281 1617 3432 
Q 1894 3584 2278 3584 
Q 2916 3584 3314 3078 
Q 3713 2572 3713 1747 
Q 3713 922 3314 415 
Q 2916 -91 2278 -91 
Q 1894 -91 1617 61 
Q 1341 213 1159 525 
z
M 3116 1747 
Q 3116 2381 2855 2742 
Q 2594 3103 2138 3103 
Q 1681 3103 1420 2742 
Q 1159 2381 1159 1747 
Q 1159 1113 1420 752 
Q 1681 391 2138 391 
Q 2594 391 2855 752 
Q 3116 1113 3116 1747 
z
" transform="scale(0.015625)"/>
       <path id="DejaVuSans-6c" d="M 603 4863 
L 1178 4863 
L 1178 0 
L 603 0 
L 603 4863 
z
" transform="scale(0.015625)"/>
       <path id="DejaVuSans-74" d="M 1172 4494 
L 1172 3500 
L 2356 3500 
L 2356 3053 
L 1172 3053 
L 1172 1153 
Q 1172 725 1289 603 
Q 1406 481 1766 481 
L 2356 481 
L 2356 0 
L 1766 0 
Q 1100 0 847 248 
Q 594 497 594 1153 
L 594 3053 
L 172 3053 
L 172 3500 
L 594 3500 
L 594 4494 
L 1172 4494 
z
" transform="scale(0.015625)"/>
       <path id="DejaVuSans-75" d="M 544 1381 
L 544 3500 
L 1119 3500 
L 1119 1403 
Q 1119 906 1312 657 
Q 1506 409 1894 409 
Q 2359 409 2629 706 
Q 2900 1003 2900 1516 
L 2900 3500 
L 3475 3500 
L 3475 0 
L 2900 0 
L 2900 538 
Q 2691 219 2414 64 
Q 2138 -91 1772 -91 
Q 1169 -91 856 284 
Q 544 659 544 1381 
z
M 1991 3584 
L 1991 3584 
z
" transform="scale(0.015625)"/>
       <path id="DejaVuSans-64" d="M 2906 2969 
L 2906 4863 
L 3481 4863 
L 3481 0 
L 2906 0 
L 2906 525 
Q 2725 213 2448 61 
Q 2172 -91 1784 -91 
Q 1150 -91 751 415 
Q 353 922 353 1747 
Q 353 2572 751 3078 
Q 1150 3584 1784 3584 
Q 2172 3584 2448 3432 
Q 2725 3281 2906 2969 
z
M 947 1747 
Q 947 1113 1208 752 
Q 1469 391 1925 391 
Q 2381 391 2643 752 
Q 2906 1113 2906 1747 
Q 2906 2381 2643 2742 
Q 2381 3103 1925 3103 
Q 1469 3103 1208 2742 
Q 947 2381 947 1747 
z
" transform="scale(0.015625)"/>
       <path id="DejaVuSans-56" d="M 1831 0 
L 50 4666 
L 709 4666 
L 2188 738 
L 3669 4666 
L 4325 4666 
L 2547 0 
L 1831 0 
z
" transform="scale(0.015625)"/>
      </defs>
      <use xlink:href="#DejaVuSans-41"/>
      <use xlink:href="#DejaVuSans-6d" transform="translate(68.408203 0)"/>
      <use xlink:href="#DejaVuSans-70" transform="translate(165.820312 0)"/>
      <use xlink:href="#DejaVuSans-6c" transform="translate(229.296875 0)"/>
      <use xlink:href="#DejaVuSans-69" transform="translate(257.080078 0)"/>
      <use xlink:href="#DejaVuSans-74" transform="translate(284.863281 0)"/>
      <use xlink:href="#DejaVuSans-75" transform="translate(324.072266 0)"/>
      <use xlink:href="#DejaVuSans-64" transform="translate(387.451172 0)"/>
      <use xlink:href="#DejaVuSans-65" transform="translate(450.927734 0)"/>
      <use xlink:href="#DejaVuSans-20" transform="translate(512.451172 0)"/>
      <use xlink:href="#DejaVuSans-28" transform="translate(544.238281 0)"/>
      <use xlink:href="#DejaVuSans-6d" transform="translate(583.251953 0)"/>
      <use xlink:href="#DejaVuSans-56" transform="translate(680.664062 0)"/>
      <use xlink:href="#DejaVuSans-29" transform="translate(749.072266 0)"/>
     </g>
    </g>
   </g>
   <g id="line2d_21">
    <path d="M 39.544375 58.997516 
L 39.711131 66.129174 
L 39.752819 66.099131 
L 39.898731 64.84846 
L 40.190553 63.588588 
L 40.253086 63.529935 
L 40.378153 62.673232 
L 40.628286 61.662361 
L 40.649131 61.737095 
L 40.732508 62.984937 
L 40.940953 66.510313 
L 40.961797 66.356724 
L 41.462064 60.329574 
L 41.607975 59.898295 
L 41.649664 60.037325 
L 41.941486 61.896808 
L 41.962331 61.688099 
L 42.024864 56.237407 
L 42.191619 21.801459 
L 42.254153 30.15846 
L 42.483442 66.594354 
L 42.671042 68.81139 
L 42.691886 68.758032 
L 42.837797 67.232052 
L 43.650731 55.200964 
L 43.671575 55.215851 
L 43.754953 55.74323 
L 43.942553 58.760374 
L 44.088464 61.725272 
L 44.150997 61.442501 
L 44.338597 60.834787 
L 44.380286 60.885016 
L 44.588731 61.045888 
L 44.651264 60.952959 
L 44.776331 60.545533 
L 44.901397 59.221932 
L 44.963931 59.322159 
L 45.047308 59.594125 
L 45.255753 60.332982 
L 45.443353 60.14089 
L 45.568419 59.196803 
L 45.756019 58.152304 
L 46.047842 56.307874 
L 46.089531 56.615679 
L 46.297975 58.344367 
L 46.443886 56.714907 
L 46.527264 46.860598 
L 46.673175 20.402149 
L 46.714864 24.466237 
L 46.923308 59.955123 
L 46.985842 59.467352 
L 47.048375 59.231568 
L 47.736242 49.152634 
L 47.777931 48.973545 
L 47.798775 49.035556 
L 48.111442 51.780129 
L 48.236508 53.168458 
L 48.549175 65.269006 
L 48.674242 65.197429 
L 48.695086 65.207835 
L 48.715931 65.147539 
L 48.757619 64.926648 
L 48.799308 65.138616 
L 49.091131 72.299573 
L 49.382953 87.190909 
L 49.445486 86.006801 
L 49.862375 71.353856 
L 49.924908 70.644769 
L 50.070819 65.27477 
L 50.258419 60.787126 
L 50.383486 58.601991 
L 50.633619 52.435487 
L 50.758686 52.568958 
L 50.821219 53.592037 
L 50.946286 55.853974 
L 50.987975 55.598828 
L 51.050508 51.120523 
L 51.217264 14.330558 
L 51.279797 27.518163 
L 51.488242 66.308397 
L 51.529931 67.503418 
L 51.592464 66.695122 
L 51.884286 64.298075 
L 51.967664 64.11703 
L 52.176108 61.13435 
L 52.467931 54.035344 
L 52.822286 49.935247 
L 52.843131 49.98804 
L 52.905664 51.309937 
L 53.197486 58.513426 
L 53.280864 58.69246 
L 53.322553 58.638888 
L 53.530997 58.388691 
L 53.593531 58.823113 
L 53.801975 60.260903 
L 53.822819 60.272972 
L 53.843664 60.213342 
L 54.093797 59.188848 
L 54.114642 59.204216 
L 54.239708 59.506608 
L 54.427308 61.271596 
L 54.468997 61.098065 
L 54.594064 59.148646 
L 54.739975 55.857346 
L 54.781664 56.051583 
L 54.865042 57.546668 
L 55.073486 61.206985 
L 55.094331 61.21849 
L 55.115175 61.167864 
L 55.281931 59.725935 
L 55.365308 58.780572 
L 55.427842 58.887541 
L 55.490375 59.394121 
L 55.698819 62.337515 
L 55.740508 62.225348 
L 55.928108 60.442254 
L 55.990642 54.917201 
L 56.157397 13.768846 
L 56.219931 28.764906 
L 56.344997 67.328952 
L 56.407531 65.817048 
L 56.428375 65.852591 
L 56.532597 67.966787 
L 56.574286 67.491608 
L 56.761886 64.943651 
L 56.782731 64.995217 
L 56.845264 65.331932 
L 56.886953 64.95029 
L 57.116242 62.830078 
L 57.220464 61.641314 
L 57.574819 55.642919 
L 57.595664 55.624431 
L 57.616508 55.664508 
L 57.699886 56.551858 
L 58.095931 62.227969 
L 58.116775 62.220528 
L 58.366908 59.32815 
L 58.450286 59.672339 
L 58.575353 60.240474 
L 58.637886 60.151287 
L 58.783797 59.706799 
L 58.888019 59.882578 
L 59.158997 59.732052 
L 59.200686 59.829457 
L 59.367442 59.961837 
L 59.513353 60.081038 
L 59.700953 60.621317 
L 59.763486 60.505721 
L 60.367975 57.775175 
L 60.472197 56.764574 
L 60.513886 57.007376 
L 60.951619 62.359899 
L 60.972464 62.128664 
L 61.034997 57.866444 
L 61.222597 13.401064 
L 61.285131 26.49652 
L 61.472731 65.591935 
L 61.639486 66.734154 
L 61.722864 66.714086 
L 61.806242 67.131909 
L 61.910464 65.187465 
L 62.139753 63.58366 
L 62.285664 62.33066 
L 62.660864 54.904977 
L 62.702553 55.081867 
L 62.869308 57.993105 
L 63.077753 60.49933 
L 63.202819 60.879126 
L 63.307042 61.2434 
L 63.348731 61.112388 
L 63.390419 60.946446 
L 63.432108 61.052658 
L 63.578019 61.958658 
L 63.619708 61.670364 
L 63.828153 58.709591 
L 63.869842 59.017535 
L 64.099131 60.974154 
L 64.140819 60.941783 
L 64.224197 60.563879 
L 64.516019 59.602333 
L 64.578553 59.829057 
L 64.828686 60.847372 
L 64.891219 60.251979 
L 65.120508 58.238156 
L 65.328953 57.162733 
L 65.370642 56.966395 
L 65.412331 57.380628 
L 65.683308 59.656725 
L 65.704153 59.748837 
L 65.724997 59.666796 
L 65.850064 57.735378 
L 65.933442 41.610576 
L 66.037664 18.590849 
L 66.079353 21.905409 
L 66.329486 64.982965 
L 66.496242 66.209756 
L 66.642153 65.923274 
L 66.975664 62.711624 
L 67.038197 62.777804 
L 67.079886 62.373492 
L 67.371708 55.744684 
L 67.434242 56.08232 
L 67.934508 60.3381 
L 68.184642 60.913781 
L 68.226331 60.769525 
L 68.372242 60.522547 
L 68.664064 59.972222 
L 68.747442 59.521203 
L 68.789131 59.70441 
L 68.976731 60.82255 
L 68.997575 60.803388 
L 69.101797 60.035029 
L 69.164331 60.408175 
L 69.185175 60.469087 
L 69.226864 60.330517 
L 69.393619 60.024809 
L 69.643753 60.370104 
L 69.706286 60.522157 
L 69.747975 60.442584 
L 70.164864 57.969721 
L 70.331619 56.059733 
L 70.373308 56.440683 
L 70.623442 61.545456 
L 70.644286 61.428064 
L 70.811042 59.084785 
L 70.894419 45.462457 
L 71.019486 11.547312 
L 71.061175 18.743367 
L 71.269619 66.734874 
L 71.311308 67.857772 
L 71.352997 66.910932 
L 71.415531 65.342778 
L 71.478064 66.32574 
L 71.498908 66.400606 
L 71.540597 66.185314 
L 71.811575 64.205254 
L 71.978331 63.304406 
L 72.020019 63.251056 
L 72.082553 61.793831 
L 72.311842 56.916891 
L 72.499442 55.451837 
L 72.520286 55.505134 
L 72.603664 56.491273 
L 72.895486 60.765003 
L 73.083086 61.144753 
L 73.124775 61.19235 
L 73.166464 61.12654 
L 73.312375 60.856876 
L 73.333219 60.929955 
L 73.395753 61.317215 
L 73.437442 61.193218 
L 73.687575 59.821304 
L 73.812642 59.34133 
L 73.875175 59.125055 
L 73.916864 59.265721 
L 74.146153 60.390567 
L 74.187842 60.364692 
L 74.333753 59.973159 
L 74.417131 59.439216 
L 74.500508 58.895219 
L 74.542197 59.074635 
L 74.667264 60.85628 
L 74.729797 60.401825 
L 74.938242 59.198362 
L 75.250908 57.357823 
L 75.396819 56.317384 
L 75.438508 56.902506 
L 75.646953 60.420493 
L 75.792864 62.145951 
L 75.834553 61.500988 
L 75.917931 56.72257 
L 76.022153 32.022206 
L 76.105531 11.780326 
L 76.147219 18.599518 
L 76.376508 68.207662 
L 76.397353 68.693901 
L 76.439042 68.087197 
L 76.605797 65.546698 
L 76.751708 65.240089 
L 76.814242 65.523401 
L 76.835086 65.590434 
L 76.876775 65.478734 
L 76.980997 64.785504 
L 77.251975 59.957555 
L 77.502108 54.582269 
L 77.606331 55.564374 
L 77.689708 56.455005 
L 77.918997 61.034462 
L 77.960686 61.002399 
L 78.002375 61.009517 
L 78.023219 61.050123 
L 78.064908 61.097796 
L 78.127442 61.040177 
L 78.273353 61.165575 
L 78.419264 61.56158 
L 78.544331 62.238402 
L 78.606864 61.994441 
L 78.940375 59.563634 
L 78.982064 59.747018 
L 79.253042 60.881423 
L 79.315575 60.799923 
L 79.544864 60.024762 
L 79.607397 60.095425 
L 79.753308 60.607176 
L 79.857531 60.790251 
L 79.920064 60.699199 
L 79.961753 60.675116 
L 80.024286 59.881783 
L 80.086819 58.778214 
L 80.149353 59.225599 
L 80.191042 59.534721 
L 80.232731 59.344035 
L 80.336953 56.741342 
L 80.420331 54.752438 
L 80.462019 55.157358 
L 80.712153 60.893311 
L 80.774686 60.58503 
L 80.858064 59.2875 
L 80.983131 52.943333 
L 81.149886 14.682498 
L 81.191575 22.946973 
L 81.316642 64.677267 
L 81.400019 63.157129 
L 81.483397 68.084914 
L 81.545931 65.493658 
L 81.712686 62.846787 
L 81.775219 62.711382 
L 82.025353 61.659108 
L 82.129575 60.931962 
L 82.317175 56.798931 
L 82.588153 52.99075 
L 82.650686 52.428688 
L 82.692375 52.943658 
L 82.942508 58.530785 
L 83.046731 58.604179 
L 83.192642 59.728794 
L 83.317708 61.066064 
L 83.359397 61.030274 
L 83.442775 59.879105 
L 83.484464 59.441397 
L 83.546997 59.8186 
L 83.567842 59.881299 
L 83.630375 59.754731 
L 83.651219 59.790496 
L 83.672064 59.827666 
L 83.692908 59.774205 
L 83.755442 59.241214 
L 83.776286 59.459587 
L 84.047264 64.710045 
L 84.109797 65.071542 
L 84.568375 70.40191 
L 84.589219 70.321313 
L 84.755975 67.661337 
L 85.131175 52.807592 
L 85.193708 53.793448 
L 85.256242 55.010317 
L 85.297931 54.597797 
L 85.443842 47.04411 
L 85.506375 49.452491 
L 85.798197 62.456589 
L 85.839886 60.682296 
L 86.006642 34.150604 
L 86.069175 41.631982 
L 86.298464 80.577321 
L 86.340153 80.923905 
L 86.444375 83.4962 
L 86.486064 82.660267 
L 86.631975 81.081483 
L 86.652819 81.152409 
L 86.673664 81.247401 
L 86.715353 80.946365 
L 86.902953 74.321108 
L 87.257308 44.044146 
L 87.465753 32.839402 
L 87.486597 32.904026 
L 87.569975 35.123126 
L 87.799264 39.540561 
L 88.028553 43.035403 
L 88.174464 48.038767 
L 88.341219 50.350802 
L 88.424597 51.342033 
L 89.049931 65.120052 
L 89.279219 65.4068 
L 89.362597 65.540241 
L 89.404286 65.624605 
L 89.466819 65.548373 
L 89.862864 65.29704 
L 89.925397 65.543822 
L 89.967086 65.761545 
L 90.008775 65.59109 
L 90.258908 61.291036 
L 90.342286 59.636279 
L 90.383975 60.129371 
L 90.592419 65.126121 
L 90.654953 65.050826 
L 90.696642 64.946445 
L 90.780019 63.866796 
L 90.842553 59.093709 
L 91.030153 20.973063 
L 91.092686 32.909725 
L 91.238597 70.882453 
L 91.280286 70.179786 
L 91.530419 65.012245 
L 91.676331 64.667658 
L 91.759708 64.426098 
L 92.155753 60.630419 
L 92.468419 52.996081 
L 92.510108 53.238966 
L 93.031219 59.717963 
L 93.093753 59.217403 
L 93.177131 58.403867 
L 93.239664 58.707725 
L 93.427264 59.50824 
L 93.448108 59.443422 
L 93.594019 59.098053 
L 93.614864 59.115589 
L 93.719086 59.372591 
L 93.781619 59.250072 
L 93.844153 59.154854 
L 93.885842 59.271494 
L 94.010908 59.811276 
L 94.073442 59.784366 
L 94.177664 59.521775 
L 94.261042 59.696979 
L 94.344419 59.700638 
L 94.365264 59.666803 
L 94.448642 59.485801 
L 94.490331 59.610639 
L 94.886375 61.857988 
L 94.948908 62.160475 
L 95.011442 62.013687 
L 95.073975 61.878325 
L 95.428331 58.328023 
L 95.470019 58.812444 
L 95.761842 62.550137 
L 95.866064 61.443537 
L 95.928597 56.450786 
L 96.095353 11.940248 
L 96.157886 25.21755 
L 96.282953 65.591833 
L 96.345486 65.214664 
L 96.408019 66.30783 
L 96.470553 65.556778 
L 96.887442 63.249596 
L 96.991664 62.930622 
L 97.158419 60.490866 
L 97.533619 55.186959 
L 97.575308 55.080489 
L 97.596153 55.168443 
L 97.783753 57.927278 
L 97.992197 60.644187 
L 98.221486 61.222405 
L 98.242331 61.183708 
L 98.429931 60.86913 
L 98.784286 60.670804 
L 99.138642 59.036535 
L 99.201175 59.440292 
L 99.430464 61.480648 
L 99.492997 61.225564 
L 99.680597 60.46235 
L 99.701442 60.515532 
L 99.889042 61.766019 
L 99.930731 61.32102 
L 100.160019 57.656955 
L 100.389308 56.97921 
L 100.410153 57.027671 
L 100.743664 61.072338 
L 100.806197 60.235957 
L 100.889575 54.918286 
L 101.014642 25.733664 
L 101.077175 14.697822 
L 101.118864 22.86823 
L 101.264775 64.976261 
L 101.327308 64.650112 
L 101.494064 65.655666 
L 101.514908 65.820807 
L 101.556597 65.431407 
L 101.765042 63.63837 
L 102.015175 61.974194 
L 102.223619 59.550005 
L 102.452908 55.145347 
L 102.515442 54.969657 
L 102.557131 55.061977 
L 102.619664 55.869883 
L 102.890642 60.531881 
L 103.015708 61.383389 
L 103.224153 62.305946 
L 103.307531 62.471159 
L 103.349219 62.383631 
L 103.703575 61.273973 
L 103.766108 61.17135 
L 103.828642 61.005586 
L 103.891175 61.08557 
L 104.057931 61.248332 
L 104.120464 61.106741 
L 104.308064 60.697218 
L 104.662419 59.415613 
L 104.683264 59.492671 
L 104.787486 60.006263 
L 104.850019 59.871564 
L 105.037619 58.888058 
L 105.246064 57.737286 
L 105.266908 57.751257 
L 105.329442 57.884409 
L 105.433664 59.294068 
L 105.558731 61.106715 
L 105.621264 60.870248 
L 105.683797 60.610693 
L 105.808864 58.888834 
L 105.892242 43.995284 
L 106.017308 15.843183 
L 106.058997 21.488989 
L 106.288286 65.631143 
L 106.329975 66.306996 
L 106.413353 66.056652 
L 106.455042 66.228011 
L 106.475886 66.057076 
L 106.726019 63.84529 
L 107.142908 59.370943 
L 107.455575 53.154716 
L 107.497264 53.471315 
L 108.039219 62.709117 
L 108.060064 62.572658 
L 108.289353 60.214841 
L 108.414419 60.296671 
L 108.476953 61.277185 
L 108.560331 62.860397 
L 108.602019 62.46474 
L 108.852153 59.803254 
L 108.872997 59.804745 
L 108.956375 60.084298 
L 109.227353 60.710303 
L 109.248197 60.686284 
L 109.414953 60.510893 
L 109.540019 60.409163 
L 109.560864 60.45802 
L 109.665086 61.466913 
L 109.769308 61.317409 
L 109.831842 61.031966 
L 110.269575 57.442668 
L 110.373797 56.501185 
L 110.415486 56.642691 
L 110.811531 61.846717 
L 110.853219 61.477089 
L 110.915753 57.428719 
L 111.103353 15.203211 
L 111.165886 29.485538 
L 111.290953 65.258018 
L 111.353486 65.030849 
L 111.520242 67.431732 
L 111.541086 67.281348 
L 111.791219 63.9272 
L 111.853753 63.724838 
L 112.187264 60.371856 
L 112.437397 53.895284 
L 112.479086 53.60084 
L 112.541619 53.863334 
L 112.624997 54.765235 
L 113.062731 61.172253 
L 113.208642 61.343653 
L 113.333708 60.972805 
L 113.500464 60.456647 
L 113.542153 60.596354 
L 113.688064 61.674177 
L 113.750597 61.361773 
L 114.000731 59.504224 
L 114.042419 59.558887 
L 114.271708 60.263776 
L 114.396775 60.622408 
L 114.438464 60.572568 
L 114.584375 59.758392 
L 114.709442 59.084508 
L 114.792819 59.309815 
L 115.042953 60.603023 
L 115.084642 60.383531 
L 115.480686 57.220117 
L 115.522375 57.411156 
L 115.689131 61.467677 
L 115.751664 62.308367 
L 115.814197 62.093863 
L 115.876731 62.540507 
L 115.918419 62.3047 
L 116.022642 60.87782 
L 116.106019 45.613787 
L 116.231086 13.216325 
L 116.272775 20.745549 
L 116.481219 66.931329 
L 116.522908 68.325544 
L 116.564597 67.149362 
L 116.606286 65.973176 
L 116.689664 66.52355 
L 116.898108 65.566822 
L 116.939797 65.588503 
L 116.960642 65.49566 
L 117.189931 62.396592 
L 117.419219 57.957233 
L 117.585975 55.469154 
L 117.690197 53.916758 
L 117.731886 53.994298 
L 117.815264 55.058837 
L 118.148775 61.482662 
L 118.169619 61.473592 
L 118.252997 61.263232 
L 118.398908 60.937536 
L 118.419753 60.95153 
L 118.732419 61.386981 
L 118.753264 61.337014 
L 118.836642 60.301574 
L 118.920019 59.136483 
L 118.961708 59.440311 
L 119.065931 60.880165 
L 119.128464 60.417691 
L 119.336908 59.058663 
L 119.441131 58.901107 
L 119.482819 58.980355 
L 119.691264 59.33066 
L 119.899708 59.28052 
L 119.962242 59.166457 
L 120.254064 56.887891 
L 120.337442 56.185922 
L 120.399975 56.300139 
L 120.462508 57.058735 
L 120.691797 60.60925 
L 120.754331 61.137297 
L 120.816864 61.642473 
L 120.879397 61.397354 
L 120.921086 60.445603 
L 121.004464 47.143967 
L 121.129531 19.482154 
L 121.171219 24.28878 
L 121.317131 65.694299 
L 121.379664 64.950781 
L 121.442197 65.955595 
L 121.504731 65.404403 
L 121.567264 65.699618 
L 121.588108 65.509382 
L 121.796553 63.906144 
L 121.859086 63.582945 
L 122.609486 53.901335 
L 122.692864 55.271015 
L 123.088908 61.993731 
L 123.151442 62.070316 
L 123.213975 62.037503 
L 123.464108 61.652333 
L 123.880997 60.41268 
L 124.006064 59.514578 
L 124.047753 59.812332 
L 124.235353 61.593852 
L 124.297886 61.285885 
L 124.464642 60.013758 
L 124.506331 60.189205 
L 124.589708 60.844125 
L 124.631397 60.658817 
L 124.902375 59.009896 
L 125.152508 57.095612 
L 125.173353 57.278262 
L 125.444331 60.416948 
L 125.486019 60.453906 
L 125.506864 60.408463 
L 125.590242 59.647185 
L 125.652775 55.707006 
L 125.840375 20.988537 
L 125.902908 36.414294 
L 126.027975 64.596202 
L 126.069664 64.411183 
L 126.215575 66.752061 
L 126.319797 65.82914 
L 126.840908 61.157763 
L 127.070197 56.801678 
L 127.320331 55.106228 
L 127.362019 55.244776 
L 127.445397 56.125661 
L 127.716375 60.677001 
L 127.799753 60.786988 
L 127.841442 60.678955 
L 128.049886 59.845681 
L 128.070731 59.880026 
L 128.237486 60.94222 
L 128.404242 61.99856 
L 128.425086 61.870331 
L 128.758597 58.821213 
L 128.821131 58.797962 
L 128.862819 58.868521 
L 128.967042 58.844562 
L 129.071264 58.6937 
L 129.092108 58.749431 
L 129.446464 60.43091 
L 129.508997 60.306924 
L 129.550686 60.456899 
L 129.571531 60.499866 
L 129.592375 60.37096 
L 129.821664 56.816626 
L 129.863353 57.263723 
L 130.196864 61.841862 
L 130.301086 60.861971 
L 130.405308 59.51134 
L 130.488686 51.37384 
L 130.634597 19.397204 
L 130.697131 30.698003 
L 130.884731 65.540716 
L 130.988953 67.565461 
L 131.030642 67.368379 
L 131.697664 60.019493 
L 131.968642 55.541073 
L 131.989486 55.573432 
L 132.031175 55.537405 
L 132.093708 55.388372 
L 132.135397 55.539711 
L 132.385531 56.631761 
L 132.656508 61.903098 
L 132.698197 61.823072 
L 132.864953 60.080923 
L 132.906642 59.80514 
L 132.948331 60.076554 
L 133.156775 63.762264 
L 133.219308 63.305273 
L 133.531975 59.168555 
L 133.573664 59.419453 
L 133.761264 61.045238 
L 133.802953 60.954109 
L 134.178153 59.208474 
L 134.198997 59.240737 
L 134.261531 59.349767 
L 134.344908 59.315851 
L 134.386597 59.348315 
L 134.407442 59.298754 
L 134.553353 58.610122 
L 134.678419 56.263573 
L 134.720108 56.586395 
L 134.970242 61.086415 
L 135.053619 60.881872 
L 135.136997 60.045969 
L 135.220375 56.84934 
L 135.324597 32.296724 
L 135.407975 16.364968 
L 135.449664 24.480798 
L 135.574731 66.722787 
L 135.637264 63.687248 
L 135.658108 63.695588 
L 135.741486 67.419496 
L 135.824864 66.847118 
L 135.887397 67.174952 
L 135.929086 66.809165 
L 136.616953 58.380921 
L 136.783708 54.331692 
L 136.846242 54.433153 
L 136.992153 56.024381 
L 137.325664 61.330265 
L 137.450731 60.971237 
L 137.638331 60.556703 
L 137.680019 60.632463 
L 137.930153 61.5132 
L 137.950997 61.386276 
L 138.138597 59.886486 
L 138.159442 59.952917 
L 138.242819 60.420608 
L 138.284508 60.076249 
L 138.472108 58.964166 
L 138.513797 58.899443 
L 138.555486 58.965845 
L 138.701397 60.051891 
L 138.805619 60.596845 
L 138.847308 60.507706 
L 139.076597 59.614417 
L 139.118286 59.664391 
L 139.159975 59.584493 
L 139.305886 58.318691 
L 139.410108 55.010192 
L 139.472642 56.06531 
L 139.764464 62.723422 
L 139.785308 62.672399 
L 139.868686 61.440962 
L 139.972908 57.462805 
L 140.077131 31.158482 
L 140.160508 13.898592 
L 140.202197 22.624483 
L 140.348108 66.972056 
L 140.410642 65.424103 
L 140.452331 65.81396 
L 140.598242 66.43325 
L 140.660775 65.918954 
L 140.952597 63.714328 
L 141.035975 63.369589 
L 141.202731 60.82761 
L 141.390331 57.389029 
L 141.536242 54.86561 
L 141.577931 54.951495 
L 141.744686 56.053178 
L 142.140731 62.068077 
L 142.161575 62.098217 
L 142.182419 61.995316 
L 142.370019 61.253943 
L 142.495086 61.219797 
L 142.599308 61.52681 
L 142.661842 61.406899 
L 142.870286 60.521752 
L 143.057886 59.311156 
L 143.078731 59.337768 
L 143.287175 59.770114 
L 143.370553 59.67565 
L 143.558153 59.416041 
L 143.766597 57.614925 
L 143.870819 56.670518 
L 143.912508 56.991058 
L 144.183486 59.338916 
L 144.454464 61.746219 
L 144.475308 61.522105 
L 144.537842 55.896459 
L 144.704597 18.677762 
L 144.746286 25.284255 
L 144.892197 66.729193 
L 144.954731 65.472753 
L 144.996419 65.978146 
L 145.038108 65.644592 
L 145.225708 64.026773 
L 145.288242 63.946913 
L 145.350775 63.577938 
L 145.434153 63.71637 
L 145.475842 63.68709 
L 145.496686 63.746832 
L 145.538375 63.894117 
L 145.559219 63.822029 
L 145.809353 60.023906 
L 146.101175 54.546224 
L 146.142864 54.31539 
L 146.184553 54.589246 
L 146.705664 61.896144 
L 146.747353 61.850532 
L 147.101708 61.952523 
L 147.185086 62.239362 
L 147.226775 62.054379 
L 147.476908 58.991509 
L 147.581131 59.395364 
L 147.768731 60.535847 
L 147.789575 60.490538 
L 148.477442 57.268355 
L 148.519131 57.584959 
L 148.831797 61.582025 
L 148.852642 61.577485 
L 148.915175 61.192404 
L 148.977708 58.836238 
L 149.081931 37.426573 
L 149.186153 17.394881 
L 149.227842 25.749427 
L 149.373753 65.198689 
L 149.436286 65.027297 
L 149.498819 65.727176 
L 149.561353 65.335037 
L 149.644731 65.850817 
L 149.728108 65.658679 
L 150.082464 64.386188 
L 150.228375 61.337084 
L 150.436819 57.915784 
L 150.645264 54.557907 
L 150.728642 55.279397 
L 151.020464 59.951166 
L 151.041308 59.921202 
L 151.124686 59.313908 
L 151.187219 59.689586 
L 151.374819 60.294655 
L 151.416508 60.270343 
L 151.437353 60.337659 
L 151.562419 61.690602 
L 151.624953 61.274625 
L 152.000153 59.622001 
L 152.229442 60.153013 
L 152.312819 59.931163 
L 152.375353 59.852352 
L 152.542108 59.651691 
L 152.792242 59.202422 
L 153.104908 56.753364 
L 153.146597 56.311336 
L 153.209131 56.707493 
L 153.313353 58.994489 
L 153.500953 61.971111 
L 153.563486 61.328063 
L 153.667708 58.437949 
L 153.751086 44.261556 
L 153.855308 17.152287 
L 153.917842 25.207589 
L 154.105442 66.077974 
L 154.147131 66.073331 
L 154.355575 67.384454 
L 154.397264 66.87886 
L 154.709931 62.885465 
L 154.730775 62.889783 
L 154.834997 64.038526 
L 154.876686 63.706362 
L 155.210197 56.234458 
L 155.376953 54.129323 
L 155.397797 54.041744 
L 155.418642 54.308742 
L 155.772997 61.95751 
L 155.793842 61.991673 
L 155.835531 61.884146 
L 155.898064 61.742186 
L 155.939753 61.8468 
L 156.127353 62.852418 
L 156.210731 62.671261 
L 156.502553 60.955412 
L 156.627619 59.775929 
L 156.669308 59.987943 
L 156.794375 61.176332 
L 156.836064 60.981899 
L 157.107042 57.830959 
L 157.169575 58.459922 
L 157.378019 60.793976 
L 157.398864 60.708012 
L 157.899131 56.001457 
L 157.940819 56.188427 
L 158.024197 57.930827 
L 158.190953 60.440471 
L 158.253486 60.873033 
L 158.295175 60.609694 
L 158.357708 59.986126 
L 158.420242 53.371998 
L 158.586997 11.688218 
L 158.628686 19.262774 
L 158.774597 66.417777 
L 158.837131 66.411655 
L 158.899664 67.177825 
L 158.941353 66.784486 
L 159.233175 64.890969 
L 159.337397 65.223959 
L 159.399931 65.391158 
L 159.420775 65.260801 
L 159.608375 61.542904 
L 159.858508 56.079513 
L 160.087797 54.609221 
L 160.129486 54.069817 
L 160.171175 54.53702 
L 160.462997 60.538455 
L 160.546375 60.844015 
L 160.671442 61.287439 
L 160.713131 61.166218 
L 160.796508 60.494032 
L 160.838197 60.688408 
L 160.942419 61.614864 
L 161.004953 61.331574 
L 161.317619 59.890444 
L 161.546908 59.380197 
L 161.609442 59.215329 
L 161.671975 59.320899 
L 162.213931 60.223673 
L 162.255619 60.145677 
L 162.443219 58.77597 
L 162.672508 56.488124 
L 162.714197 56.721943 
L 163.151931 62.807275 
L 163.172775 62.694543 
L 163.235308 58.64249 
L 163.422908 15.997566 
L 163.485442 34.917131 
L 163.610508 66.236279 
L 163.652197 65.948312 
L 163.839797 66.731928 
L 163.860642 66.743276 
L 163.881486 66.664793 
L 164.110775 64.948378 
L 164.298375 62.938847 
L 164.527664 59.638815 
L 164.736108 56.153341 
L 164.882019 55.884172 
L 164.944553 56.01868 
L 165.090464 56.686429 
L 165.215531 59.990935 
L 165.319753 62.635688 
L 165.361442 62.386114 
L 165.465664 60.994903 
L 165.507353 61.295884 
L 165.611575 62.84436 
L 165.653264 62.3561 
L 165.736642 61.718577 
L 165.799175 61.763501 
L 166.090997 60.478926 
L 166.320286 58.940067 
L 166.466197 58.853042 
L 166.570419 58.838654 
L 166.632953 58.617893 
L 166.674642 58.751052 
L 166.862242 59.769222 
L 166.883086 59.765486 
L 167.049842 58.74159 
L 167.237442 57.271955 
L 167.320819 55.266614 
L 167.383353 56.088541 
L 167.696019 61.837845 
L 167.737708 61.611979 
L 167.821086 59.422826 
L 167.904464 46.897884 
L 168.029531 19.190714 
L 168.071219 24.617987 
L 168.300508 66.388089 
L 168.342197 66.800313 
L 168.383886 66.436899 
L 168.717397 63.995086 
L 168.779931 63.948298 
L 169.009219 62.587558 
L 169.155131 59.816906 
L 169.384419 54.749791 
L 169.426108 54.875418 
L 169.509486 55.550043 
L 169.926375 60.974706 
L 169.988908 61.093964 
L 170.280731 62.630886 
L 170.322419 62.427448 
L 170.614242 60.843224 
L 170.843531 59.454456 
L 170.906064 59.115282 
L 170.947753 59.426092 
L 171.031131 60.218772 
L 171.072819 59.896741 
L 171.197886 58.319645 
L 171.239575 58.997317 
L 171.343797 61.125158 
L 171.406331 61.004682 
L 171.427175 61.022738 
L 171.448019 60.951831 
L 171.698153 57.455657 
L 171.760686 58.066397 
L 171.802375 58.496054 
L 171.864908 57.983628 
L 171.927442 57.367589 
L 171.989975 57.646818 
L 172.094197 58.927498 
L 172.344331 62.51135 
L 172.365175 62.445941 
L 172.427708 60.034898 
L 172.552775 35.271257 
L 172.636153 14.728304 
L 172.677842 18.917006 
L 172.927975 66.800469 
L 172.969664 67.027833 
L 173.032197 66.961204 
L 173.094731 66.391814 
L 173.303175 64.909857 
L 173.365708 64.899491 
L 173.386553 64.842281 
L 173.615842 63.645291 
L 173.845131 58.105168 
L 173.928508 57.373305 
L 174.136953 55.030207 
L 174.157797 55.055873 
L 174.262019 56.168793 
L 174.387086 59.938551 
L 174.532997 61.325107 
L 174.595531 61.499343 
L 174.678908 61.478121 
L 174.824819 61.572915 
L 174.887353 61.665051 
L 174.949886 61.605553 
L 175.137486 61.552648 
L 175.325086 60.826203 
L 175.575219 59.457509 
L 175.658597 59.394106 
L 175.721131 59.162281 
L 175.762819 59.328999 
L 175.867042 60.1484 
L 175.929575 59.976755 
L 176.033797 59.671609 
L 176.054642 59.780132 
L 176.138019 60.429288 
L 176.179708 59.940072 
L 176.429842 57.476943 
L 176.596597 56.749487 
L 176.617442 56.847779 
L 176.992642 61.277493 
L 177.034331 60.620539 
L 177.117708 51.658531 
L 177.263619 13.866671 
L 177.326153 24.675687 
L 177.451219 67.119696 
L 177.513753 65.637099 
L 177.534597 65.669677 
L 177.617975 67.830711 
L 177.680508 66.875357 
L 177.888953 65.496759 
L 177.951486 64.928461 
L 177.993175 65.175032 
L 178.034864 65.407801 
L 178.076553 64.946358 
L 178.389219 60.437792 
L 178.472597 58.132276 
L 178.660197 54.546367 
L 178.764419 54.40406 
L 178.785264 54.410204 
L 178.847797 55.407543 
L 179.077086 59.197671 
L 179.285531 62.609806 
L 179.348064 62.262144 
L 179.452286 61.771444 
L 179.493975 61.866242 
L 179.514819 61.895308 
L 179.535664 61.862579 
L 179.785797 60.57865 
L 179.848331 60.727986 
L 179.910864 60.82884 
L 179.994242 61.394699 
L 180.015086 61.224775 
L 180.265219 58.901007 
L 180.306908 58.918829 
L 180.369442 59.734125 
L 180.452819 60.891324 
L 180.494508 60.456596 
L 180.661264 59.133651 
L 180.682108 59.179296 
L 180.828019 60.023336 
L 180.869708 59.729674 
L 181.057308 57.283831 
L 181.161531 56.198813 
L 181.182375 56.392846 
L 181.515886 63.078429 
L 181.578419 62.77396 
L 181.640953 60.741673 
L 181.745175 41.408904 
L 181.849397 17.178269 
L 181.891086 24.006312 
L 182.036997 66.398815 
L 182.099531 65.659266 
L 182.141219 66.369288 
L 182.182908 65.872705 
L 182.245442 65.075209 
L 182.307975 65.27865 
L 182.516419 64.398979 
L 182.558108 64.458938 
L 182.578953 64.342641 
L 183.037531 57.862076 
L 183.225131 54.810396 
L 183.350197 54.403691 
L 183.371042 54.482603 
L 183.475264 57.071633 
L 183.683708 60.526782 
L 183.725397 60.441694 
L 183.767086 60.596043 
L 184.100597 62.919315 
L 184.121442 62.84745 
L 184.475797 60.297444 
L 184.496642 60.300916 
L 184.580019 60.216494 
L 184.725931 59.642593 
L 184.850997 58.978202 
L 184.892686 59.125281 
L 185.059442 59.841657 
L 185.101131 59.777345 
L 185.497175 58.079242 
L 185.580553 56.096298 
L 185.622242 56.832449 
L 185.893219 61.778418 
L 185.934908 61.934606 
L 185.976597 61.64222 
L 186.080819 59.814418 
L 186.164197 46.258787 
L 186.289264 16.88814 
L 186.330953 25.463283 
L 186.476864 64.601851 
L 186.518553 64.440804 
L 186.601931 65.345266 
L 186.685308 65.063095 
L 186.726997 65.143029 
L 186.768686 64.967622 
L 186.935442 64.747498 
L 187.018819 64.621314 
L 187.185575 62.811029 
L 187.685842 54.105672 
L 187.769219 55.497943 
L 188.123575 60.424303 
L 188.227797 61.065365 
L 188.332019 61.991054 
L 188.373708 61.691373 
L 188.561308 60.719479 
L 188.602997 60.776965 
L 188.811442 61.54768 
L 188.832286 61.466664 
L 189.103264 59.382871 
L 189.249175 59.055901 
L 189.290864 59.191589 
L 189.520153 61.083169 
L 189.582686 60.728437 
L 189.811975 59.11971 
L 189.853664 59.334909 
L 189.957886 60.252127 
L 189.999575 59.789157 
L 190.145486 56.549714 
L 190.208019 57.480683 
L 190.541531 62.028836 
L 190.583219 61.853817 
L 190.645753 59.357244 
L 190.749975 36.272558 
L 190.854197 12.887989 
L 190.895886 22.882976 
L 191.083486 65.709258 
L 191.125175 66.673779 
L 191.166864 65.745325 
L 191.229397 64.290545 
L 191.271086 65.046098 
L 191.291931 65.253763 
L 191.333619 64.767372 
L 191.375308 64.168722 
L 191.437842 64.594876 
L 191.542064 65.761316 
L 191.583753 65.424431 
L 191.938108 60.936605 
L 191.958953 60.953539 
L 192.000642 60.554129 
L 192.313308 54.77142 
L 192.375842 54.402936 
L 192.417531 54.745981 
L 192.855264 61.96411 
L 192.917797 61.839574 
L 193.022019 60.835499 
L 193.063708 61.283387 
L 193.230464 62.526996 
L 193.292997 62.75345 
L 193.313842 62.658428 
L 193.584819 60.203853 
L 193.605664 60.215337 
L 193.647353 60.257063 
L 193.709886 60.184234 
L 193.814108 60.195457 
L 193.834953 60.11818 
L 194.147619 59.175302 
L 194.168464 59.202785 
L 194.293531 60.023061 
L 194.397753 60.660005 
L 194.439442 60.440936 
L 194.793797 55.408915 
L 194.814642 55.686089 
L 195.023086 60.932934 
L 195.064775 60.661044 
L 195.106464 60.444036 
L 195.127308 60.630148 
L 195.210686 61.607462 
L 195.252375 61.044165 
L 195.314908 56.463152 
L 195.502508 13.694218 
L 195.565042 30.4716 
L 195.669264 66.64338 
L 195.731797 64.478489 
L 195.773486 65.847829 
L 195.836019 68.88357 
L 195.898553 68.075923 
L 196.190375 64.751086 
L 196.232064 64.898729 
L 196.315442 65.15403 
L 196.336286 65.043018 
L 196.711486 59.061482 
L 196.919931 54.155605 
L 196.961619 54.076306 
L 196.982464 54.135765 
L 197.065842 55.726567 
L 197.274286 59.334726 
L 197.441042 60.774277 
L 197.566108 62.665043 
L 197.607797 62.490591 
L 197.941308 60.107147 
L 197.982997 60.258324 
L 198.170597 61.781731 
L 198.233131 61.418081 
L 198.420731 58.235093 
L 198.524953 59.122803 
L 198.629175 60.654633 
L 198.691708 59.997186 
L 198.858464 58.75513 
L 198.879308 58.701222 
L 198.920997 58.791913 
L 198.962686 58.863267 
L 198.983531 58.78747 
L 199.317042 56.598953 
L 199.358731 56.941373 
L 199.525486 61.059647 
L 199.650553 62.633825 
L 199.671397 62.42405 
L 199.796464 58.163869 
L 199.900686 37.05511 
L 199.984064 17.712618 
L 200.025753 23.542376 
L 200.171664 67.656956 
L 200.234197 67.293161 
L 200.255042 67.45186 
L 200.296731 66.963367 
L 200.380108 64.774772 
L 200.463486 64.844103 
L 200.505175 64.666443 
L 200.546864 64.861665 
L 200.567708 64.915199 
L 200.609397 64.727782 
L 200.922064 62.549672 
L 201.484864 54.290785 
L 201.526553 54.421284 
L 201.630775 56.21407 
L 201.839219 59.934906 
L 202.047664 61.147783 
L 202.214419 62.559699 
L 202.256108 62.356139 
L 202.506242 60.513389 
L 202.527086 60.528832 
L 202.589619 60.431376 
L 202.839753 59.95325 
L 203.069042 59.711435 
L 203.131575 59.660617 
L 203.214953 59.486592 
L 203.277486 59.55754 
L 203.423397 59.313839 
L 203.694375 57.441591 
L 203.736064 57.60187 
L 204.048731 61.03128 
L 204.111264 60.676673 
L 204.194642 58.864369 
L 204.278019 46.407566 
L 204.403086 17.381068 
L 204.444775 23.778099 
L 204.674064 65.087845 
L 204.840819 66.466502 
L 204.861664 66.508649 
L 204.882508 66.411996 
L 205.424464 61.534765 
L 205.612064 59.040171 
L 205.883042 54.435523 
L 205.966419 55.229713 
L 206.320775 61.067018 
L 206.404153 60.573152 
L 206.445842 60.418334 
L 206.487531 60.59168 
L 206.675131 61.373559 
L 206.716819 61.330698 
L 206.758508 61.340137 
L 206.779353 61.382284 
L 206.821042 61.401815 
L 206.841886 61.35286 
L 207.029486 61.129734 
L 207.133708 61.56427 
L 207.196242 61.369335 
L 207.467219 59.754702 
L 207.529753 59.834241 
L 207.696508 60.343158 
L 207.779886 60.595906 
L 207.821575 60.492283 
L 207.988331 59.126799 
L 208.175931 57.134891 
L 208.196775 57.159206 
L 208.280153 57.765284 
L 208.592819 61.181215 
L 208.634508 60.984575 
L 208.759575 59.7884 
L 208.842953 46.135 
L 208.968019 14.65641 
L 209.009708 22.968039 
L 209.218153 65.428251 
L 209.384908 66.42101 
L 209.405753 66.488688 
L 209.447442 66.341813 
L 209.801797 64.209659 
L 209.906019 63.524071 
L 210.010242 62.2064 
L 210.406286 54.696354 
L 210.468819 54.481509 
L 210.510508 54.629504 
L 210.635575 56.967397 
L 210.781486 59.944786 
L 210.823175 59.909489 
L 210.885708 59.778858 
L 210.948242 59.481518 
L 210.989931 59.830659 
L 211.177531 61.18982 
L 211.219219 61.284253 
L 211.260908 61.091588 
L 211.302597 60.961806 
L 211.323442 61.085 
L 211.427664 62.382265 
L 211.469353 62.01065 
L 211.677797 60.058118 
L 211.802864 60.096673 
L 212.052997 60.157132 
L 212.261442 59.49049 
L 212.282286 59.608697 
L 212.386508 60.918442 
L 212.449042 60.538616 
L 212.720019 58.592271 
L 212.970153 55.772545 
L 213.011842 56.419327 
L 213.220286 61.429953 
L 213.241131 61.358964 
L 213.491264 58.7423 
L 213.574642 46.492405 
L 213.699708 16.215118 
L 213.741397 21.002375 
L 213.949842 66.267191 
L 213.991531 65.840883 
L 214.033219 65.486359 
L 214.054064 65.776708 
L 214.137442 67.326892 
L 214.199975 66.904281 
L 214.325042 65.873553 
L 214.700242 62.270658 
L 214.887842 59.762517 
L 215.158819 54.139775 
L 215.200508 54.553002 
L 215.471486 59.193297 
L 215.700775 60.236207 
L 215.763308 60.761573 
L 215.825842 60.464973 
L 215.846686 60.37603 
L 215.867531 60.458925 
L 215.971753 61.912514 
L 216.075975 61.904651 
L 216.326108 60.402999 
L 216.346953 60.659578 
L 216.492864 62.600899 
L 216.513708 62.553 
L 216.597086 59.691811 
L 216.638775 58.661048 
L 216.701308 59.307119 
L 216.805531 59.820097 
L 216.826375 59.767014 
L 216.909753 59.131755 
L 216.951442 59.547591 
L 217.097353 60.99723 
L 217.118197 60.98787 
L 217.201575 59.868583 
L 217.347486 59.091928 
L 217.680997 58.788449 
L 217.764375 56.981318 
L 217.847753 55.405194 
L 217.889442 55.928759 
L 218.222953 62.326842 
L 218.285486 61.867091 
L 218.348019 56.740569 
L 218.514775 11.009091 
L 218.577308 25.675248 
L 218.764908 64.898447 
L 218.848286 68.908237 
L 218.889975 67.953361 
L 219.160953 64.274163 
L 219.181797 64.303499 
L 219.369397 65.987683 
L 219.390242 65.852033 
L 219.994731 54.734831 
L 220.015575 54.776289 
L 220.161486 56.638908 
L 220.432464 60.358692 
L 220.703442 62.036206 
L 220.745131 61.992699 
L 220.870197 61.037027 
L 220.932731 61.501033 
L 221.036953 62.525961 
L 221.078642 62.197619 
L 221.370464 59.737825 
L 221.683131 59.164595 
L 221.724819 59.277678 
L 222.016642 60.165081 
L 222.058331 60.069155 
L 222.308464 59.56558 
L 222.496064 56.277156 
L 222.516908 56.433487 
L 222.746197 61.49832 
L 222.787886 61.244375 
L 222.996331 58.427611 
L 223.100553 35.528374 
L 223.183931 18.44209 
L 223.225619 23.873074 
L 223.454908 65.365629 
L 223.600819 66.332739 
L 223.621664 66.345298 
L 223.892642 63.867924 
L 224.080242 62.833025 
L 224.330375 59.092846 
L 224.517975 55.91051 
L 224.663886 55.373031 
L 224.705575 55.488143 
L 224.872331 56.969386 
L 225.143308 61.971736 
L 225.247531 61.701686 
L 225.435131 60.920231 
L 225.455975 61.008188 
L 225.539353 61.480454 
L 225.560197 61.340676 
L 225.852019 59.153198 
L 226.122997 58.040131 
L 226.185531 58.185185 
L 226.414819 58.591841 
L 226.519042 58.503291 
L 226.560731 58.365491 
L 226.602419 58.473771 
L 226.623264 58.565543 
L 226.664953 58.339051 
L 226.852553 54.045287 
L 226.915086 55.07468 
L 227.123531 58.866241 
L 227.123531 58.866241 
" clip-path="url(#pc56f1e8946)" style="fill: none; stroke: #1f77b4; stroke-linecap: square"/>
   </g>
   <g id="patch_3">
    <path d="M 39.544375 91 
L 39.544375 7.2 
" style="fill: none; stroke: #000000; stroke-width: 0.8; stroke-linejoin: miter; stroke-linecap: square"/>
   </g>
   <g id="patch_4">
    <path d="M 227.144375 91 
L 227.144375 7.2 
" style="fill: none; stroke: #000000; stroke-width: 0.8; stroke-linejoin: miter; stroke-linecap: square"/>
   </g>
   <g id="patch_5">
    <path d="M 39.544375 91 
L 227.144375 91 
" style="fill: none; stroke: #000000; stroke-width: 0.8; stroke-linejoin: miter; stroke-linecap: square"/>
   </g>
   <g id="patch_6">
    <path d="M 39.544375 7.2 
L 227.144375 7.2 
" style="fill: none; stroke: #000000; stroke-width: 0.8; stroke-linejoin: miter; stroke-linecap: square"/>
   </g>
   <g id="legend_1">
    <g id="patch_7">
     <path d="M 43.744375 29.61375 
L 99.7075 29.61375 
Q 100.9075 29.61375 100.9075 28.41375 
L 100.9075 11.4 
Q 100.9075 10.2 99.7075 10.2 
L 43.744375 10.2 
Q 42.544375 10.2 42.544375 11.4 
L 42.544375 28.41375 
Q 42.544375 29.61375 43.744375 29.61375 
z
" style="fill: #ffffff; opacity: 0.8; stroke: #cccccc; stroke-linejoin: miter"/>
    </g>
    <g id="line2d_22">
     <path d="M 44.944375 15.059063 
L 50.944375 15.059063 
L 56.944375 15.059063 
" style="fill: none; stroke: #1f77b4; stroke-linecap: square"/>
    </g>
    <g id="text_13">
     <!-- Filtered ECG -->
     <g transform="translate(61.744375 17.159063) scale(0.06 -0.06)">
      <defs>
       <path id="DejaVuSans-46" d="M 628 4666 
L 3309 4666 
L 3309 4134 
L 1259 4134 
L 1259 2759 
L 3109 2759 
L 3109 2228 
L 1259 2228 
L 1259 0 
L 628 0 
L 628 4666 
z
" transform="scale(0.015625)"/>
       <path id="DejaVuSans-72" d="M 2631 2963 
Q 2534 3019 2420 3045 
Q 2306 3072 2169 3072 
Q 1681 3072 1420 2755 
Q 1159 2438 1159 1844 
L 1159 0 
L 581 0 
L 581 3500 
L 1159 3500 
L 1159 2956 
Q 1341 3275 1631 3429 
Q 1922 3584 2338 3584 
Q 2397 3584 2469 3576 
Q 2541 3569 2628 3553 
L 2631 2963 
z
" transform="scale(0.015625)"/>
       <path id="DejaVuSans-45" d="M 628 4666 
L 3578 4666 
L 3578 4134 
L 1259 4134 
L 1259 2753 
L 3481 2753 
L 3481 2222 
L 1259 2222 
L 1259 531 
L 3634 531 
L 3634 0 
L 628 0 
L 628 4666 
z
" transform="scale(0.015625)"/>
       <path id="DejaVuSans-43" d="M 4122 4306 
L 4122 3641 
Q 3803 3938 3442 4084 
Q 3081 4231 2675 4231 
Q 1875 4231 1450 3742 
Q 1025 3253 1025 2328 
Q 1025 1406 1450 917 
Q 1875 428 2675 428 
Q 3081 428 3442 575 
Q 3803 722 4122 1019 
L 4122 359 
Q 3791 134 3420 21 
Q 3050 -91 2638 -91 
Q 1578 -91 968 557 
Q 359 1206 359 2328 
Q 359 3453 968 4101 
Q 1578 4750 2638 4750 
Q 3056 4750 3426 4639 
Q 3797 4528 4122 4306 
z
" transform="scale(0.015625)"/>
       <path id="DejaVuSans-47" d="M 3809 666 
L 3809 1919 
L 2778 1919 
L 2778 2438 
L 4434 2438 
L 4434 434 
Q 4069 175 3628 42 
Q 3188 -91 2688 -91 
Q 1594 -91 976 548 
Q 359 1188 359 2328 
Q 359 3472 976 4111 
Q 1594 4750 2688 4750 
Q 3144 4750 3555 4637 
Q 3966 4525 4313 4306 
L 4313 3634 
Q 3963 3931 3569 4081 
Q 3175 4231 2741 4231 
Q 1884 4231 1454 3753 
Q 1025 3275 1025 2328 
Q 1025 1384 1454 906 
Q 1884 428 2741 428 
Q 3075 428 3337 486 
Q 3600 544 3809 666 
z
" transform="scale(0.015625)"/>
      </defs>
      <use xlink:href="#DejaVuSans-46"/>
      <use xlink:href="#DejaVuSans-69" transform="translate(50.269531 0)"/>
      <use xlink:href="#DejaVuSans-6c" transform="translate(78.052734 0)"/>
      <use xlink:href="#DejaVuSans-74" transform="translate(105.835938 0)"/>
      <use xlink:href="#DejaVuSans-65" transform="translate(145.044922 0)"/>
      <use xlink:href="#DejaVuSans-72" transform="translate(206.568359 0)"/>
      <use xlink:href="#DejaVuSans-65" transform="translate(245.431641 0)"/>
      <use xlink:href="#DejaVuSans-64" transform="translate(306.955078 0)"/>
      <use xlink:href="#DejaVuSans-20" transform="translate(370.431641 0)"/>
      <use xlink:href="#DejaVuSans-45" transform="translate(402.21875 0)"/>
      <use xlink:href="#DejaVuSans-43" transform="translate(465.402344 0)"/>
      <use xlink:href="#DejaVuSans-47" transform="translate(535.226562 0)"/>
     </g>
    </g>
    <g id="line2d_23">
     <path d="M 44.944375 23.865938 
L 56.944375 23.865938 
" style="fill: none; stroke: #bf00bf; stroke-width: 0.8"/>
    </g>
    <g id="text_14">
     <!-- R-peaks -->
     <g transform="translate(61.744375 25.965938) scale(0.06 -0.06)">
      <defs>
       <path id="DejaVuSans-52" d="M 2841 2188 
Q 3044 2119 3236 1894 
Q 3428 1669 3622 1275 
L 4263 0 
L 3584 0 
L 2988 1197 
Q 2756 1666 2539 1819 
Q 2322 1972 1947 1972 
L 1259 1972 
L 1259 0 
L 628 0 
L 628 4666 
L 2053 4666 
Q 2853 4666 3247 4331 
Q 3641 3997 3641 3322 
Q 3641 2881 3436 2590 
Q 3231 2300 2841 2188 
z
M 1259 4147 
L 1259 2491 
L 2053 2491 
Q 2509 2491 2742 2702 
Q 2975 2913 2975 3322 
Q 2975 3731 2742 3939 
Q 2509 4147 2053 4147 
L 1259 4147 
z
" transform="scale(0.015625)"/>
       <path id="DejaVuSans-2d" d="M 313 2009 
L 1997 2009 
L 1997 1497 
L 313 1497 
L 313 2009 
z
" transform="scale(0.015625)"/>
       <path id="DejaVuSans-61" d="M 2194 1759 
Q 1497 1759 1228 1600 
Q 959 1441 959 1056 
Q 959 750 1161 570 
Q 1363 391 1709 391 
Q 2188 391 2477 730 
Q 2766 1069 2766 1631 
L 2766 1759 
L 2194 1759 
z
M 3341 1997 
L 3341 0 
L 2766 0 
L 2766 531 
Q 2569 213 2275 61 
Q 1981 -91 1556 -91 
Q 1019 -91 701 211 
Q 384 513 384 1019 
Q 384 1609 779 1909 
Q 1175 2209 1959 2209 
L 2766 2209 
L 2766 2266 
Q 2766 2663 2505 2880 
Q 2244 3097 1772 3097 
Q 1472 3097 1187 3025 
Q 903 2953 641 2809 
L 641 3341 
Q 956 3463 1253 3523 
Q 1550 3584 1831 3584 
Q 2591 3584 2966 3190 
Q 3341 2797 3341 1997 
z
" transform="scale(0.015625)"/>
       <path id="DejaVuSans-6b" d="M 581 4863 
L 1159 4863 
L 1159 1991 
L 2875 3500 
L 3609 3500 
L 1753 1863 
L 3688 0 
L 2938 0 
L 1159 1709 
L 1159 0 
L 581 0 
L 581 4863 
z
" transform="scale(0.015625)"/>
      </defs>
      <use xlink:href="#DejaVuSans-52"/>
      <use xlink:href="#DejaVuSans-2d" transform="translate(65.482422 0)"/>
      <use xlink:href="#DejaVuSans-70" transform="translate(101.566406 0)"/>
      <use xlink:href="#DejaVuSans-65" transform="translate(165.042969 0)"/>
      <use xlink:href="#DejaVuSans-61" transform="translate(226.566406 0)"/>
      <use xlink:href="#DejaVuSans-6b" transform="translate(287.845703 0)"/>
      <use xlink:href="#DejaVuSans-73" transform="translate(345.755859 0)"/>
     </g>
    </g>
   </g>
  </g>
 </g>
 <defs>
  <clipPath id="pc56f1e8946">
   <rect x="39.544375" y="7.2" width="187.6" height="83.8"/>
  </clipPath>
 </defs>
</svg>
