<?xml version="1.0" encoding="utf-8" standalone="no"?>
<!DOCTYPE svg PUBLIC "-//W3C//DTD SVG 1.1//EN"
  "http://www.w3.org/Graphics/SVG/1.1/DTD/svg11.dtd">
<svg xmlns:xlink="http://www.w3.org/1999/xlink" width="241.931563pt" height="121.781562pt" viewBox="0 0 241.931563 121.781562" xmlns="http://www.w3.org/2000/svg" version="1.1">
 <metadata>
  <rdf:RDF xmlns:dc="http://purl.org/dc/elements/1.1/" xmlns:cc="http://creativecommons.org/ns#" xmlns:rdf="http://www.w3.org/1999/02/22-rdf-syntax-ns#">
   <cc:Work>
    <dc:type rdf:resource="http://purl.org/dc/dcmitype/StillImage"/>
    <dc:date>2026-03-31T21:07:14.814236</dc:date>
    <dc:format>image/svg+xml</dc:format>
    <dc:creator>
     <cc:Agent>
      <dc:title>Matplotlib v3.10.8, https://matplotlib.org/</dc:title>
     </cc:Agent>
    </dc:creator>
   </cc:Work>
  </rdf:RDF>
 </metadata>
 <defs>
  <style type="text/css">*{stroke-linejoin: round; stroke-linecap: butt}</style>
 </defs>
 <g id="figure_1">
  <g id="patch_1">
   <path d="M 0 121.781562 
L 241.931563 121.781562 
L 241.931563 0 
L 0 0 
z
" style="fill: #ffffff"/>
  </g>
  <g id="axes_1">
   <g id="patch_2">
    <path d="M 42.151563 91 
L 234.731563 91 
L 234.731563 7.2 
L 42.151563 7.2 
z
" style="fill: #ffffff"/>
   </g>
   <g id="matplotlib.axis_1">
    <g id="xtick_1">
     <g id="line2d_1">
      <path d="M 50.905199 91 
L 50.905199 7.2 
" clip-path="url(#pf7f7bad09c)" style="fill: none; stroke: #b0b0b0; stroke-opacity: 0.3; stroke-width: 0.8; stroke-linecap: square"/>
     </g>
     <g id="line2d_2">
      <defs>
       <path id="me221470968" d="M 0 0 
L 0 3.5 
" style="stroke: #000000; stroke-width: 0.8"/>
      </defs>
      <g>
       <use xlink:href="#me221470968" x="50.905199" y="91" style="stroke: #000000; stroke-width: 0.8"/>
      </g>
     </g>
     <g id="text_1">
      <!-- −0.2 -->
      <g transform="translate(43.620355 102.559062) scale(0.06 -0.06)">
       <defs>
        <path id="DejaVuSans-2212" d="M 678 2272 
L 4684 2272 
L 4684 1741 
L 678 1741 
L 678 2272 
z
" transform="scale(0.015625)"/>
        <path id="DejaVuSans-30" d="M 2034 4250 
Q 1547 4250 1301 3770 
Q 1056 3291 1056 2328 
Q 1056 1369 1301 889 
Q 1547 409 2034 409 
Q 2525 409 2770 889 
Q 3016 1369 3016 2328 
Q 3016 3291 2770 3770 
Q 2525 4250 2034 4250 
z
M 2034 4750 
Q 2819 4750 3233 4129 
Q 3647 3509 3647 2328 
Q 3647 1150 3233 529 
Q 2819 -91 2034 -91 
Q 1250 -91 836 529 
Q 422 1150 422 2328 
Q 422 3509 836 4129 
Q 1250 4750 2034 4750 
z
" transform="scale(0.015625)"/>
        <path id="DejaVuSans-2e" d="M 684 794 
L 1344 794 
L 1344 0 
L 684 0 
L 684 794 
z
" transform="scale(0.015625)"/>
        <path id="DejaVuSans-32" d="M 1228 531 
L 3431 531 
L 3431 0 
L 469 0 
L 469 531 
Q 828 903 1448 1529 
Q 2069 2156 2228 2338 
Q 2531 2678 2651 2914 
Q 2772 3150 2772 3378 
Q 2772 3750 2511 3984 
Q 2250 4219 1831 4219 
Q 1534 4219 1204 4116 
Q 875 4013 500 3803 
L 500 4441 
Q 881 4594 1212 4672 
Q 1544 4750 1819 4750 
Q 2544 4750 2975 4387 
Q 3406 4025 3406 3419 
Q 3406 3131 3298 2873 
Q 3191 2616 2906 2266 
Q 2828 2175 2409 1742 
Q 1991 1309 1228 531 
z
" transform="scale(0.015625)"/>
       </defs>
       <use xlink:href="#DejaVuSans-2212"/>
       <use xlink:href="#DejaVuSans-30" transform="translate(83.789062 0)"/>
       <use xlink:href="#DejaVuSans-2e" transform="translate(147.412109 0)"/>
       <use xlink:href="#DejaVuSans-32" transform="translate(179.199219 0)"/>
      </g>
     </g>
    </g>
    <g id="xtick_2">
     <g id="line2d_3">
      <path d="M 80.246997 91 
L 80.246997 7.2 
" clip-path="url(#pf7f7bad09c)" style="fill: none; stroke: #b0b0b0; stroke-opacity: 0.3; stroke-width: 0.8; stroke-linecap: square"/>
     </g>
     <g id="line2d_4">
      <g>
       <use xlink:href="#me221470968" x="80.246997" y="91" style="stroke: #000000; stroke-width: 0.8"/>
      </g>
     </g>
     <g id="text_2">
      <!-- −0.1 -->
      <g transform="translate(72.962153 102.559062) scale(0.06 -0.06)">
       <defs>
        <path id="DejaVuSans-31" d="M 794 531 
L 1825 531 
L 1825 4091 
L 703 3866 
L 703 4441 
L 1819 4666 
L 2450 4666 
L 2450 531 
L 3481 531 
L 3481 0 
L 794 0 
L 794 531 
z
" transform="scale(0.015625)"/>
       </defs>
       <use xlink:href="#DejaVuSans-2212"/>
       <use xlink:href="#DejaVuSans-30" transform="translate(83.789062 0)"/>
       <use xlink:href="#DejaVuSans-2e" transform="translate(147.412109 0)"/>
       <use xlink:href="#DejaVuSans-31" transform="translate(179.199219 0)"/>
      </g>
     </g>
    </g>
    <g id="xtick_3">
     <g id="line2d_5">
      <path d="M 109.588795 91 
L 109.588795 7.2 
" clip-path="url(#pf7f7bad09c)" style="fill: none; stroke: #b0b0b0; stroke-opacity: 0.3; stroke-width: 0.8; stroke-linecap: square"/>
     </g>
     <g id="line2d_6">
      <g>
       <use xlink:href="#me221470968" x="109.588795" y="91" style="stroke: #000000; stroke-width: 0.8"/>
      </g>
     </g>
     <g id="text_3">
      <!-- 0.0 -->
      <g transform="translate(104.817857 102.559062) scale(0.06 -0.06)">
       <use xlink:href="#DejaVuSans-30"/>
       <use xlink:href="#DejaVuSans-2e" transform="translate(63.623047 0)"/>
       <use xlink:href="#DejaVuSans-30" transform="translate(95.410156 0)"/>
      </g>
     </g>
    </g>
    <g id="xtick_4">
     <g id="line2d_7">
      <path d="M 138.930592 91 
L 138.930592 7.2 
" clip-path="url(#pf7f7bad09c)" style="fill: none; stroke: #b0b0b0; stroke-opacity: 0.3; stroke-width: 0.8; stroke-linecap: square"/>
     </g>
     <g id="line2d_8">
      <g>
       <use xlink:href="#me221470968" x="138.930592" y="91" style="stroke: #000000; stroke-width: 0.8"/>
      </g>
     </g>
     <g id="text_4">
      <!-- 0.1 -->
      <g transform="translate(134.159655 102.559062) scale(0.06 -0.06)">
       <use xlink:href="#DejaVuSans-30"/>
       <use xlink:href="#DejaVuSans-2e" transform="translate(63.623047 0)"/>
       <use xlink:href="#DejaVuSans-31" transform="translate(95.410156 0)"/>
      </g>
     </g>
    </g>
    <g id="xtick_5">
     <g id="line2d_9">
      <path d="M 168.27239 91 
L 168.27239 7.2 
" clip-path="url(#pf7f7bad09c)" style="fill: none; stroke: #b0b0b0; stroke-opacity: 0.3; stroke-width: 0.8; stroke-linecap: square"/>
     </g>
     <g id="line2d_10">
      <g>
       <use xlink:href="#me221470968" x="168.27239" y="91" style="stroke: #000000; stroke-width: 0.8"/>
      </g>
     </g>
     <g id="text_5">
      <!-- 0.2 -->
      <g transform="translate(163.501453 102.559062) scale(0.06 -0.06)">
       <use xlink:href="#DejaVuSans-30"/>
       <use xlink:href="#DejaVuSans-2e" transform="translate(63.623047 0)"/>
       <use xlink:href="#DejaVuSans-32" transform="translate(95.410156 0)"/>
      </g>
     </g>
    </g>
    <g id="xtick_6">
     <g id="line2d_11">
      <path d="M 197.614188 91 
L 197.614188 7.2 
" clip-path="url(#pf7f7bad09c)" style="fill: none; stroke: #b0b0b0; stroke-opacity: 0.3; stroke-width: 0.8; stroke-linecap: square"/>
     </g>
     <g id="line2d_12">
      <g>
       <use xlink:href="#me221470968" x="197.614188" y="91" style="stroke: #000000; stroke-width: 0.8"/>
      </g>
     </g>
     <g id="text_6">
      <!-- 0.3 -->
      <g transform="translate(192.843251 102.559062) scale(0.06 -0.06)">
       <defs>
        <path id="DejaVuSans-33" d="M 2597 2516 
Q 3050 2419 3304 2112 
Q 3559 1806 3559 1356 
Q 3559 666 3084 287 
Q 2609 -91 1734 -91 
Q 1441 -91 1130 -33 
Q 819 25 488 141 
L 488 750 
Q 750 597 1062 519 
Q 1375 441 1716 441 
Q 2309 441 2620 675 
Q 2931 909 2931 1356 
Q 2931 1769 2642 2001 
Q 2353 2234 1838 2234 
L 1294 2234 
L 1294 2753 
L 1863 2753 
Q 2328 2753 2575 2939 
Q 2822 3125 2822 3475 
Q 2822 3834 2567 4026 
Q 2313 4219 1838 4219 
Q 1578 4219 1281 4162 
Q 984 4106 628 3988 
L 628 4550 
Q 988 4650 1302 4700 
Q 1616 4750 1894 4750 
Q 2613 4750 3031 4423 
Q 3450 4097 3450 3541 
Q 3450 3153 3228 2886 
Q 3006 2619 2597 2516 
z
" transform="scale(0.015625)"/>
       </defs>
       <use xlink:href="#DejaVuSans-30"/>
       <use xlink:href="#DejaVuSans-2e" transform="translate(63.623047 0)"/>
       <use xlink:href="#DejaVuSans-33" transform="translate(95.410156 0)"/>
      </g>
     </g>
    </g>
    <g id="xtick_7">
     <g id="line2d_13">
      <path d="M 226.955986 91 
L 226.955986 7.2 
" clip-path="url(#pf7f7bad09c)" style="fill: none; stroke: #b0b0b0; stroke-opacity: 0.3; stroke-width: 0.8; stroke-linecap: square"/>
     </g>
     <g id="line2d_14">
      <g>
       <use xlink:href="#me221470968" x="226.955986" y="91" style="stroke: #000000; stroke-width: 0.8"/>
      </g>
     </g>
     <g id="text_7">
      <!-- 0.4 -->
      <g transform="translate(222.185049 102.559062) scale(0.06 -0.06)">
       <defs>
        <path id="DejaVuSans-34" d="M 2419 4116 
L 825 1625 
L 2419 1625 
L 2419 4116 
z
M 2253 4666 
L 3047 4666 
L 3047 1625 
L 3713 1625 
L 3713 1100 
L 3047 1100 
L 3047 0 
L 2419 0 
L 2419 1100 
L 313 1100 
L 313 1709 
L 2253 4666 
z
" transform="scale(0.015625)"/>
       </defs>
       <use xlink:href="#DejaVuSans-30"/>
       <use xlink:href="#DejaVuSans-2e" transform="translate(63.623047 0)"/>
       <use xlink:href="#DejaVuSans-34" transform="translate(95.410156 0)"/>
      </g>
     </g>
    </g>
    <g id="text_8">
     <!-- Time relative to R-peak (s) -->
     <g transform="translate(92.058359 113.125781) scale(0.07 -0.07)">
      <defs>
       <path id="DejaVuSans-54" d="M -19 4666 
L 3928 4666 
L 3928 4134 
L 2272 4134 
L 2272 0 
L 1638 0 
L 1638 4134 
L -19 4134 
L -19 4666 
z
" transform="scale(0.015625)"/>
       <path id="DejaVuSans-69" d="M 603 3500 
L 1178 3500 
L 1178 0 
L 603 0 
L 603 3500 
z
M 603 4863 
L 1178 4863 
L 1178 4134 
L 603 4134 
L 603 4863 
z
" transform="scale(0.015625)"/>
       <path id="DejaVuSans-6d" d="M 3328 2828 
Q 3544 3216 3844 3400 
Q 4144 3584 4550 3584 
Q 5097 3584 5394 3201 
Q 5691 2819 5691 2113 
L 5691 0 
L 5113 0 
L 5113 2094 
Q 5113 2597 4934 2840 
Q 4756 3084 4391 3084 
Q 3944 3084 3684 2787 
Q 3425 2491 3425 1978 
L 3425 0 
L 2847 0 
L 2847 2094 
Q 2847 2600 2669 2842 
Q 2491 3084 2119 3084 
Q 1678 3084 1418 2786 
Q 1159 2488 1159 1978 
L 1159 0 
L 581 0 
L 581 3500 
L 1159 3500 
L 1159 2956 
Q 1356 3278 1631 3431 
Q 1906 3584 2284 3584 
Q 2666 3584 2933 3390 
Q 3200 3197 3328 2828 
z
" transform="scale(0.015625)"/>
       <path id="DejaVuSans-65" d="M 3597 1894 
L 3597 1613 
L 953 1613 
Q 991 1019 1311 708 
Q 1631 397 2203 397 
Q 2534 397 2845 478 
Q 3156 559 3463 722 
L 3463 178 
Q 3153 47 2828 -22 
Q 2503 -91 2169 -91 
Q 1331 -91 842 396 
Q 353 884 353 1716 
Q 353 2575 817 3079 
Q 1281 3584 2069 3584 
Q 2775 3584 3186 3129 
Q 3597 2675 3597 1894 
z
M 3022 2063 
Q 3016 2534 2758 2815 
Q 2500 3097 2075 3097 
Q 1594 3097 1305 2825 
Q 1016 2553 972 2059 
L 3022 2063 
z
" transform="scale(0.015625)"/>
       <path id="DejaVuSans-20" transform="scale(0.015625)"/>
       <path id="DejaVuSans-72" d="M 2631 2963 
Q 2534 3019 2420 3045 
Q 2306 3072 2169 3072 
Q 1681 3072 1420 2755 
Q 1159 2438 1159 1844 
L 1159 0 
L 581 0 
L 581 3500 
L 1159 3500 
L 1159 2956 
Q 1341 3275 1631 3429 
Q 1922 3584 2338 3584 
Q 2397 3584 2469 3576 
Q 2541 3569 2628 3553 
L 2631 2963 
z
" transform="scale(0.015625)"/>
       <path id="DejaVuSans-6c" d="M 603 4863 
L 1178 4863 
L 1178 0 
L 603 0 
L 603 4863 
z
" transform="scale(0.015625)"/>
       <path id="DejaVuSans-61" d="M 2194 1759 
Q 1497 1759 1228 1600 
Q 959 1441 959 1056 
Q 959 750 1161 570 
Q 1363 391 1709 391 
Q 2188 391 2477 730 
Q 2766 1069 2766 1631 
L 2766 1759 
L 2194 1759 
z
M 3341 1997 
L 3341 0 
L 2766 0 
L 2766 531 
Q 2569 213 2275 61 
Q 1981 -91 1556 -91 
Q 1019 -91 701 211 
Q 384 513 384 1019 
Q 384 1609 779 1909 
Q 1175 2209 1959 2209 
L 2766 2209 
L 2766 2266 
Q 2766 2663 2505 2880 
Q 2244 3097 1772 3097 
Q 1472 3097 1187 3025 
Q 903 2953 641 2809 
L 641 3341 
Q 956 3463 1253 3523 
Q 1550 3584 1831 3584 
Q 2591 3584 2966 3190 
Q 3341 2797 3341 1997 
z
" transform="scale(0.015625)"/>
       <path id="DejaVuSans-74" d="M 1172 4494 
L 1172 3500 
L 2356 3500 
L 2356 3053 
L 1172 3053 
L 1172 1153 
Q 1172 725 1289 603 
Q 1406 481 1766 481 
L 2356 481 
L 2356 0 
L 1766 0 
Q 1100 0 847 248 
Q 594 497 594 1153 
L 594 3053 
L 172 3053 
L 172 3500 
L 594 3500 
L 594 4494 
L 1172 4494 
z
" transform="scale(0.015625)"/>
       <path id="DejaVuSans-76" d="M 191 3500 
L 800 3500 
L 1894 563 
L 2988 3500 
L 3597 3500 
L 2284 0 
L 1503 0 
L 191 3500 
z
" transform="scale(0.015625)"/>
       <path id="DejaVuSans-6f" d="M 1959 3097 
Q 1497 3097 1228 2736 
Q 959 2375 959 1747 
Q 959 1119 1226 758 
Q 1494 397 1959 397 
Q 2419 397 2687 759 
Q 2956 1122 2956 1747 
Q 2956 2369 2687 2733 
Q 2419 3097 1959 3097 
z
M 1959 3584 
Q 2709 3584 3137 3096 
Q 3566 2609 3566 1747 
Q 3566 888 3137 398 
Q 2709 -91 1959 -91 
Q 1206 -91 779 398 
Q 353 888 353 1747 
Q 353 2609 779 3096 
Q 1206 3584 1959 3584 
z
" transform="scale(0.015625)"/>
       <path id="DejaVuSans-52" d="M 2841 2188 
Q 3044 2119 3236 1894 
Q 3428 1669 3622 1275 
L 4263 0 
L 3584 0 
L 2988 1197 
Q 2756 1666 2539 1819 
Q 2322 1972 1947 1972 
L 1259 1972 
L 1259 0 
L 628 0 
L 628 4666 
L 2053 4666 
Q 2853 4666 3247 4331 
Q 3641 3997 3641 3322 
Q 3641 2881 3436 2590 
Q 3231 2300 2841 2188 
z
M 1259 4147 
L 1259 2491 
L 2053 2491 
Q 2509 2491 2742 2702 
Q 2975 2913 2975 3322 
Q 2975 3731 2742 3939 
Q 2509 4147 2053 4147 
L 1259 4147 
z
" transform="scale(0.015625)"/>
       <path id="DejaVuSans-2d" d="M 313 2009 
L 1997 2009 
L 1997 1497 
L 313 1497 
L 313 2009 
z
" transform="scale(0.015625)"/>
       <path id="DejaVuSans-70" d="M 1159 525 
L 1159 -1331 
L 581 -1331 
L 581 3500 
L 1159 3500 
L 1159 2969 
Q 1341 3281 1617 3432 
Q 1894 3584 2278 3584 
Q 2916 3584 3314 3078 
Q 3713 2572 3713 1747 
Q 3713 922 3314 415 
Q 2916 -91 2278 -91 
Q 1894 -91 1617 61 
Q 1341 213 1159 525 
z
M 3116 1747 
Q 3116 2381 2855 2742 
Q 2594 3103 2138 3103 
Q 1681 3103 1420 2742 
Q 1159 2381 1159 1747 
Q 1159 1113 1420 752 
Q 1681 391 2138 391 
Q 2594 391 2855 752 
Q 3116 1113 3116 1747 
z
" transform="scale(0.015625)"/>
       <path id="DejaVuSans-6b" d="M 581 4863 
L 1159 4863 
L 1159 1991 
L 2875 3500 
L 3609 3500 
L 1753 1863 
L 3688 0 
L 2938 0 
L 1159 1709 
L 1159 0 
L 581 0 
L 581 4863 
z
" transform="scale(0.015625)"/>
       <path id="DejaVuSans-28" d="M 1984 4856 
Q 1566 4138 1362 3434 
Q 1159 2731 1159 2009 
Q 1159 1288 1364 580 
Q 1569 -128 1984 -844 
L 1484 -844 
Q 1016 -109 783 600 
Q 550 1309 550 2009 
Q 550 2706 781 3412 
Q 1013 4119 1484 4856 
L 1984 4856 
z
" transform="scale(0.015625)"/>
       <path id="DejaVuSans-73" d="M 2834 3397 
L 2834 2853 
Q 2591 2978 2328 3040 
Q 2066 3103 1784 3103 
Q 1356 3103 1142 2972 
Q 928 2841 928 2578 
Q 928 2378 1081 2264 
Q 1234 2150 1697 2047 
L 1894 2003 
Q 2506 1872 2764 1633 
Q 3022 1394 3022 966 
Q 3022 478 2636 193 
Q 2250 -91 1575 -91 
Q 1294 -91 989 -36 
Q 684 19 347 128 
L 347 722 
Q 666 556 975 473 
Q 1284 391 1588 391 
Q 1994 391 2212 530 
Q 2431 669 2431 922 
Q 2431 1156 2273 1281 
Q 2116 1406 1581 1522 
L 1381 1569 
Q 847 1681 609 1914 
Q 372 2147 372 2553 
Q 372 3047 722 3315 
Q 1072 3584 1716 3584 
Q 2034 3584 2315 3537 
Q 2597 3491 2834 3397 
z
" transform="scale(0.015625)"/>
       <path id="DejaVuSans-29" d="M 513 4856 
L 1013 4856 
Q 1481 4119 1714 3412 
Q 1947 2706 1947 2009 
Q 1947 1309 1714 600 
Q 1481 -109 1013 -844 
L 513 -844 
Q 928 -128 1133 580 
Q 1338 1288 1338 2009 
Q 1338 2731 1133 3434 
Q 928 4138 513 4856 
z
" transform="scale(0.015625)"/>
      </defs>
      <use xlink:href="#DejaVuSans-54"/>
      <use xlink:href="#DejaVuSans-69" transform="translate(57.958984 0)"/>
      <use xlink:href="#DejaVuSans-6d" transform="translate(85.742188 0)"/>
      <use xlink:href="#DejaVuSans-65" transform="translate(183.154297 0)"/>
      <use xlink:href="#DejaVuSans-20" transform="translate(244.677734 0)"/>
      <use xlink:href="#DejaVuSans-72" transform="translate(276.464844 0)"/>
      <use xlink:href="#DejaVuSans-65" transform="translate(315.328125 0)"/>
      <use xlink:href="#DejaVuSans-6c" transform="translate(376.851562 0)"/>
      <use xlink:href="#DejaVuSans-61" transform="translate(404.634766 0)"/>
      <use xlink:href="#DejaVuSans-74" transform="translate(465.914062 0)"/>
      <use xlink:href="#DejaVuSans-69" transform="translate(505.123047 0)"/>
      <use xlink:href="#DejaVuSans-76" transform="translate(532.90625 0)"/>
      <use xlink:href="#DejaVuSans-65" transform="translate(592.085938 0)"/>
      <use xlink:href="#DejaVuSans-20" transform="translate(653.609375 0)"/>
      <use xlink:href="#DejaVuSans-74" transform="translate(685.396484 0)"/>
      <use xlink:href="#DejaVuSans-6f" transform="translate(724.605469 0)"/>
      <use xlink:href="#DejaVuSans-20" transform="translate(785.787109 0)"/>
      <use xlink:href="#DejaVuSans-52" transform="translate(817.574219 0)"/>
      <use xlink:href="#DejaVuSans-2d" transform="translate(883.056641 0)"/>
      <use xlink:href="#DejaVuSans-70" transform="translate(919.140625 0)"/>
      <use xlink:href="#DejaVuSans-65" transform="translate(982.617188 0)"/>
      <use xlink:href="#DejaVuSans-61" transform="translate(1044.140625 0)"/>
      <use xlink:href="#DejaVuSans-6b" transform="translate(1105.419922 0)"/>
      <use xlink:href="#DejaVuSans-20" transform="translate(1163.330078 0)"/>
      <use xlink:href="#DejaVuSans-28" transform="translate(1195.117188 0)"/>
      <use xlink:href="#DejaVuSans-73" transform="translate(1234.130859 0)"/>
      <use xlink:href="#DejaVuSans-29" transform="translate(1286.230469 0)"/>
     </g>
    </g>
   </g>
   <g id="matplotlib.axis_2">
    <g id="ytick_1">
     <g id="line2d_15">
      <path d="M 42.151563 86.768024 
L 234.731563 86.768024 
" clip-path="url(#pf7f7bad09c)" style="fill: none; stroke: #b0b0b0; stroke-opacity: 0.3; stroke-width: 0.8; stroke-linecap: square"/>
     </g>
     <g id="line2d_16">
      <defs>
       <path id="m6122b9afce" d="M 0 0 
L -3.5 0 
" style="stroke: #000000; stroke-width: 0.8"/>
      </defs>
      <g>
       <use xlink:href="#m6122b9afce" x="42.151563" y="86.768024" style="stroke: #000000; stroke-width: 0.8"/>
      </g>
     </g>
     <g id="text_9">
      <!-- 0.42 -->
      <g transform="translate(21.792188 89.047556) scale(0.06 -0.06)">
       <use xlink:href="#DejaVuSans-30"/>
       <use xlink:href="#DejaVuSans-2e" transform="translate(63.623047 0)"/>
       <use xlink:href="#DejaVuSans-34" transform="translate(95.410156 0)"/>
       <use xlink:href="#DejaVuSans-32" transform="translate(159.033203 0)"/>
      </g>
     </g>
    </g>
    <g id="ytick_2">
     <g id="line2d_17">
      <path d="M 42.151563 77.088021 
L 234.731563 77.088021 
" clip-path="url(#pf7f7bad09c)" style="fill: none; stroke: #b0b0b0; stroke-opacity: 0.3; stroke-width: 0.8; stroke-linecap: square"/>
     </g>
     <g id="line2d_18">
      <g>
       <use xlink:href="#m6122b9afce" x="42.151563" y="77.088021" style="stroke: #000000; stroke-width: 0.8"/>
      </g>
     </g>
     <g id="text_10">
      <!-- 1.87 -->
      <g transform="translate(21.792188 79.367552) scale(0.06 -0.06)">
       <defs>
        <path id="DejaVuSans-38" d="M 2034 2216 
Q 1584 2216 1326 1975 
Q 1069 1734 1069 1313 
Q 1069 891 1326 650 
Q 1584 409 2034 409 
Q 2484 409 2743 651 
Q 3003 894 3003 1313 
Q 3003 1734 2745 1975 
Q 2488 2216 2034 2216 
z
M 1403 2484 
Q 997 2584 770 2862 
Q 544 3141 544 3541 
Q 544 4100 942 4425 
Q 1341 4750 2034 4750 
Q 2731 4750 3128 4425 
Q 3525 4100 3525 3541 
Q 3525 3141 3298 2862 
Q 3072 2584 2669 2484 
Q 3125 2378 3379 2068 
Q 3634 1759 3634 1313 
Q 3634 634 3220 271 
Q 2806 -91 2034 -91 
Q 1263 -91 848 271 
Q 434 634 434 1313 
Q 434 1759 690 2068 
Q 947 2378 1403 2484 
z
M 1172 3481 
Q 1172 3119 1398 2916 
Q 1625 2713 2034 2713 
Q 2441 2713 2670 2916 
Q 2900 3119 2900 3481 
Q 2900 3844 2670 4047 
Q 2441 4250 2034 4250 
Q 1625 4250 1398 4047 
Q 1172 3844 1172 3481 
z
" transform="scale(0.015625)"/>
        <path id="DejaVuSans-37" d="M 525 4666 
L 3525 4666 
L 3525 4397 
L 1831 0 
L 1172 0 
L 2766 4134 
L 525 4134 
L 525 4666 
z
" transform="scale(0.015625)"/>
       </defs>
       <use xlink:href="#DejaVuSans-31"/>
       <use xlink:href="#DejaVuSans-2e" transform="translate(63.623047 0)"/>
       <use xlink:href="#DejaVuSans-38" transform="translate(95.410156 0)"/>
       <use xlink:href="#DejaVuSans-37" transform="translate(159.033203 0)"/>
      </g>
     </g>
    </g>
    <g id="ytick_3">
     <g id="line2d_19">
      <path d="M 42.151563 61.193142 
L 234.731563 61.193142 
" clip-path="url(#pf7f7bad09c)" style="fill: none; stroke: #b0b0b0; stroke-opacity: 0.3; stroke-width: 0.8; stroke-linecap: square"/>
     </g>
     <g id="line2d_20">
      <g>
       <use xlink:href="#m6122b9afce" x="42.151563" y="61.193142" style="stroke: #000000; stroke-width: 0.8"/>
      </g>
     </g>
     <g id="text_11">
      <!-- 4.24 -->
      <g transform="translate(21.792188 63.472673) scale(0.06 -0.06)">
       <use xlink:href="#DejaVuSans-34"/>
       <use xlink:href="#DejaVuSans-2e" transform="translate(63.623047 0)"/>
       <use xlink:href="#DejaVuSans-32" transform="translate(95.410156 0)"/>
       <use xlink:href="#DejaVuSans-34" transform="translate(159.033203 0)"/>
      </g>
     </g>
    </g>
    <g id="ytick_4">
     <g id="line2d_21">
      <path d="M 42.151563 44.985284 
L 234.731563 44.985284 
" clip-path="url(#pf7f7bad09c)" style="fill: none; stroke: #b0b0b0; stroke-opacity: 0.3; stroke-width: 0.8; stroke-linecap: square"/>
     </g>
     <g id="line2d_22">
      <g>
       <use xlink:href="#m6122b9afce" x="42.151563" y="44.985284" style="stroke: #000000; stroke-width: 0.8"/>
      </g>
     </g>
     <g id="text_12">
      <!-- 6.65 -->
      <g transform="translate(21.792188 47.264815) scale(0.06 -0.06)">
       <defs>
        <path id="DejaVuSans-36" d="M 2113 2584 
Q 1688 2584 1439 2293 
Q 1191 2003 1191 1497 
Q 1191 994 1439 701 
Q 1688 409 2113 409 
Q 2538 409 2786 701 
Q 3034 994 3034 1497 
Q 3034 2003 2786 2293 
Q 2538 2584 2113 2584 
z
M 3366 4563 
L 3366 3988 
Q 3128 4100 2886 4159 
Q 2644 4219 2406 4219 
Q 1781 4219 1451 3797 
Q 1122 3375 1075 2522 
Q 1259 2794 1537 2939 
Q 1816 3084 2150 3084 
Q 2853 3084 3261 2657 
Q 3669 2231 3669 1497 
Q 3669 778 3244 343 
Q 2819 -91 2113 -91 
Q 1303 -91 875 529 
Q 447 1150 447 2328 
Q 447 3434 972 4092 
Q 1497 4750 2381 4750 
Q 2619 4750 2861 4703 
Q 3103 4656 3366 4563 
z
" transform="scale(0.015625)"/>
        <path id="DejaVuSans-35" d="M 691 4666 
L 3169 4666 
L 3169 4134 
L 1269 4134 
L 1269 2991 
Q 1406 3038 1543 3061 
Q 1681 3084 1819 3084 
Q 2600 3084 3056 2656 
Q 3513 2228 3513 1497 
Q 3513 744 3044 326 
Q 2575 -91 1722 -91 
Q 1428 -91 1123 -41 
Q 819 9 494 109 
L 494 744 
Q 775 591 1075 516 
Q 1375 441 1709 441 
Q 2250 441 2565 725 
Q 2881 1009 2881 1497 
Q 2881 1984 2565 2268 
Q 2250 2553 1709 2553 
Q 1456 2553 1204 2497 
Q 953 2441 691 2322 
L 691 4666 
z
" transform="scale(0.015625)"/>
       </defs>
       <use xlink:href="#DejaVuSans-36"/>
       <use xlink:href="#DejaVuSans-2e" transform="translate(63.623047 0)"/>
       <use xlink:href="#DejaVuSans-36" transform="translate(95.410156 0)"/>
       <use xlink:href="#DejaVuSans-35" transform="translate(159.033203 0)"/>
      </g>
     </g>
    </g>
    <g id="ytick_5">
     <g id="line2d_23">
      <path d="M 42.151563 28.956271 
L 234.731563 28.956271 
" clip-path="url(#pf7f7bad09c)" style="fill: none; stroke: #b0b0b0; stroke-opacity: 0.3; stroke-width: 0.8; stroke-linecap: square"/>
     </g>
     <g id="line2d_24">
      <g>
       <use xlink:href="#m6122b9afce" x="42.151563" y="28.956271" style="stroke: #000000; stroke-width: 0.8"/>
      </g>
     </g>
     <g id="text_13">
      <!-- 9.04 -->
      <g transform="translate(21.792188 31.235802) scale(0.06 -0.06)">
       <defs>
        <path id="DejaVuSans-39" d="M 703 97 
L 703 672 
Q 941 559 1184 500 
Q 1428 441 1663 441 
Q 2288 441 2617 861 
Q 2947 1281 2994 2138 
Q 2813 1869 2534 1725 
Q 2256 1581 1919 1581 
Q 1219 1581 811 2004 
Q 403 2428 403 3163 
Q 403 3881 828 4315 
Q 1253 4750 1959 4750 
Q 2769 4750 3195 4129 
Q 3622 3509 3622 2328 
Q 3622 1225 3098 567 
Q 2575 -91 1691 -91 
Q 1453 -91 1209 -44 
Q 966 3 703 97 
z
M 1959 2075 
Q 2384 2075 2632 2365 
Q 2881 2656 2881 3163 
Q 2881 3666 2632 3958 
Q 2384 4250 1959 4250 
Q 1534 4250 1286 3958 
Q 1038 3666 1038 3163 
Q 1038 2656 1286 2365 
Q 1534 2075 1959 2075 
z
" transform="scale(0.015625)"/>
       </defs>
       <use xlink:href="#DejaVuSans-39"/>
       <use xlink:href="#DejaVuSans-2e" transform="translate(63.623047 0)"/>
       <use xlink:href="#DejaVuSans-30" transform="translate(95.410156 0)"/>
       <use xlink:href="#DejaVuSans-34" transform="translate(159.033203 0)"/>
      </g>
     </g>
    </g>
    <g id="ytick_6">
     <g id="line2d_25">
      <path d="M 42.151563 12.860191 
L 234.731563 12.860191 
" clip-path="url(#pf7f7bad09c)" style="fill: none; stroke: #b0b0b0; stroke-opacity: 0.3; stroke-width: 0.8; stroke-linecap: square"/>
     </g>
     <g id="line2d_26">
      <g>
       <use xlink:href="#m6122b9afce" x="42.151563" y="12.860191" style="stroke: #000000; stroke-width: 0.8"/>
      </g>
     </g>
     <g id="text_14">
      <!-- 11.44 -->
      <g transform="translate(17.974688 15.139722) scale(0.06 -0.06)">
       <use xlink:href="#DejaVuSans-31"/>
       <use xlink:href="#DejaVuSans-31" transform="translate(63.623047 0)"/>
       <use xlink:href="#DejaVuSans-2e" transform="translate(127.246094 0)"/>
       <use xlink:href="#DejaVuSans-34" transform="translate(159.033203 0)"/>
       <use xlink:href="#DejaVuSans-34" transform="translate(222.65625 0)"/>
      </g>
     </g>
    </g>
    <g id="text_15">
     <!-- R-peak time (s) -->
     <g transform="translate(12.518906 75.888125) rotate(-90) scale(0.07 -0.07)">
      <use xlink:href="#DejaVuSans-52"/>
      <use xlink:href="#DejaVuSans-2d" transform="translate(65.482422 0)"/>
      <use xlink:href="#DejaVuSans-70" transform="translate(101.566406 0)"/>
      <use xlink:href="#DejaVuSans-65" transform="translate(165.042969 0)"/>
      <use xlink:href="#DejaVuSans-61" transform="translate(226.566406 0)"/>
      <use xlink:href="#DejaVuSans-6b" transform="translate(287.845703 0)"/>
      <use xlink:href="#DejaVuSans-20" transform="translate(345.755859 0)"/>
      <use xlink:href="#DejaVuSans-74" transform="translate(377.542969 0)"/>
      <use xlink:href="#DejaVuSans-69" transform="translate(416.751953 0)"/>
      <use xlink:href="#DejaVuSans-6d" transform="translate(444.535156 0)"/>
      <use xlink:href="#DejaVuSans-65" transform="translate(541.947266 0)"/>
      <use xlink:href="#DejaVuSans-20" transform="translate(603.470703 0)"/>
      <use xlink:href="#DejaVuSans-28" transform="translate(635.257812 0)"/>
      <use xlink:href="#DejaVuSans-73" transform="translate(674.271484 0)"/>
      <use xlink:href="#DejaVuSans-29" transform="translate(726.371094 0)"/>
     </g>
    </g>
   </g>
   <g id="line2d_27">
    <path d="M 50.905199 87.093301 
L 96.874016 86.893029 
L 99.808195 86.853729 
L 101.764315 86.657538 
L 103.720435 86.270335 
L 107.632675 85.364684 
L 109.588795 85.196813 
L 111.544914 85.358353 
L 113.501034 85.794919 
L 116.435214 86.561156 
L 118.391334 86.887199 
L 121.325514 87.060712 
L 133.062233 87.188646 
L 154.579551 86.950255 
L 180.009109 86.61664 
L 192.723889 86.785323 
L 201.526428 86.878331 
L 225.977926 86.85536 
L 225.977926 86.85536 
" clip-path="url(#pf7f7bad09c)" style="fill: none; stroke: #440154; stroke-width: 0.6; stroke-linecap: square"/>
   </g>
   <g id="line2d_28">
    <path d="M 50.905199 82.019364 
L 99.808195 81.82228 
L 101.764315 81.612296 
L 104.698495 81.060741 
L 107.632675 80.477952 
L 109.588795 80.330988 
L 111.544914 80.503381 
L 114.479094 81.131589 
L 117.413274 81.727684 
L 119.369394 81.948822 
L 122.303574 82.0036 
L 168.27239 81.646661 
L 183.921349 81.753205 
L 196.636128 82.233017 
L 215.219267 82.347669 
L 225.977926 82.682857 
L 225.977926 82.682857 
" clip-path="url(#pf7f7bad09c)" style="fill: none; stroke: #481b6d; stroke-width: 0.6; stroke-linecap: square"/>
   </g>
   <g id="line2d_29">
    <path d="M 50.905199 77.545764 
L 83.181177 76.817045 
L 93.939836 76.94057 
L 99.808195 76.924606 
L 101.764315 76.760483 
L 103.720435 76.384072 
L 107.632675 75.385871 
L 109.588795 75.199904 
L 110.566855 75.274382 
L 112.522974 75.759304 
L 115.457154 76.763032 
L 117.413274 77.134592 
L 121.325514 77.357882 
L 125.237753 77.451534 
L 140.886712 77.319457 
L 153.601491 77.214804 
L 167.29433 76.897213 
L 186.855529 76.721803 
L 195.658068 77.00081 
L 204.460608 77.080236 
L 225.977926 77.128046 
L 225.977926 77.128046 
" clip-path="url(#pf7f7bad09c)" style="fill: none; stroke: #46327e; stroke-width: 0.6; stroke-linecap: square"/>
   </g>
   <g id="line2d_30">
    <path d="M 50.905199 71.794505 
L 57.751618 71.888044 
L 69.488338 71.812045 
L 77.312817 71.801155 
L 94.917896 71.912851 
L 99.808195 71.815113 
L 101.764315 71.62324 
L 103.720435 71.234537 
L 108.610735 69.95009 
L 109.588795 69.877784 
L 110.566855 69.948086 
L 111.544914 70.168032 
L 113.501034 70.932742 
L 115.457154 71.714979 
L 116.435214 71.968991 
L 118.391334 72.14973 
L 125.237753 72.157103 
L 130.128053 72.137262 
L 138.930592 72.050736 
L 149.689252 72.012975 
L 163.382091 71.80778 
L 171.20657 71.660995 
L 184.899409 71.747613 
L 200.548368 71.933353 
L 211.307027 71.819892 
L 223.043746 71.849046 
L 225.977926 71.845263 
L 225.977926 71.845263 
" clip-path="url(#pf7f7bad09c)" style="fill: none; stroke: #3f4788; stroke-width: 0.6; stroke-linecap: square"/>
   </g>
   <g id="line2d_31">
    <path d="M 50.905199 66.406481 
L 91.005656 66.44616 
L 97.852075 66.496714 
L 100.786255 66.315916 
L 103.720435 65.807425 
L 109.588795 64.429756 
L 110.566855 64.459505 
L 111.544914 64.651579 
L 113.501034 65.403208 
L 115.457154 66.188957 
L 117.413274 66.580949 
L 120.347454 66.637941 
L 139.908652 66.662929 
L 149.689252 66.570261 
L 162.404031 66.433331 
L 173.16269 66.203147 
L 183.921349 66.262602 
L 199.570308 66.433389 
L 225.977926 66.412385 
L 225.977926 66.412385 
" clip-path="url(#pf7f7bad09c)" style="fill: none; stroke: #365c8d; stroke-width: 0.6; stroke-linecap: square"/>
   </g>
   <g id="line2d_32">
    <path d="M 50.905199 61.273178 
L 60.685798 61.204381 
L 84.159236 61.165216 
L 97.852075 61.199883 
L 100.786255 61.146198 
L 102.742375 60.906395 
L 105.676555 60.210025 
L 108.610735 59.582158 
L 110.566855 59.492522 
L 111.544914 59.62634 
L 113.501034 60.246168 
L 115.457154 60.990978 
L 116.435214 61.248517 
L 118.391334 61.433572 
L 126.215813 61.466455 
L 164.360151 61.222706 
L 176.09687 61.08543 
L 211.307027 61.279047 
L 225.977926 61.256174 
L 225.977926 61.256174 
" clip-path="url(#pf7f7bad09c)" style="fill: none; stroke: #2e6e8e; stroke-width: 0.6; stroke-linecap: square"/>
   </g>
   <g id="line2d_33">
    <path d="M 50.905199 55.913708 
L 83.181177 55.882093 
L 90.027596 55.96344 
L 98.830135 55.89521 
L 100.786255 55.791058 
L 102.742375 55.505925 
L 104.698495 55.012459 
L 107.632675 54.127535 
L 108.610735 53.925604 
L 109.588795 53.843959 
L 110.566855 53.916162 
L 111.544914 54.149206 
L 113.501034 54.949988 
L 115.457154 55.729506 
L 117.413274 56.088435 
L 122.303574 56.216087 
L 125.237753 56.192408 
L 129.149993 56.137747 
L 135.996413 56.151379 
L 186.855529 55.813925 
L 197.614188 55.931706 
L 224.999866 55.933289 
L 225.977926 55.926777 
L 225.977926 55.926777 
" clip-path="url(#pf7f7bad09c)" style="fill: none; stroke: #277f8e; stroke-width: 0.6; stroke-linecap: square"/>
   </g>
   <g id="line2d_34">
    <path d="M 50.905199 50.427376 
L 81.225057 50.403932 
L 94.917896 50.535501 
L 98.830135 50.438989 
L 101.764315 50.189366 
L 103.720435 49.812043 
L 108.610735 48.482741 
L 109.588795 48.399061 
L 110.566855 48.465305 
L 111.544914 48.688322 
L 113.501034 49.463364 
L 115.457154 50.232991 
L 117.413274 50.615051 
L 121.325514 50.758888 
L 125.237753 50.787521 
L 131.106113 50.695326 
L 167.29433 50.328031 
L 173.16269 50.229594 
L 180.987169 50.26211 
L 187.833589 50.40351 
L 195.658068 50.488171 
L 225.977926 50.535079 
L 225.977926 50.535079 
" clip-path="url(#pf7f7bad09c)" style="fill: none; stroke: #21918c; stroke-width: 0.6; stroke-linecap: square"/>
   </g>
   <g id="line2d_35">
    <path d="M 50.905199 45.064982 
L 69.488338 44.956298 
L 77.312817 44.828983 
L 91.983716 45.059218 
L 99.808195 44.903952 
L 101.764315 44.735067 
L 103.720435 44.32089 
L 107.632675 43.246625 
L 108.610735 43.123205 
L 109.588795 43.112096 
L 110.566855 43.225665 
L 112.522974 43.802125 
L 115.457154 44.923441 
L 116.435214 45.139406 
L 118.391334 45.23147 
L 121.325514 45.168323 
L 126.215813 45.358231 
L 132.084173 45.190301 
L 147.733132 45.111067 
L 160.447911 44.963275 
L 176.09687 44.741857 
L 183.921349 44.808237 
L 188.811649 44.908634 
L 211.307027 45.079622 
L 225.977926 45.023998 
L 225.977926 45.023998 
" clip-path="url(#pf7f7bad09c)" style="fill: none; stroke: #1fa187; stroke-width: 0.6; stroke-linecap: square"/>
   </g>
   <g id="line2d_36">
    <path d="M 50.905199 39.798535 
L 61.663858 39.392588 
L 66.554158 39.449353 
L 70.466397 39.462243 
L 79.268937 39.197744 
L 85.137296 39.370527 
L 89.049536 39.496563 
L 94.917896 39.783319 
L 96.874016 39.608433 
L 103.720435 38.594902 
L 105.676555 38.715113 
L 107.632675 39.178759 
L 110.566855 40.015548 
L 112.522974 40.344944 
L 115.457154 40.537374 
L 126.215813 40.652614 
L 134.040293 40.588653 
L 139.908652 40.507085 
L 145.777012 40.298879 
L 150.667312 39.940448 
L 156.535671 39.353326 
L 165.338211 38.763921 
L 168.27239 38.571488 
L 174.14075 38.552754 
L 198.592248 38.971782 
L 206.416728 39.216539 
L 212.285087 39.279183 
L 219.131507 39.377381 
L 225.977926 39.573714 
L 225.977926 39.573714 
" clip-path="url(#pf7f7bad09c)" style="fill: none; stroke: #2db27d; stroke-width: 0.6; stroke-linecap: square"/>
   </g>
   <g id="line2d_37">
    <path d="M 50.905199 34.662525 
L 69.488338 34.565995 
L 80.246997 34.469838 
L 89.049536 34.655259 
L 98.830135 34.567775 
L 100.786255 34.399372 
L 102.742375 34.049826 
L 107.632675 32.956544 
L 109.588795 32.782347 
L 110.566855 32.837096 
L 112.522974 33.288684 
L 116.435214 34.621035 
L 118.391334 34.874023 
L 121.325514 34.869628 
L 131.106113 34.672723 
L 144.798952 34.618436 
L 164.360151 34.404882 
L 171.20657 34.211429 
L 179.03105 34.151022 
L 209.350907 34.373628 
L 225.977926 34.402547 
L 225.977926 34.402547 
" clip-path="url(#pf7f7bad09c)" style="fill: none; stroke: #4ac16d; stroke-width: 0.6; stroke-linecap: square"/>
   </g>
   <g id="line2d_38">
    <path d="M 50.905199 29.072909 
L 66.554158 29.042633 
L 84.159236 29.01899 
L 95.895956 29.098606 
L 100.786255 28.975077 
L 102.742375 28.669271 
L 105.676555 27.828075 
L 107.632675 27.26298 
L 109.588795 26.96676 
L 110.566855 27.005451 
L 111.544914 27.197471 
L 113.501034 27.954359 
L 115.457154 28.77913 
L 116.435214 29.049777 
L 118.391334 29.242586 
L 166.31627 28.89615 
L 178.05299 28.797638 
L 187.833589 28.894905 
L 198.592248 29.032714 
L 225.977926 29.035849 
L 225.977926 29.035849 
" clip-path="url(#pf7f7bad09c)" style="fill: none; stroke: #73d056; stroke-width: 0.6; stroke-linecap: square"/>
   </g>
   <g id="line2d_39">
    <path d="M 50.905199 23.712935 
L 56.773558 23.692652 
L 63.619978 23.574108 
L 83.181177 23.602868 
L 96.874016 23.672393 
L 100.786255 23.446825 
L 102.742375 23.170214 
L 105.676555 22.477079 
L 107.632675 21.966744 
L 108.610735 21.795136 
L 109.588795 21.740729 
L 110.566855 21.836886 
L 111.544914 22.087306 
L 115.457154 23.589512 
L 117.413274 23.861925 
L 130.128053 23.909295 
L 159.469851 23.680469 
L 166.31627 23.543586 
L 172.18463 23.470231 
L 181.965229 23.487191 
L 193.701948 23.680582 
L 225.977926 23.729445 
L 225.977926 23.729445 
" clip-path="url(#pf7f7bad09c)" style="fill: none; stroke: #a0da39; stroke-width: 0.6; stroke-linecap: square"/>
   </g>
   <g id="line2d_40">
    <path d="M 50.905199 18.363773 
L 99.808195 18.316957 
L 101.764315 18.105739 
L 104.698495 17.42961 
L 107.632675 16.711959 
L 109.588795 16.49102 
L 110.566855 16.543903 
L 111.544914 16.730508 
L 113.501034 17.417641 
L 115.457154 18.135734 
L 117.413274 18.49301 
L 121.325514 18.577414 
L 126.215813 18.619942 
L 156.535671 18.426052 
L 166.31627 18.233341 
L 177.07493 18.073724 
L 186.855529 18.193735 
L 197.614188 18.434147 
L 207.394787 18.435076 
L 214.241207 18.377243 
L 225.977926 18.443274 
L 225.977926 18.443274 
" clip-path="url(#pf7f7bad09c)" style="fill: none; stroke: #d0e11c; stroke-width: 0.6; stroke-linecap: square"/>
   </g>
   <g id="line2d_41">
    <path d="M 50.905199 12.946936 
L 87.093416 12.923625 
L 98.830135 12.946447 
L 100.786255 12.800239 
L 102.742375 12.459188 
L 108.610735 11.070692 
L 109.588795 11.009091 
L 110.566855 11.075076 
L 111.544914 11.282798 
L 113.501034 12.020098 
L 115.457154 12.763041 
L 117.413274 13.102401 
L 122.303574 13.143815 
L 130.128053 13.218174 
L 142.842832 13.074891 
L 160.447911 12.925082 
L 168.27239 12.718342 
L 179.03105 12.660484 
L 213.263147 12.952462 
L 225.977926 12.949252 
L 225.977926 12.949252 
" clip-path="url(#pf7f7bad09c)" style="fill: none; stroke: #fde725; stroke-width: 0.6; stroke-linecap: square"/>
   </g>
   <g id="line2d_42">
    <path d="M 109.588795 91 
L 109.588795 7.2 
" clip-path="url(#pf7f7bad09c)" style="fill: none; stroke-dasharray: 3.7,1.6; stroke-dashoffset: 0; stroke: #000000"/>
   </g>
   <g id="patch_3">
    <path d="M 42.151563 91 
L 42.151563 7.2 
" style="fill: none; stroke: #000000; stroke-width: 0.8; stroke-linejoin: miter; stroke-linecap: square"/>
   </g>
   <g id="patch_4">
    <path d="M 234.731563 91 
L 234.731563 7.2 
" style="fill: none; stroke: #000000; stroke-width: 0.8; stroke-linejoin: miter; stroke-linecap: square"/>
   </g>
   <g id="patch_5">
    <path d="M 42.151562 91 
L 234.731563 91 
" style="fill: none; stroke: #000000; stroke-width: 0.8; stroke-linejoin: miter; stroke-linecap: square"/>
   </g>
   <g id="patch_6">
    <path d="M 42.151562 7.2 
L 234.731563 7.2 
" style="fill: none; stroke: #000000; stroke-width: 0.8; stroke-linejoin: miter; stroke-linecap: square"/>
   </g>
  </g>
 </g>
 <defs>
  <clipPath id="pf7f7bad09c">
   <rect x="42.151563" y="7.2" width="192.58" height="83.8"/>
  </clipPath>
 </defs>
</svg>
