<?xml version="1.0" encoding="utf-8" standalone="no"?>
<!DOCTYPE svg PUBLIC "-//W3C//DTD SVG 1.1//EN"
  "http://www.w3.org/Graphics/SVG/1.1/DTD/svg11.dtd">
<svg xmlns:xlink="http://www.w3.org/1999/xlink" width="240.311032pt" height="229.073323pt" viewBox="0 0 240.311032 229.073323" xmlns="http://www.w3.org/2000/svg" version="1.1">
 <metadata>
  <rdf:RDF xmlns:dc="http://purl.org/dc/elements/1.1/" xmlns:cc="http://creativecommons.org/ns#" xmlns:rdf="http://www.w3.org/1999/02/22-rdf-syntax-ns#">
   <cc:Work>
    <dc:type rdf:resource="http://purl.org/dc/dcmitype/StillImage"/>
    <dc:date>2026-03-31T21:07:15.956626</dc:date>
    <dc:format>image/svg+xml</dc:format>
    <dc:creator>
     <cc:Agent>
      <dc:title>Matplotlib v3.10.8, https://matplotlib.org/</dc:title>
     </cc:Agent>
    </dc:creator>
   </cc:Work>
  </rdf:RDF>
 </metadata>
 <defs>
  <style type="text/css">*{stroke-linejoin: round; stroke-linecap: butt}</style>
 </defs>
 <g id="figure_1">
  <g id="patch_1">
   <path d="M 0 229.073323 
L 240.311032 229.073323 
L 240.311032 0 
L 0 0 
z
" style="fill: #ffffff"/>
  </g>
  <g id="patch_2">
   <path d="M 21.6 203.58 
L 203.58 203.58 
L 203.58 21.6 
L 21.6 21.6 
z
" style="fill: #ffffff"/>
  </g>
  <g id="pane3d_1">
   <g id="patch_3">
    <path d="M 35.340745 158.709564 
L 95.436484 108.336124 
L 94.601096 35.688618 
L 31.629466 81.642445 
" style="fill: #f2f2f2; opacity: 0.5; stroke: #f2f2f2; stroke-linejoin: miter"/>
   </g>
  </g>
  <g id="pane3d_2">
   <g id="patch_4">
    <path d="M 95.436484 108.336124 
L 191.868703 136.365163 
L 195.310029 61.215397 
L 94.601096 35.688618 
" style="fill: #e6e6e6; opacity: 0.5; stroke: #e6e6e6; stroke-linejoin: miter"/>
   </g>
  </g>
  <g id="pane3d_3">
   <g id="patch_5">
    <path d="M 35.340745 158.709564 
L 137.563607 192.095551 
L 191.868703 136.365163 
L 95.436484 108.336124 
" style="fill: #ececec; opacity: 0.5; stroke: #ececec; stroke-linejoin: miter"/>
   </g>
  </g>
  <g id="grid3d_1">
   <g id="Line3DCollection_1">
    <path d="M 41.531898 160.731595 
L 101.301197 110.040764 
L 100.713773 37.238003 
" style="fill: none; stroke: #b0b0b0; stroke-width: 0.8"/>
    <path d="M 55.917281 165.429861 
L 114.915956 113.998037 
L 114.910222 40.836389 
" style="fill: none; stroke: #b0b0b0; stroke-width: 0.8"/>
    <path d="M 70.522876 170.200048 
L 128.721811 118.010854 
L 129.314569 44.487472 
" style="fill: none; stroke: #b0b0b0; stroke-width: 0.8"/>
    <path d="M 85.35378 175.043821 
L 142.722813 122.080393 
L 143.931417 48.192416 
" style="fill: none; stroke: #b0b0b0; stroke-width: 0.8"/>
    <path d="M 100.415246 179.962896 
L 156.92313 126.207864 
L 158.7655 51.952424 
" style="fill: none; stroke: #b0b0b0; stroke-width: 0.8"/>
    <path d="M 115.712694 184.959042 
L 171.327047 130.394514 
L 173.8217 55.768732 
" style="fill: none; stroke: #b0b0b0; stroke-width: 0.8"/>
    <path d="M 131.251711 190.034085 
L 185.938976 134.641625 
L 189.105042 59.642613 
" style="fill: none; stroke: #b0b0b0; stroke-width: 0.8"/>
   </g>
  </g>
  <g id="grid3d_2">
   <g id="Line3DCollection_2">
    <path d="M 35.98411 78.464624 
L 39.481849 155.238408 
L 141.3211 188.239439 
" style="fill: none; stroke: #b0b0b0; stroke-width: 0.8"/>
    <path d="M 43.678489 72.849617 
L 46.804227 149.100646 
L 147.959564 181.426741 
" style="fill: none; stroke: #b0b0b0; stroke-width: 0.8"/>
    <path d="M 55.969299 63.880344 
L 58.5149 139.284527 
L 158.561603 170.546441 
" style="fill: none; stroke: #b0b0b0; stroke-width: 0.8"/>
    <path d="M 68.081525 55.041393 
L 70.072406 129.596797 
L 169.007094 159.826798 
" style="fill: none; stroke: #b0b0b0; stroke-width: 0.8"/>
    <path d="M 79.663075 46.589705 
L 81.139345 120.320269 
L 178.992613 149.579199 
" style="fill: none; stroke: #b0b0b0; stroke-width: 0.8"/>
    <path d="M 90.915203 38.378414 
L 91.906329 111.29517 
L 188.691934 139.62531 
" style="fill: none; stroke: #b0b0b0; stroke-width: 0.8"/>
   </g>
  </g>
  <g id="grid3d_3">
   <g id="Line3DCollection_3">
    <path d="M 192.09226 131.483254 
L 95.382108 103.607443 
L 35.100031 153.710986 
" style="fill: none; stroke: #b0b0b0; stroke-width: 0.8"/>
    <path d="M 192.561031 121.2465 
L 95.268137 93.696204 
L 34.595113 143.226039 
" style="fill: none; stroke: #b0b0b0; stroke-width: 0.8"/>
    <path d="M 193.035541 110.884411 
L 95.152837 83.669424 
L 34.083777 132.607815 
" style="fill: none; stroke: #b0b0b0; stroke-width: 0.8"/>
    <path d="M 193.515896 100.394673 
L 95.036185 73.52507 
L 33.5659 121.853757 
" style="fill: none; stroke: #b0b0b0; stroke-width: 0.8"/>
    <path d="M 194.002206 89.774911 
L 94.918157 63.261062 
L 33.041355 110.961242 
" style="fill: none; stroke: #b0b0b0; stroke-width: 0.8"/>
    <path d="M 194.494582 79.022692 
L 94.798729 52.87527 
L 32.510013 99.927577 
" style="fill: none; stroke: #b0b0b0; stroke-width: 0.8"/>
    <path d="M 194.993137 68.135524 
L 94.677875 42.365515 
L 31.97174 88.750003 
" style="fill: none; stroke: #b0b0b0; stroke-width: 0.8"/>
   </g>
  </g>
  <g id="axis3d_1">
   <g id="line2d_1">
    <path d="M 35.340745 158.709564 
L 137.563607 192.095551 
" style="fill: none; stroke: #000000; stroke-width: 0.8; stroke-linecap: square"/>
   </g>
   <g id="xtick_1">
    <g id="line2d_2">
     <path d="M 42.052366 160.290182 
L 40.488729 161.616314 
" style="fill: none; stroke: #000000; stroke-width: 0.8; stroke-linecap: square"/>
    </g>
    <g id="text_1">
     <!-- −0.2 -->
     <g transform="translate(29.009118 176.220549) scale(0.06 -0.06)">
      <defs>
       <path id="DejaVuSans-2212" d="M 678 2272 
L 4684 2272 
L 4684 1741 
L 678 1741 
L 678 2272 
z
" transform="scale(0.015625)"/>
       <path id="DejaVuSans-30" d="M 2034 4250 
Q 1547 4250 1301 3770 
Q 1056 3291 1056 2328 
Q 1056 1369 1301 889 
Q 1547 409 2034 409 
Q 2525 409 2770 889 
Q 3016 1369 3016 2328 
Q 3016 3291 2770 3770 
Q 2525 4250 2034 4250 
z
M 2034 4750 
Q 2819 4750 3233 4129 
Q 3647 3509 3647 2328 
Q 3647 1150 3233 529 
Q 2819 -91 2034 -91 
Q 1250 -91 836 529 
Q 422 1150 422 2328 
Q 422 3509 836 4129 
Q 1250 4750 2034 4750 
z
" transform="scale(0.015625)"/>
       <path id="DejaVuSans-2e" d="M 684 794 
L 1344 794 
L 1344 0 
L 684 0 
L 684 794 
z
" transform="scale(0.015625)"/>
       <path id="DejaVuSans-32" d="M 1228 531 
L 3431 531 
L 3431 0 
L 469 0 
L 469 531 
Q 828 903 1448 1529 
Q 2069 2156 2228 2338 
Q 2531 2678 2651 2914 
Q 2772 3150 2772 3378 
Q 2772 3750 2511 3984 
Q 2250 4219 1831 4219 
Q 1534 4219 1204 4116 
Q 875 4013 500 3803 
L 500 4441 
Q 881 4594 1212 4672 
Q 1544 4750 1819 4750 
Q 2544 4750 2975 4387 
Q 3406 4025 3406 3419 
Q 3406 3131 3298 2873 
Q 3191 2616 2906 2266 
Q 2828 2175 2409 1742 
Q 1991 1309 1228 531 
z
" transform="scale(0.015625)"/>
      </defs>
      <use xlink:href="#DejaVuSans-2212"/>
      <use xlink:href="#DejaVuSans-30" transform="translate(83.789062 0)"/>
      <use xlink:href="#DejaVuSans-2e" transform="translate(147.412109 0)"/>
      <use xlink:href="#DejaVuSans-32" transform="translate(179.199219 0)"/>
     </g>
    </g>
   </g>
   <g id="xtick_2">
    <g id="line2d_3">
     <path d="M 56.431355 164.981719 
L 54.88691 166.328082 
" style="fill: none; stroke: #000000; stroke-width: 0.8; stroke-linecap: square"/>
    </g>
    <g id="text_2">
     <!-- −0.1 -->
     <g transform="translate(43.409378 181.020057) scale(0.06 -0.06)">
      <defs>
       <path id="DejaVuSans-31" d="M 794 531 
L 1825 531 
L 1825 4091 
L 703 3866 
L 703 4441 
L 1819 4666 
L 2450 4666 
L 2450 531 
L 3481 531 
L 3481 0 
L 794 0 
L 794 531 
z
" transform="scale(0.015625)"/>
      </defs>
      <use xlink:href="#DejaVuSans-2212"/>
      <use xlink:href="#DejaVuSans-30" transform="translate(83.789062 0)"/>
      <use xlink:href="#DejaVuSans-2e" transform="translate(147.412109 0)"/>
      <use xlink:href="#DejaVuSans-31" transform="translate(179.199219 0)"/>
     </g>
    </g>
   </g>
   <g id="xtick_3">
    <g id="line2d_4">
     <path d="M 71.0303 169.745022 
L 69.505819 171.112082 
" style="fill: none; stroke: #000000; stroke-width: 0.8; stroke-linecap: square"/>
    </g>
    <g id="text_3">
     <!-- 0.0 -->
     <g transform="translate(60.544832 185.893318) scale(0.06 -0.06)">
      <use xlink:href="#DejaVuSans-30"/>
      <use xlink:href="#DejaVuSans-2e" transform="translate(63.623047 0)"/>
      <use xlink:href="#DejaVuSans-30" transform="translate(95.410156 0)"/>
     </g>
    </g>
   </g>
   <g id="xtick_4">
    <g id="line2d_5">
     <path d="M 85.854286 174.581752 
L 84.350572 175.969989 
" style="fill: none; stroke: #000000; stroke-width: 0.8; stroke-linecap: square"/>
    </g>
    <g id="text_4">
     <!-- 0.1 -->
     <g transform="translate(75.392806 190.842045) scale(0.06 -0.06)">
      <use xlink:href="#DejaVuSans-30"/>
      <use xlink:href="#DejaVuSans-2e" transform="translate(63.623047 0)"/>
      <use xlink:href="#DejaVuSans-31" transform="translate(95.410156 0)"/>
     </g>
    </g>
   </g>
   <g id="xtick_5">
    <g id="line2d_6">
     <path d="M 100.908557 179.493618 
L 99.426443 180.903529 
" style="fill: none; stroke: #000000; stroke-width: 0.8; stroke-linecap: square"/>
    </g>
    <g id="text_5">
     <!-- 0.2 -->
     <g transform="translate(90.472507 195.868006) scale(0.06 -0.06)">
      <use xlink:href="#DejaVuSans-30"/>
      <use xlink:href="#DejaVuSans-2e" transform="translate(63.623047 0)"/>
      <use xlink:href="#DejaVuSans-32" transform="translate(95.410156 0)"/>
     </g>
    </g>
   </g>
   <g id="xtick_6">
    <g id="line2d_7">
     <path d="M 116.198521 184.482385 
L 114.738872 185.914481 
" style="fill: none; stroke: #000000; stroke-width: 0.8; stroke-linecap: square"/>
    </g>
    <g id="text_6">
     <!-- 0.3 -->
     <g transform="translate(105.789405 200.973022) scale(0.06 -0.06)">
      <defs>
       <path id="DejaVuSans-33" d="M 2597 2516 
Q 3050 2419 3304 2112 
Q 3559 1806 3559 1356 
Q 3559 666 3084 287 
Q 2609 -91 1734 -91 
Q 1441 -91 1130 -33 
Q 819 25 488 141 
L 488 750 
Q 750 597 1062 519 
Q 1375 441 1716 441 
Q 2309 441 2620 675 
Q 2931 909 2931 1356 
Q 2931 1769 2642 2001 
Q 2353 2234 1838 2234 
L 1294 2234 
L 1294 2753 
L 1863 2753 
Q 2328 2753 2575 2939 
Q 2822 3125 2822 3475 
Q 2822 3834 2567 4026 
Q 2313 4219 1838 4219 
Q 1578 4219 1281 4162 
Q 984 4106 628 3988 
L 628 4550 
Q 988 4650 1302 4700 
Q 1616 4750 1894 4750 
Q 2613 4750 3031 4423 
Q 3450 4097 3450 3541 
Q 3450 3153 3228 2886 
Q 3006 2619 2597 2516 
z
" transform="scale(0.015625)"/>
      </defs>
      <use xlink:href="#DejaVuSans-30"/>
      <use xlink:href="#DejaVuSans-2e" transform="translate(63.623047 0)"/>
      <use xlink:href="#DejaVuSans-33" transform="translate(95.410156 0)"/>
     </g>
    </g>
   </g>
   <g id="xtick_7">
    <g id="line2d_8">
     <path d="M 131.729758 189.549875 
L 130.29347 191.004683 
" style="fill: none; stroke: #000000; stroke-width: 0.8; stroke-linecap: square"/>
    </g>
    <g id="text_7">
     <!-- 0.4 -->
     <g transform="translate(121.349138 206.158974) scale(0.06 -0.06)">
      <defs>
       <path id="DejaVuSans-34" d="M 2419 4116 
L 825 1625 
L 2419 1625 
L 2419 4116 
z
M 2253 4666 
L 3047 4666 
L 3047 1625 
L 3713 1625 
L 3713 1100 
L 3047 1100 
L 3047 0 
L 2419 0 
L 2419 1100 
L 313 1100 
L 313 1709 
L 2253 4666 
z
" transform="scale(0.015625)"/>
      </defs>
      <use xlink:href="#DejaVuSans-30"/>
      <use xlink:href="#DejaVuSans-2e" transform="translate(63.623047 0)"/>
      <use xlink:href="#DejaVuSans-34" transform="translate(95.410156 0)"/>
     </g>
    </g>
   </g>
   <g id="text_8">
    <!-- Time relative to R-peak (s) -->
    <g transform="translate(26.043114 193.511905) rotate(-341.912962) scale(0.07 -0.07)">
     <defs>
      <path id="DejaVuSans-54" d="M -19 4666 
L 3928 4666 
L 3928 4134 
L 2272 4134 
L 2272 0 
L 1638 0 
L 1638 4134 
L -19 4134 
L -19 4666 
z
" transform="scale(0.015625)"/>
      <path id="DejaVuSans-69" d="M 603 3500 
L 1178 3500 
L 1178 0 
L 603 0 
L 603 3500 
z
M 603 4863 
L 1178 4863 
L 1178 4134 
L 603 4134 
L 603 4863 
z
" transform="scale(0.015625)"/>
      <path id="DejaVuSans-6d" d="M 3328 2828 
Q 3544 3216 3844 3400 
Q 4144 3584 4550 3584 
Q 5097 3584 5394 3201 
Q 5691 2819 5691 2113 
L 5691 0 
L 5113 0 
L 5113 2094 
Q 5113 2597 4934 2840 
Q 4756 3084 4391 3084 
Q 3944 3084 3684 2787 
Q 3425 2491 3425 1978 
L 3425 0 
L 2847 0 
L 2847 2094 
Q 2847 2600 2669 2842 
Q 2491 3084 2119 3084 
Q 1678 3084 1418 2786 
Q 1159 2488 1159 1978 
L 1159 0 
L 581 0 
L 581 3500 
L 1159 3500 
L 1159 2956 
Q 1356 3278 1631 3431 
Q 1906 3584 2284 3584 
Q 2666 3584 2933 3390 
Q 3200 3197 3328 2828 
z
" transform="scale(0.015625)"/>
      <path id="DejaVuSans-65" d="M 3597 1894 
L 3597 1613 
L 953 1613 
Q 991 1019 1311 708 
Q 1631 397 2203 397 
Q 2534 397 2845 478 
Q 3156 559 3463 722 
L 3463 178 
Q 3153 47 2828 -22 
Q 2503 -91 2169 -91 
Q 1331 -91 842 396 
Q 353 884 353 1716 
Q 353 2575 817 3079 
Q 1281 3584 2069 3584 
Q 2775 3584 3186 3129 
Q 3597 2675 3597 1894 
z
M 3022 2063 
Q 3016 2534 2758 2815 
Q 2500 3097 2075 3097 
Q 1594 3097 1305 2825 
Q 1016 2553 972 2059 
L 3022 2063 
z
" transform="scale(0.015625)"/>
      <path id="DejaVuSans-20" transform="scale(0.015625)"/>
      <path id="DejaVuSans-72" d="M 2631 2963 
Q 2534 3019 2420 3045 
Q 2306 3072 2169 3072 
Q 1681 3072 1420 2755 
Q 1159 2438 1159 1844 
L 1159 0 
L 581 0 
L 581 3500 
L 1159 3500 
L 1159 2956 
Q 1341 3275 1631 3429 
Q 1922 3584 2338 3584 
Q 2397 3584 2469 3576 
Q 2541 3569 2628 3553 
L 2631 2963 
z
" transform="scale(0.015625)"/>
      <path id="DejaVuSans-6c" d="M 603 4863 
L 1178 4863 
L 1178 0 
L 603 0 
L 603 4863 
z
" transform="scale(0.015625)"/>
      <path id="DejaVuSans-61" d="M 2194 1759 
Q 1497 1759 1228 1600 
Q 959 1441 959 1056 
Q 959 750 1161 570 
Q 1363 391 1709 391 
Q 2188 391 2477 730 
Q 2766 1069 2766 1631 
L 2766 1759 
L 2194 1759 
z
M 3341 1997 
L 3341 0 
L 2766 0 
L 2766 531 
Q 2569 213 2275 61 
Q 1981 -91 1556 -91 
Q 1019 -91 701 211 
Q 384 513 384 1019 
Q 384 1609 779 1909 
Q 1175 2209 1959 2209 
L 2766 2209 
L 2766 2266 
Q 2766 2663 2505 2880 
Q 2244 3097 1772 3097 
Q 1472 3097 1187 3025 
Q 903 2953 641 2809 
L 641 3341 
Q 956 3463 1253 3523 
Q 1550 3584 1831 3584 
Q 2591 3584 2966 3190 
Q 3341 2797 3341 1997 
z
" transform="scale(0.015625)"/>
      <path id="DejaVuSans-74" d="M 1172 4494 
L 1172 3500 
L 2356 3500 
L 2356 3053 
L 1172 3053 
L 1172 1153 
Q 1172 725 1289 603 
Q 1406 481 1766 481 
L 2356 481 
L 2356 0 
L 1766 0 
Q 1100 0 847 248 
Q 594 497 594 1153 
L 594 3053 
L 172 3053 
L 172 3500 
L 594 3500 
L 594 4494 
L 1172 4494 
z
" transform="scale(0.015625)"/>
      <path id="DejaVuSans-76" d="M 191 3500 
L 800 3500 
L 1894 563 
L 2988 3500 
L 3597 3500 
L 2284 0 
L 1503 0 
L 191 3500 
z
" transform="scale(0.015625)"/>
      <path id="DejaVuSans-6f" d="M 1959 3097 
Q 1497 3097 1228 2736 
Q 959 2375 959 1747 
Q 959 1119 1226 758 
Q 1494 397 1959 397 
Q 2419 397 2687 759 
Q 2956 1122 2956 1747 
Q 2956 2369 2687 2733 
Q 2419 3097 1959 3097 
z
M 1959 3584 
Q 2709 3584 3137 3096 
Q 3566 2609 3566 1747 
Q 3566 888 3137 398 
Q 2709 -91 1959 -91 
Q 1206 -91 779 398 
Q 353 888 353 1747 
Q 353 2609 779 3096 
Q 1206 3584 1959 3584 
z
" transform="scale(0.015625)"/>
      <path id="DejaVuSans-52" d="M 2841 2188 
Q 3044 2119 3236 1894 
Q 3428 1669 3622 1275 
L 4263 0 
L 3584 0 
L 2988 1197 
Q 2756 1666 2539 1819 
Q 2322 1972 1947 1972 
L 1259 1972 
L 1259 0 
L 628 0 
L 628 4666 
L 2053 4666 
Q 2853 4666 3247 4331 
Q 3641 3997 3641 3322 
Q 3641 2881 3436 2590 
Q 3231 2300 2841 2188 
z
M 1259 4147 
L 1259 2491 
L 2053 2491 
Q 2509 2491 2742 2702 
Q 2975 2913 2975 3322 
Q 2975 3731 2742 3939 
Q 2509 4147 2053 4147 
L 1259 4147 
z
" transform="scale(0.015625)"/>
      <path id="DejaVuSans-2d" d="M 313 2009 
L 1997 2009 
L 1997 1497 
L 313 1497 
L 313 2009 
z
" transform="scale(0.015625)"/>
      <path id="DejaVuSans-70" d="M 1159 525 
L 1159 -1331 
L 581 -1331 
L 581 3500 
L 1159 3500 
L 1159 2969 
Q 1341 3281 1617 3432 
Q 1894 3584 2278 3584 
Q 2916 3584 3314 3078 
Q 3713 2572 3713 1747 
Q 3713 922 3314 415 
Q 2916 -91 2278 -91 
Q 1894 -91 1617 61 
Q 1341 213 1159 525 
z
M 3116 1747 
Q 3116 2381 2855 2742 
Q 2594 3103 2138 3103 
Q 1681 3103 1420 2742 
Q 1159 2381 1159 1747 
Q 1159 1113 1420 752 
Q 1681 391 2138 391 
Q 2594 391 2855 752 
Q 3116 1113 3116 1747 
z
" transform="scale(0.015625)"/>
      <path id="DejaVuSans-6b" d="M 581 4863 
L 1159 4863 
L 1159 1991 
L 2875 3500 
L 3609 3500 
L 1753 1863 
L 3688 0 
L 2938 0 
L 1159 1709 
L 1159 0 
L 581 0 
L 581 4863 
z
" transform="scale(0.015625)"/>
      <path id="DejaVuSans-28" d="M 1984 4856 
Q 1566 4138 1362 3434 
Q 1159 2731 1159 2009 
Q 1159 1288 1364 580 
Q 1569 -128 1984 -844 
L 1484 -844 
Q 1016 -109 783 600 
Q 550 1309 550 2009 
Q 550 2706 781 3412 
Q 1013 4119 1484 4856 
L 1984 4856 
z
" transform="scale(0.015625)"/>
      <path id="DejaVuSans-73" d="M 2834 3397 
L 2834 2853 
Q 2591 2978 2328 3040 
Q 2066 3103 1784 3103 
Q 1356 3103 1142 2972 
Q 928 2841 928 2578 
Q 928 2378 1081 2264 
Q 1234 2150 1697 2047 
L 1894 2003 
Q 2506 1872 2764 1633 
Q 3022 1394 3022 966 
Q 3022 478 2636 193 
Q 2250 -91 1575 -91 
Q 1294 -91 989 -36 
Q 684 19 347 128 
L 347 722 
Q 666 556 975 473 
Q 1284 391 1588 391 
Q 1994 391 2212 530 
Q 2431 669 2431 922 
Q 2431 1156 2273 1281 
Q 2116 1406 1581 1522 
L 1381 1569 
Q 847 1681 609 1914 
Q 372 2147 372 2553 
Q 372 3047 722 3315 
Q 1072 3584 1716 3584 
Q 2034 3584 2315 3537 
Q 2597 3491 2834 3397 
z
" transform="scale(0.015625)"/>
      <path id="DejaVuSans-29" d="M 513 4856 
L 1013 4856 
Q 1481 4119 1714 3412 
Q 1947 2706 1947 2009 
Q 1947 1309 1714 600 
Q 1481 -109 1013 -844 
L 513 -844 
Q 928 -128 1133 580 
Q 1338 1288 1338 2009 
Q 1338 2731 1133 3434 
Q 928 4138 513 4856 
z
" transform="scale(0.015625)"/>
     </defs>
     <use xlink:href="#DejaVuSans-54"/>
     <use xlink:href="#DejaVuSans-69" transform="translate(57.958984 0)"/>
     <use xlink:href="#DejaVuSans-6d" transform="translate(85.742188 0)"/>
     <use xlink:href="#DejaVuSans-65" transform="translate(183.154297 0)"/>
     <use xlink:href="#DejaVuSans-20" transform="translate(244.677734 0)"/>
     <use xlink:href="#DejaVuSans-72" transform="translate(276.464844 0)"/>
     <use xlink:href="#DejaVuSans-65" transform="translate(315.328125 0)"/>
     <use xlink:href="#DejaVuSans-6c" transform="translate(376.851562 0)"/>
     <use xlink:href="#DejaVuSans-61" transform="translate(404.634766 0)"/>
     <use xlink:href="#DejaVuSans-74" transform="translate(465.914062 0)"/>
     <use xlink:href="#DejaVuSans-69" transform="translate(505.123047 0)"/>
     <use xlink:href="#DejaVuSans-76" transform="translate(532.90625 0)"/>
     <use xlink:href="#DejaVuSans-65" transform="translate(592.085938 0)"/>
     <use xlink:href="#DejaVuSans-20" transform="translate(653.609375 0)"/>
     <use xlink:href="#DejaVuSans-74" transform="translate(685.396484 0)"/>
     <use xlink:href="#DejaVuSans-6f" transform="translate(724.605469 0)"/>
     <use xlink:href="#DejaVuSans-20" transform="translate(785.787109 0)"/>
     <use xlink:href="#DejaVuSans-52" transform="translate(817.574219 0)"/>
     <use xlink:href="#DejaVuSans-2d" transform="translate(883.056641 0)"/>
     <use xlink:href="#DejaVuSans-70" transform="translate(919.140625 0)"/>
     <use xlink:href="#DejaVuSans-65" transform="translate(982.617188 0)"/>
     <use xlink:href="#DejaVuSans-61" transform="translate(1044.140625 0)"/>
     <use xlink:href="#DejaVuSans-6b" transform="translate(1105.419922 0)"/>
     <use xlink:href="#DejaVuSans-20" transform="translate(1163.330078 0)"/>
     <use xlink:href="#DejaVuSans-28" transform="translate(1195.117188 0)"/>
     <use xlink:href="#DejaVuSans-73" transform="translate(1234.130859 0)"/>
     <use xlink:href="#DejaVuSans-29" transform="translate(1286.230469 0)"/>
    </g>
   </g>
  </g>
  <g id="axis3d_2">
   <g id="line2d_9">
    <path d="M 191.868703 136.365163 
L 137.563607 192.095551 
" style="fill: none; stroke: #000000; stroke-width: 0.8; stroke-linecap: square"/>
   </g>
   <g id="xtick_8">
    <g id="line2d_10">
     <path d="M 140.462897 187.961338 
L 143.039724 188.79636 
" style="fill: none; stroke: #000000; stroke-width: 0.8; stroke-linecap: square"/>
    </g>
    <g id="text_9">
     <!-- 0.42 -->
     <g transform="translate(147.525613 206.225511) scale(0.06 -0.06)">
      <use xlink:href="#DejaVuSans-30"/>
      <use xlink:href="#DejaVuSans-2e" transform="translate(63.623047 0)"/>
      <use xlink:href="#DejaVuSans-34" transform="translate(95.410156 0)"/>
      <use xlink:href="#DejaVuSans-32" transform="translate(159.033203 0)"/>
     </g>
    </g>
   </g>
   <g id="xtick_9">
    <g id="line2d_11">
     <path d="M 147.107581 181.154474 
L 149.665712 181.971973 
" style="fill: none; stroke: #000000; stroke-width: 0.8; stroke-linecap: square"/>
    </g>
    <g id="text_10">
     <!-- 1.87 -->
     <g transform="translate(154.033843 199.265193) scale(0.06 -0.06)">
      <defs>
       <path id="DejaVuSans-38" d="M 2034 2216 
Q 1584 2216 1326 1975 
Q 1069 1734 1069 1313 
Q 1069 891 1326 650 
Q 1584 409 2034 409 
Q 2484 409 2743 651 
Q 3003 894 3003 1313 
Q 3003 1734 2745 1975 
Q 2488 2216 2034 2216 
z
M 1403 2484 
Q 997 2584 770 2862 
Q 544 3141 544 3541 
Q 544 4100 942 4425 
Q 1341 4750 2034 4750 
Q 2731 4750 3128 4425 
Q 3525 4100 3525 3541 
Q 3525 3141 3298 2862 
Q 3072 2584 2669 2484 
Q 3125 2378 3379 2068 
Q 3634 1759 3634 1313 
Q 3634 634 3220 271 
Q 2806 -91 2034 -91 
Q 1263 -91 848 271 
Q 434 634 434 1313 
Q 434 1759 690 2068 
Q 947 2378 1403 2484 
z
M 1172 3481 
Q 1172 3119 1398 2916 
Q 1625 2713 2034 2713 
Q 2441 2713 2670 2916 
Q 2900 3119 2900 3481 
Q 2900 3844 2670 4047 
Q 2441 4250 2034 4250 
Q 1625 4250 1398 4047 
Q 1172 3844 1172 3481 
z
" transform="scale(0.015625)"/>
       <path id="DejaVuSans-37" d="M 525 4666 
L 3525 4666 
L 3525 4397 
L 1831 0 
L 1172 0 
L 2766 4134 
L 525 4134 
L 525 4666 
z
" transform="scale(0.015625)"/>
      </defs>
      <use xlink:href="#DejaVuSans-31"/>
      <use xlink:href="#DejaVuSans-2e" transform="translate(63.623047 0)"/>
      <use xlink:href="#DejaVuSans-38" transform="translate(95.410156 0)"/>
      <use xlink:href="#DejaVuSans-37" transform="translate(159.033203 0)"/>
     </g>
    </g>
   </g>
   <g id="xtick_10">
    <g id="line2d_12">
     <path d="M 157.719676 170.283362 
L 160.247575 171.073262 
" style="fill: none; stroke: #000000; stroke-width: 0.8; stroke-linecap: square"/>
    </g>
    <g id="text_11">
     <!-- 4.24 -->
     <g transform="translate(164.427641 188.149402) scale(0.06 -0.06)">
      <use xlink:href="#DejaVuSans-34"/>
      <use xlink:href="#DejaVuSans-2e" transform="translate(63.623047 0)"/>
      <use xlink:href="#DejaVuSans-32" transform="translate(95.410156 0)"/>
      <use xlink:href="#DejaVuSans-34" transform="translate(159.033203 0)"/>
     </g>
    </g>
   </g>
   <g id="xtick_11">
    <g id="line2d_13">
     <path d="M 168.175226 159.572616 
L 170.672887 160.335789 
" style="fill: none; stroke: #000000; stroke-width: 0.8; stroke-linecap: square"/>
    </g>
    <g id="text_12">
     <!-- 6.65 -->
     <g transform="translate(174.667665 177.198065) scale(0.06 -0.06)">
      <defs>
       <path id="DejaVuSans-36" d="M 2113 2584 
Q 1688 2584 1439 2293 
Q 1191 2003 1191 1497 
Q 1191 994 1439 701 
Q 1688 409 2113 409 
Q 2538 409 2786 701 
Q 3034 994 3034 1497 
Q 3034 2003 2786 2293 
Q 2538 2584 2113 2584 
z
M 3366 4563 
L 3366 3988 
Q 3128 4100 2886 4159 
Q 2644 4219 2406 4219 
Q 1781 4219 1451 3797 
Q 1122 3375 1075 2522 
Q 1259 2794 1537 2939 
Q 1816 3084 2150 3084 
Q 2853 3084 3261 2657 
Q 3669 2231 3669 1497 
Q 3669 778 3244 343 
Q 2819 -91 2113 -91 
Q 1303 -91 875 529 
Q 447 1150 447 2328 
Q 447 3434 972 4092 
Q 1497 4750 2381 4750 
Q 2619 4750 2861 4703 
Q 3103 4656 3366 4563 
z
" transform="scale(0.015625)"/>
       <path id="DejaVuSans-35" d="M 691 4666 
L 3169 4666 
L 3169 4134 
L 1269 4134 
L 1269 2991 
Q 1406 3038 1543 3061 
Q 1681 3084 1819 3084 
Q 2600 3084 3056 2656 
Q 3513 2228 3513 1497 
Q 3513 744 3044 326 
Q 2575 -91 1722 -91 
Q 1428 -91 1123 -41 
Q 819 9 494 109 
L 494 744 
Q 775 591 1075 516 
Q 1375 441 1709 441 
Q 2250 441 2565 725 
Q 2881 1009 2881 1497 
Q 2881 1984 2565 2268 
Q 2250 2553 1709 2553 
Q 1456 2553 1204 2497 
Q 953 2441 691 2322 
L 691 4666 
z
" transform="scale(0.015625)"/>
      </defs>
      <use xlink:href="#DejaVuSans-36"/>
      <use xlink:href="#DejaVuSans-2e" transform="translate(63.623047 0)"/>
      <use xlink:href="#DejaVuSans-36" transform="translate(95.410156 0)"/>
      <use xlink:href="#DejaVuSans-35" transform="translate(159.033203 0)"/>
     </g>
    </g>
   </g>
   <g id="xtick_12">
    <g id="line2d_14">
     <path d="M 178.1705 149.333381 
L 180.638837 150.071434 
" style="fill: none; stroke: #000000; stroke-width: 0.8; stroke-linecap: square"/>
    </g>
    <g id="text_13">
     <!-- 9.04 -->
     <g transform="translate(184.456487 166.729272) scale(0.06 -0.06)">
      <defs>
       <path id="DejaVuSans-39" d="M 703 97 
L 703 672 
Q 941 559 1184 500 
Q 1428 441 1663 441 
Q 2288 441 2617 861 
Q 2947 1281 2994 2138 
Q 2813 1869 2534 1725 
Q 2256 1581 1919 1581 
Q 1219 1581 811 2004 
Q 403 2428 403 3163 
Q 403 3881 828 4315 
Q 1253 4750 1959 4750 
Q 2769 4750 3195 4129 
Q 3622 3509 3622 2328 
Q 3622 1225 3098 567 
Q 2575 -91 1691 -91 
Q 1453 -91 1209 -44 
Q 966 3 703 97 
z
M 1959 2075 
Q 2384 2075 2632 2365 
Q 2881 2656 2881 3163 
Q 2881 3666 2632 3958 
Q 2384 4250 1959 4250 
Q 1534 4250 1286 3958 
Q 1038 3666 1038 3163 
Q 1038 2656 1286 2365 
Q 1534 2075 1959 2075 
z
" transform="scale(0.015625)"/>
      </defs>
      <use xlink:href="#DejaVuSans-39"/>
      <use xlink:href="#DejaVuSans-2e" transform="translate(63.623047 0)"/>
      <use xlink:href="#DejaVuSans-30" transform="translate(95.410156 0)"/>
      <use xlink:href="#DejaVuSans-34" transform="translate(159.033203 0)"/>
     </g>
    </g>
   </g>
   <g id="xtick_13">
    <g id="line2d_15">
     <path d="M 187.879428 139.387481 
L 190.31889 140.101536 
" style="fill: none; stroke: #000000; stroke-width: 0.8; stroke-linecap: square"/>
    </g>
    <g id="text_14">
     <!-- 11.44 -->
     <g transform="translate(192.055739 156.560808) scale(0.06 -0.06)">
      <use xlink:href="#DejaVuSans-31"/>
      <use xlink:href="#DejaVuSans-31" transform="translate(63.623047 0)"/>
      <use xlink:href="#DejaVuSans-2e" transform="translate(127.246094 0)"/>
      <use xlink:href="#DejaVuSans-34" transform="translate(159.033203 0)"/>
      <use xlink:href="#DejaVuSans-34" transform="translate(222.65625 0)"/>
     </g>
    </g>
   </g>
   <g id="text_15">
    <!-- R peak time (s) -->
    <g transform="translate(174.531589 210.413833) rotate(-45.742112) scale(0.07 -0.07)">
     <use xlink:href="#DejaVuSans-52"/>
     <use xlink:href="#DejaVuSans-20" transform="translate(69.482422 0)"/>
     <use xlink:href="#DejaVuSans-70" transform="translate(101.269531 0)"/>
     <use xlink:href="#DejaVuSans-65" transform="translate(164.746094 0)"/>
     <use xlink:href="#DejaVuSans-61" transform="translate(226.269531 0)"/>
     <use xlink:href="#DejaVuSans-6b" transform="translate(287.548828 0)"/>
     <use xlink:href="#DejaVuSans-20" transform="translate(345.458984 0)"/>
     <use xlink:href="#DejaVuSans-74" transform="translate(377.246094 0)"/>
     <use xlink:href="#DejaVuSans-69" transform="translate(416.455078 0)"/>
     <use xlink:href="#DejaVuSans-6d" transform="translate(444.238281 0)"/>
     <use xlink:href="#DejaVuSans-65" transform="translate(541.650391 0)"/>
     <use xlink:href="#DejaVuSans-20" transform="translate(603.173828 0)"/>
     <use xlink:href="#DejaVuSans-28" transform="translate(634.960938 0)"/>
     <use xlink:href="#DejaVuSans-73" transform="translate(673.974609 0)"/>
     <use xlink:href="#DejaVuSans-29" transform="translate(726.074219 0)"/>
    </g>
   </g>
  </g>
  <g id="axis3d_3">
   <g id="line2d_16">
    <path d="M 191.868703 136.365163 
L 195.310029 61.215397 
" style="fill: none; stroke: #000000; stroke-width: 0.8; stroke-linecap: square"/>
   </g>
   <g id="xtick_14">
    <g id="line2d_17">
     <path d="M 191.280485 131.249267 
L 193.717747 131.951785 
" style="fill: none; stroke: #000000; stroke-width: 0.8; stroke-linecap: square"/>
    </g>
    <g id="text_16">
     <!-- −0.4 -->
     <g transform="translate(203.082614 133.454824) scale(0.06 -0.06)">
      <use xlink:href="#DejaVuSans-2212"/>
      <use xlink:href="#DejaVuSans-30" transform="translate(83.789062 0)"/>
      <use xlink:href="#DejaVuSans-2e" transform="translate(147.412109 0)"/>
      <use xlink:href="#DejaVuSans-34" transform="translate(179.199219 0)"/>
     </g>
    </g>
   </g>
   <g id="xtick_15">
    <g id="line2d_18">
     <path d="M 191.744131 121.015179 
L 194.19679 121.709695 
" style="fill: none; stroke: #000000; stroke-width: 0.8; stroke-linecap: square"/>
    </g>
    <g id="text_17">
     <!-- −0.2 -->
     <g transform="translate(203.660019 123.247617) scale(0.06 -0.06)">
      <use xlink:href="#DejaVuSans-2212"/>
      <use xlink:href="#DejaVuSans-30" transform="translate(83.789062 0)"/>
      <use xlink:href="#DejaVuSans-2e" transform="translate(147.412109 0)"/>
      <use xlink:href="#DejaVuSans-32" transform="translate(179.199219 0)"/>
     </g>
    </g>
   </g>
   <g id="xtick_16">
    <g id="line2d_19">
     <path d="M 192.213452 110.65584 
L 194.681704 111.342105 
" style="fill: none; stroke: #000000; stroke-width: 0.8; stroke-linecap: square"/>
    </g>
    <g id="text_18">
     <!-- 0.0 -->
     <g transform="translate(206.758368 112.915993) scale(0.06 -0.06)">
      <use xlink:href="#DejaVuSans-30"/>
      <use xlink:href="#DejaVuSans-2e" transform="translate(63.623047 0)"/>
      <use xlink:href="#DejaVuSans-30" transform="translate(95.410156 0)"/>
     </g>
    </g>
   </g>
   <g id="xtick_17">
    <g id="line2d_20">
     <path d="M 192.688551 100.168937 
L 195.172597 100.846694 
" style="fill: none; stroke: #000000; stroke-width: 0.8; stroke-linecap: square"/>
    </g>
    <g id="text_19">
     <!-- 0.2 -->
     <g transform="translate(207.349978 102.457664) scale(0.06 -0.06)">
      <use xlink:href="#DejaVuSans-30"/>
      <use xlink:href="#DejaVuSans-2e" transform="translate(63.623047 0)"/>
      <use xlink:href="#DejaVuSans-32" transform="translate(95.410156 0)"/>
     </g>
    </g>
   </g>
   <g id="xtick_18">
    <g id="line2d_21">
     <path d="M 193.169538 89.552097 
L 195.669579 90.221082 
" style="fill: none; stroke: #000000; stroke-width: 0.8; stroke-linecap: square"/>
    </g>
    <g id="text_20">
     <!-- 0.4 -->
     <g transform="translate(207.948888 91.870283) scale(0.06 -0.06)">
      <use xlink:href="#DejaVuSans-30"/>
      <use xlink:href="#DejaVuSans-2e" transform="translate(63.623047 0)"/>
      <use xlink:href="#DejaVuSans-34" transform="translate(95.410156 0)"/>
     </g>
    </g>
   </g>
   <g id="xtick_19">
    <g id="line2d_22">
     <path d="M 193.656521 78.802893 
L 196.172764 79.462833 
" style="fill: none; stroke: #000000; stroke-width: 0.8; stroke-linecap: square"/>
    </g>
    <g id="text_21">
     <!-- 0.6 -->
     <g transform="translate(208.555235 81.151448) scale(0.06 -0.06)">
      <use xlink:href="#DejaVuSans-30"/>
      <use xlink:href="#DejaVuSans-2e" transform="translate(63.623047 0)"/>
      <use xlink:href="#DejaVuSans-36" transform="translate(95.410156 0)"/>
     </g>
    </g>
   </g>
   <g id="xtick_20">
    <g id="line2d_23">
     <path d="M 194.149613 67.918832 
L 196.682271 68.569446 
" style="fill: none; stroke: #000000; stroke-width: 0.8; stroke-linecap: square"/>
    </g>
    <g id="text_22">
     <!-- 0.8 -->
     <g transform="translate(209.169157 70.298695) scale(0.06 -0.06)">
      <use xlink:href="#DejaVuSans-30"/>
      <use xlink:href="#DejaVuSans-2e" transform="translate(63.623047 0)"/>
      <use xlink:href="#DejaVuSans-38" transform="translate(95.410156 0)"/>
     </g>
    </g>
   </g>
   <g id="text_23">
    <!-- Amplitude (mV) -->
    <g transform="translate(232.876612 122.076612) rotate(-87.378092) scale(0.07 -0.07)">
     <defs>
      <path id="DejaVuSans-41" d="M 2188 4044 
L 1331 1722 
L 3047 1722 
L 2188 4044 
z
M 1831 4666 
L 2547 4666 
L 4325 0 
L 3669 0 
L 3244 1197 
L 1141 1197 
L 716 0 
L 50 0 
L 1831 4666 
z
" transform="scale(0.015625)"/>
      <path id="DejaVuSans-75" d="M 544 1381 
L 544 3500 
L 1119 3500 
L 1119 1403 
Q 1119 906 1312 657 
Q 1506 409 1894 409 
Q 2359 409 2629 706 
Q 2900 1003 2900 1516 
L 2900 3500 
L 3475 3500 
L 3475 0 
L 2900 0 
L 2900 538 
Q 2691 219 2414 64 
Q 2138 -91 1772 -91 
Q 1169 -91 856 284 
Q 544 659 544 1381 
z
M 1991 3584 
L 1991 3584 
z
" transform="scale(0.015625)"/>
      <path id="DejaVuSans-64" d="M 2906 2969 
L 2906 4863 
L 3481 4863 
L 3481 0 
L 2906 0 
L 2906 525 
Q 2725 213 2448 61 
Q 2172 -91 1784 -91 
Q 1150 -91 751 415 
Q 353 922 353 1747 
Q 353 2572 751 3078 
Q 1150 3584 1784 3584 
Q 2172 3584 2448 3432 
Q 2725 3281 2906 2969 
z
M 947 1747 
Q 947 1113 1208 752 
Q 1469 391 1925 391 
Q 2381 391 2643 752 
Q 2906 1113 2906 1747 
Q 2906 2381 2643 2742 
Q 2381 3103 1925 3103 
Q 1469 3103 1208 2742 
Q 947 2381 947 1747 
z
" transform="scale(0.015625)"/>
      <path id="DejaVuSans-56" d="M 1831 0 
L 50 4666 
L 709 4666 
L 2188 738 
L 3669 4666 
L 4325 4666 
L 2547 0 
L 1831 0 
z
" transform="scale(0.015625)"/>
     </defs>
     <use xlink:href="#DejaVuSans-41"/>
     <use xlink:href="#DejaVuSans-6d" transform="translate(68.408203 0)"/>
     <use xlink:href="#DejaVuSans-70" transform="translate(165.820312 0)"/>
     <use xlink:href="#DejaVuSans-6c" transform="translate(229.296875 0)"/>
     <use xlink:href="#DejaVuSans-69" transform="translate(257.080078 0)"/>
     <use xlink:href="#DejaVuSans-74" transform="translate(284.863281 0)"/>
     <use xlink:href="#DejaVuSans-75" transform="translate(324.072266 0)"/>
     <use xlink:href="#DejaVuSans-64" transform="translate(387.451172 0)"/>
     <use xlink:href="#DejaVuSans-65" transform="translate(450.927734 0)"/>
     <use xlink:href="#DejaVuSans-20" transform="translate(512.451172 0)"/>
     <use xlink:href="#DejaVuSans-28" transform="translate(544.238281 0)"/>
     <use xlink:href="#DejaVuSans-6d" transform="translate(583.251953 0)"/>
     <use xlink:href="#DejaVuSans-56" transform="translate(680.664062 0)"/>
     <use xlink:href="#DejaVuSans-29" transform="translate(749.072266 0)"/>
    </g>
   </g>
  </g>
  <g id="axes_1">
   <g id="line2d_24">
    <path d="M 44.883459 138.902088 
L 45.356464 138.898798 
L 46.286398 138.476709 
L 47.215604 137.99268 
L 48.158981 137.81732 
L 49.582621 137.70151 
L 51.006554 137.511006 
L 53.399186 137.522684 
L 54.344512 137.139868 
L 55.763947 136.513003 
L 56.724749 136.447448 
L 59.638153 136.932932 
L 60.617321 137.271242 
L 63.084835 138.614338 
L 68.040518 141.55041 
L 68.527218 141.491948 
L 68.997012 140.805657 
L 69.441968 139.180079 
L 69.856836 136.389656 
L 70.241077 132.37572 
L 70.943433 121.500143 
L 71.643486 109.978758 
L 72.030634 105.46994 
L 72.459825 102.529935 
L 72.939093 101.541631 
L 73.471111 102.685881 
L 74.052584 105.903885 
L 74.674332 110.88589 
L 77.861817 141.086256 
L 78.433033 144.54547 
L 78.977611 146.852263 
L 79.502531 148.285786 
L 80.015534 149.176929 
L 81.534071 150.888724 
L 83.047866 152.350383 
L 84.556777 153.517538 
L 85.558369 154.017895 
L 86.554236 154.138111 
L 88.542426 153.919628 
L 89.536782 153.677091 
L 92.52478 152.557445 
L 94.030018 152.386534 
L 96.042788 152.185265 
L 97.04921 151.872651 
L 98.055096 151.329766 
L 99.060582 150.526502 
L 101.582872 148.265745 
L 103.106801 147.310797 
L 104.126877 146.875991 
L 105.150551 146.71081 
L 106.177191 146.789111 
L 108.751193 147.351965 
L 110.299762 147.891061 
L 111.333972 148.490242 
L 113.40502 150.09886 
L 114.959604 151.614527 
L 117.03264 154.101563 
L 119.104716 156.885442 
L 119.623217 157.351522 
L 120.142365 157.634024 
L 121.182743 157.797778 
L 122.224674 157.903336 
L 124.311222 158.373253 
L 125.880593 158.532867 
L 126.927138 158.839084 
L 130.071835 159.951598 
L 134.281889 161.240206 
L 134.810023 161.350503 
L 134.810023 161.350503 
" clip-path="url(#pfcc473cd31)" style="fill: none; stroke: #440154; stroke-opacity: 0.8; stroke-linecap: square"/>
   </g>
   <g id="line2d_25">
    <path d="M 48.311873 129.551205 
L 49.741115 129.727112 
L 51.163914 129.664274 
L 53.53099 129.258811 
L 54.494871 129.498573 
L 55.461608 129.789793 
L 56.901759 129.885189 
L 59.306264 129.985114 
L 61.227699 129.817853 
L 62.196787 129.933069 
L 63.175565 130.323948 
L 64.168209 131.144233 
L 65.162756 132.015602 
L 68.124999 133.792371 
L 68.615528 133.952787 
L 69.100889 133.915345 
L 70.066054 133.592785 
L 70.552952 133.570123 
L 71.532247 133.696487 
L 72.011914 133.352336 
L 72.474792 132.323777 
L 72.91639 130.407451 
L 73.336263 127.553993 
L 74.123682 119.43159 
L 75.669131 100.490496 
L 76.110526 97.837195 
L 76.596519 97.090116 
L 77.129688 98.441689 
L 77.704295 101.713375 
L 78.92754 111.967044 
L 80.764901 128.453206 
L 81.909823 136.125979 
L 82.449297 138.4148 
L 82.96826 139.68571 
L 83.471855 140.163576 
L 84.460838 140.112691 
L 84.956591 140.127295 
L 85.952872 140.372932 
L 86.448904 140.348358 
L 86.942085 140.132455 
L 88.420558 139.237729 
L 90.409678 138.755219 
L 91.902744 138.16105 
L 93.90274 137.579448 
L 94.905517 137.30018 
L 96.413888 136.963963 
L 99.434022 135.427747 
L 100.444837 134.916655 
L 100.951862 134.762053 
L 101.460412 134.739946 
L 104.524544 135.402556 
L 105.038282 135.851659 
L 107.098115 138.489983 
L 108.124487 139.009698 
L 111.207429 140.093147 
L 112.237352 140.597439 
L 114.815927 142.328856 
L 115.332052 142.983732 
L 115.848 143.932609 
L 116.878439 146.56033 
L 118.93309 152.194098 
L 119.95857 154.610202 
L 120.984753 156.403058 
L 121.498764 156.990594 
L 122.529006 157.676778 
L 123.561746 157.99862 
L 125.113611 158.362311 
L 127.185566 159.031126 
L 128.225052 159.12741 
L 128.744265 159.301902 
L 129.262089 159.66899 
L 130.293498 160.909627 
L 131.839189 162.899018 
L 135.446061 167.399221 
L 135.958965 168.21868 
L 136.974576 170.589757 
L 137.982532 173.400898 
L 137.982532 173.400898 
" clip-path="url(#pfcc473cd31)" style="fill: none; stroke: #481b6d; stroke-opacity: 0.8; stroke-linecap: square"/>
   </g>
   <g id="line2d_26">
    <path d="M 52.37111 135.948516 
L 53.275818 134.978367 
L 54.160076 133.378629 
L 55.474056 130.465511 
L 55.92736 129.881229 
L 56.391216 129.581233 
L 57.336497 129.451057 
L 58.282453 129.298271 
L 59.703665 129.05483 
L 60.178633 128.988758 
L 60.65031 128.809518 
L 61.116357 128.441023 
L 62.032755 127.153648 
L 62.946328 125.685056 
L 63.873866 124.579119 
L 64.814048 123.812054 
L 65.764923 123.336635 
L 66.72956 123.277621 
L 67.705107 123.55853 
L 70.64663 124.73851 
L 71.145367 125.231955 
L 72.15506 126.693708 
L 73.164415 128.155968 
L 73.662684 128.631534 
L 74.647829 129.100157 
L 75.137512 129.19987 
L 75.623729 129.139653 
L 76.100831 128.669055 
L 76.560706 127.416894 
L 76.995786 125.017142 
L 77.402339 121.257046 
L 78.144377 110.106378 
L 78.865926 97.303762 
L 79.256506 92.042559 
L 79.687501 88.586831 
L 80.171579 87.64148 
L 80.715684 89.665597 
L 81.317505 94.673896 
L 82.631074 110.87205 
L 83.928959 127.172854 
L 84.525223 132.788099 
L 85.083016 136.415067 
L 85.612648 138.540947 
L 87.665978 143.621925 
L 88.173809 144.613646 
L 88.673934 145.133151 
L 89.166985 145.194386 
L 90.637723 144.677214 
L 91.624631 144.631314 
L 92.608186 144.229665 
L 93.100135 143.989071 
L 93.594252 143.8793 
L 94.090972 143.944262 
L 95.586229 144.418358 
L 97.07965 144.510991 
L 99.078459 144.945381 
L 101.076838 144.785969 
L 102.079175 144.822685 
L 102.579846 144.706175 
L 103.07985 144.437962 
L 104.078488 143.458196 
L 105.578902 141.564397 
L 106.585126 140.751029 
L 108.607454 139.816123 
L 110.128318 138.735389 
L 111.145877 138.343696 
L 113.186985 137.781932 
L 114.210371 137.812531 
L 115.235174 137.770903 
L 116.261857 137.20303 
L 117.290777 136.568549 
L 117.805763 136.441227 
L 118.836312 136.519056 
L 119.867829 136.735471 
L 120.383711 136.945945 
L 120.89922 137.331033 
L 121.413982 137.946663 
L 122.440761 139.791006 
L 124.489337 143.930616 
L 125.51476 145.55805 
L 126.542735 146.7361 
L 127.573541 147.538876 
L 129.123143 148.447845 
L 130.676756 149.103329 
L 132.234848 149.529911 
L 134.317444 149.99766 
L 136.402919 150.615721 
L 137.448125 150.865375 
L 138.490566 151.395541 
L 141.090786 153.330001 
L 141.613214 153.592865 
L 141.613214 153.592865 
" clip-path="url(#pfcc473cd31)" style="fill: none; stroke: #46327e; stroke-opacity: 0.8; stroke-linecap: square"/>
   </g>
   <g id="line2d_27">
    <path d="M 55.963765 122.04407 
L 56.960898 123.59362 
L 57.937523 124.550262 
L 58.899546 125.061717 
L 60.337069 125.618397 
L 61.288601 125.741793 
L 64.135091 125.616446 
L 66.023981 125.001541 
L 66.986248 125.233968 
L 68.438644 125.838451 
L 69.41685 126.570305 
L 71.886691 129.26958 
L 73.846277 130.7505 
L 74.81837 131.140015 
L 78.203843 131.422678 
L 79.166149 131.141187 
L 79.642231 130.730041 
L 80.109533 129.868315 
L 80.562215 128.251563 
L 80.995014 125.586313 
L 81.405089 121.683956 
L 82.163693 110.288339 
L 83.271075 90.060117 
L 83.689405 85.560762 
L 84.161052 83.88224 
L 84.697067 85.793415 
L 85.297011 91.450087 
L 86.619626 110.645889 
L 87.921598 129.863451 
L 88.510865 136.069288 
L 89.053643 139.492385 
L 89.56032 140.654675 
L 90.046672 140.479649 
L 90.527644 139.907359 
L 91.012955 139.590625 
L 91.505875 139.77773 
L 92.50609 141.168003 
L 93.006453 141.890529 
L 93.504046 142.404814 
L 93.998415 142.660329 
L 94.489965 142.671328 
L 94.979509 142.487581 
L 96.937518 141.323864 
L 97.9239 141.162547 
L 98.913649 141.188757 
L 99.907299 141.498124 
L 101.402385 142.296144 
L 101.899351 142.337531 
L 103.886142 141.863072 
L 105.884427 142.270201 
L 107.883342 141.755865 
L 109.388265 141.744822 
L 110.392133 141.316383 
L 111.397107 140.516417 
L 112.908566 138.967107 
L 113.919522 137.927315 
L 114.933175 137.248617 
L 115.440793 137.116214 
L 116.457042 137.201155 
L 120.022446 138.131891 
L 121.042365 138.749378 
L 122.061734 139.661045 
L 125.118205 142.989505 
L 126.650688 144.08203 
L 129.713565 146.928152 
L 131.760747 148.441412 
L 132.275235 148.590977 
L 132.792203 148.533288 
L 134.872226 147.618789 
L 137.4709 147.428744 
L 138.510868 147.512551 
L 139.547164 147.939573 
L 143.695206 150.033576 
L 145.261436 150.418149 
L 145.261436 150.418149 
" clip-path="url(#pfcc473cd31)" style="fill: none; stroke: #3f4788; stroke-opacity: 0.8; stroke-linecap: square"/>
   </g>
   <g id="line2d_28">
    <path d="M 60.044062 119.805919 
L 61.937572 120.150413 
L 63.351672 120.119601 
L 64.767471 120.048749 
L 67.14345 120.274475 
L 68.571108 120.357667 
L 69.519342 120.225163 
L 70.942593 119.958314 
L 71.421698 120.022616 
L 71.904558 120.223188 
L 72.879876 120.984648 
L 74.83787 122.763364 
L 77.770795 125.151673 
L 78.7455 125.775047 
L 79.726749 126.682957 
L 81.202025 128.189717 
L 82.178651 128.831077 
L 82.664063 128.989699 
L 83.145107 128.905242 
L 83.618124 128.370144 
L 84.079186 127.149454 
L 84.525638 125.063504 
L 84.956966 122.041412 
L 85.779957 113.332438 
L 86.562342 101.5003 
L 87.337807 88.304855 
L 87.752744 83.038015 
L 88.210084 80.291816 
L 88.724536 81.178004 
L 89.299325 86.124182 
L 89.922485 94.552871 
L 91.825245 124.244095 
L 92.398471 130.408708 
L 92.932709 133.858171 
L 93.438829 135.253388 
L 93.930902 135.570262 
L 94.420241 135.652616 
L 94.91228 135.936268 
L 96.395172 137.305192 
L 98.361693 137.963806 
L 99.348698 138.539809 
L 100.333237 138.759024 
L 101.31967 139.076388 
L 102.30946 139.706705 
L 102.803577 139.884301 
L 103.296386 139.842305 
L 104.279817 139.248928 
L 105.265491 138.687141 
L 106.25516 138.500933 
L 108.240406 138.412377 
L 112.728947 138.872508 
L 113.729677 138.74935 
L 114.731859 138.202386 
L 115.736241 137.269683 
L 118.258872 134.580073 
L 119.271859 133.813584 
L 120.285969 133.433626 
L 121.300615 133.411284 
L 123.332533 133.709202 
L 124.34848 134.194916 
L 125.363077 135.035419 
L 127.390761 137.084524 
L 130.42738 140.836397 
L 131.444488 141.566804 
L 132.974978 142.306392 
L 136.044222 143.575278 
L 139.120033 144.965212 
L 140.151357 145.142851 
L 141.184473 145.28498 
L 142.214334 145.70573 
L 145.299254 147.535566 
L 146.335335 147.806791 
L 146.857532 147.746904 
L 147.909462 147.306777 
L 148.964633 146.807021 
L 148.964633 146.807021 
" clip-path="url(#pfcc473cd31)" style="fill: none; stroke: #365c8d; stroke-opacity: 0.8; stroke-linecap: square"/>
   </g>
   <g id="line2d_29">
    <path d="M 63.867672 117.438612 
L 64.817441 117.840283 
L 65.288602 117.904039 
L 66.221502 117.675566 
L 67.151835 117.303046 
L 68.091861 117.22077 
L 69.507248 117.202838 
L 70.45043 117.115027 
L 73.297741 117.242877 
L 74.251586 117.381645 
L 75.209278 117.636906 
L 77.117211 117.682396 
L 78.087848 118.384002 
L 79.060809 119.172207 
L 80.516478 120.13381 
L 81.979512 121.408312 
L 82.946456 121.793477 
L 83.915155 122.227858 
L 84.886637 122.773651 
L 85.368942 122.836519 
L 86.810566 122.604861 
L 87.294477 122.688195 
L 87.775495 122.574929 
L 88.245956 121.77059 
L 88.698807 119.783638 
L 89.131235 116.363214 
L 89.951072 105.992377 
L 91.186671 89.068219 
L 91.627385 85.029035 
L 92.094433 82.775525 
L 92.596335 83.082987 
L 93.138368 86.541736 
L 93.717722 93.144631 
L 96.078769 126.526889 
L 96.604559 130.010805 
L 97.104087 131.190193 
L 97.590168 131.107457 
L 98.074644 130.82813 
L 98.563861 130.982696 
L 100.046435 132.956229 
L 100.536555 133.154414 
L 101.514671 133.206512 
L 102.006274 133.499347 
L 103.485062 134.814502 
L 104.466617 134.947464 
L 104.957768 135.002632 
L 106.927078 135.57125 
L 110.377215 134.460722 
L 110.871783 134.290022 
L 111.367052 134.238761 
L 111.863003 134.352438 
L 112.856012 134.803675 
L 113.352705 134.909877 
L 115.342334 134.842397 
L 116.33891 135.257793 
L 116.837687 135.313633 
L 117.337071 135.150736 
L 120.345725 133.187939 
L 121.353402 132.406947 
L 122.870455 130.979685 
L 123.376542 130.67813 
L 123.882367 130.52722 
L 124.387746 130.535712 
L 124.892588 130.694806 
L 125.900981 131.330843 
L 127.414077 132.37729 
L 133.48478 136.044785 
L 136.521195 138.501919 
L 137.537316 139.087068 
L 140.08737 140.105646 
L 142.644469 141.049981 
L 144.179536 141.737594 
L 145.209367 141.898997 
L 146.756522 142.137186 
L 151.402912 143.404143 
L 152.440062 143.615512 
L 152.440062 143.615512 
" clip-path="url(#pfcc473cd31)" style="fill: none; stroke: #2e6e8e; stroke-opacity: 0.8; stroke-linecap: square"/>
   </g>
   <g id="line2d_30">
    <path d="M 67.746143 113.89027 
L 70.561791 114.094736 
L 71.494839 113.857829 
L 72.435389 113.860433 
L 73.850203 113.933246 
L 74.794025 113.944925 
L 76.218682 114.251895 
L 76.690904 114.213608 
L 77.629089 113.807141 
L 78.569938 113.445318 
L 79.994234 113.383347 
L 80.471246 113.441114 
L 80.951499 113.646383 
L 81.436957 114.104724 
L 81.9282 114.856828 
L 83.904518 118.540697 
L 84.87411 119.407894 
L 86.807227 120.726265 
L 87.288309 120.901797 
L 87.767212 120.928487 
L 89.67813 120.51947 
L 90.639889 120.594862 
L 91.118157 120.416077 
L 91.589982 119.741445 
L 92.051432 118.249903 
L 92.499422 115.656498 
L 92.932547 111.780646 
L 93.75933 100.240806 
L 94.981516 79.029575 
L 95.422394 74.152508 
L 95.899132 72.252885 
L 96.418377 74.189959 
L 96.978415 80.115233 
L 98.168415 99.998349 
L 99.328301 118.952733 
L 99.866804 124.673106 
L 100.378959 127.705694 
L 100.874098 128.884245 
L 101.851721 129.761629 
L 103.32486 131.960506 
L 103.810351 131.891113 
L 105.260181 130.160884 
L 105.748151 130.194101 
L 107.709711 131.835447 
L 109.177933 131.948091 
L 110.158008 131.925571 
L 111.139028 131.728182 
L 111.630431 131.781221 
L 112.61487 132.391228 
L 113.107321 132.695757 
L 113.599731 132.77364 
L 114.092272 132.575838 
L 115.07871 131.858681 
L 115.572687 131.690614 
L 116.066968 131.737011 
L 117.056186 132.05559 
L 118.046898 132.080048 
L 119.038838 132.141996 
L 120.031517 132.385492 
L 120.528931 132.299997 
L 121.027676 131.949325 
L 123.032657 129.590952 
L 124.035576 129.107581 
L 126.045718 128.37427 
L 127.052991 128.079238 
L 129.575358 127.734015 
L 130.585797 127.727703 
L 131.595566 127.931511 
L 132.603599 128.411857 
L 133.608984 129.206246 
L 134.610787 130.346516 
L 136.610982 132.897593 
L 137.61713 133.70658 
L 139.633329 135.144338 
L 141.147582 136.177189 
L 142.66953 136.82081 
L 147.765923 138.518357 
L 151.35692 139.313173 
L 152.379017 139.83167 
L 153.400916 140.393588 
L 153.915233 140.541582 
L 154.951942 140.532767 
L 155.991162 140.480846 
L 155.991162 140.480846 
" clip-path="url(#pfcc473cd31)" style="fill: none; stroke: #277f8e; stroke-opacity: 0.8; stroke-linecap: square"/>
   </g>
   <g id="line2d_31">
    <path d="M 71.65503 109.963484 
L 75.406717 110.439568 
L 76.347192 110.550913 
L 81.05219 110.407489 
L 82.473161 110.536635 
L 83.890702 110.337209 
L 84.369892 110.602737 
L 84.855109 111.198933 
L 86.323468 113.746809 
L 86.806986 114.258403 
L 87.764654 114.693279 
L 88.724723 115.233625 
L 90.654347 116.838664 
L 91.61987 117.653956 
L 92.587037 118.567504 
L 93.067819 118.801532 
L 93.545312 118.761765 
L 94.019729 118.446669 
L 94.491798 117.897133 
L 94.961711 117.112459 
L 95.428352 115.978775 
L 95.889368 114.261038 
L 96.342046 111.667092 
L 96.784474 107.94876 
L 97.639831 96.884178 
L 98.910667 76.176152 
L 99.361454 71.347812 
L 99.840474 69.405028 
L 100.352325 71.184895 
L 100.895046 76.837299 
L 102.031516 96.021922 
L 103.143723 114.684193 
L 103.669195 120.575472 
L 104.175444 123.952871 
L 104.669085 125.541527 
L 106.133691 127.889577 
L 106.622383 128.820895 
L 107.109422 129.446444 
L 107.594059 129.537513 
L 108.076934 129.137525 
L 109.043094 127.985587 
L 109.528192 127.72548 
L 110.501434 127.805853 
L 111.475765 127.829086 
L 112.451306 127.808335 
L 115.875743 128.677745 
L 117.346685 129.432088 
L 119.312123 129.80016 
L 119.804144 129.903332 
L 120.296805 129.888014 
L 120.790545 129.656097 
L 121.781829 128.591771 
L 122.775441 127.582724 
L 123.271836 127.356154 
L 127.751549 126.504724 
L 128.254189 126.035359 
L 130.276895 123.493812 
L 130.780435 123.280435 
L 133.295878 123.072503 
L 133.797875 123.228514 
L 134.797331 123.992861 
L 135.796685 124.802849 
L 137.300111 125.742153 
L 137.798334 126.295057 
L 138.788205 127.870626 
L 139.776838 129.495739 
L 140.770886 130.729068 
L 141.769466 131.670696 
L 142.77267 132.347098 
L 143.781932 132.702399 
L 145.299516 133.130382 
L 147.324656 133.80393 
L 149.355645 134.385052 
L 154.442397 136.227288 
L 155.96853 136.968039 
L 158.513799 138.293628 
L 159.542021 138.493934 
L 159.542021 138.493934 
" clip-path="url(#pfcc473cd31)" style="fill: none; stroke: #21918c; stroke-opacity: 0.8; stroke-linecap: square"/>
   </g>
   <g id="line2d_32">
    <path d="M 75.534612 107.937653 
L 77.404684 108.328752 
L 77.867994 108.205058 
L 79.249908 107.346132 
L 79.715707 107.264746 
L 80.186443 107.407958 
L 82.085523 108.699098 
L 82.556424 108.802219 
L 83.49258 108.663156 
L 83.957966 108.417693 
L 84.88275 107.51318 
L 86.268425 105.819765 
L 86.736108 105.529994 
L 87.208329 105.489948 
L 87.685049 105.710107 
L 88.165698 106.167966 
L 89.134714 107.581129 
L 90.589619 109.840543 
L 93.001971 112.811521 
L 93.482379 113.248047 
L 93.960745 113.514507 
L 94.913165 113.642242 
L 96.340181 113.499024 
L 96.814588 113.270076 
L 98.710508 111.715848 
L 99.183921 111.123642 
L 99.652013 109.870625 
L 100.110788 107.436808 
L 100.558125 103.453521 
L 101.426627 91.204446 
L 102.300038 77.56513 
L 102.755105 72.458473 
L 103.228311 69.554294 
L 103.721433 69.413728 
L 104.234037 72.34508 
L 104.763164 78.289964 
L 105.845621 96.403479 
L 106.905502 113.831763 
L 107.412643 119.029062 
L 107.904998 121.348888 
L 108.387659 121.460451 
L 108.866998 120.592246 
L 109.348062 119.994534 
L 109.832926 120.416066 
L 110.320722 121.858431 
L 111.295881 125.228712 
L 111.780445 125.855468 
L 112.26344 125.554966 
L 113.714115 123.044192 
L 114.199528 122.706424 
L 116.633252 122.193618 
L 117.608817 122.388812 
L 118.585521 122.552291 
L 120.053264 122.595403 
L 121.522723 122.938017 
L 123.487525 123.020545 
L 124.963218 123.292497 
L 126.937651 123.233271 
L 127.433121 123.079993 
L 127.930199 122.770943 
L 129.928159 121.020641 
L 131.927614 120.068017 
L 132.932117 119.409129 
L 133.433343 119.247426 
L 134.93562 119.102444 
L 136.950449 118.39266 
L 138.458653 118.40903 
L 139.467422 118.307517 
L 139.968309 118.532593 
L 140.463975 119.119548 
L 141.441843 121.155341 
L 142.421298 123.027471 
L 142.917152 123.572225 
L 144.413513 124.705818 
L 145.903759 126.231158 
L 146.404689 126.518697 
L 148.924494 127.329801 
L 149.931773 127.768913 
L 150.941492 128.133555 
L 151.443899 128.445861 
L 152.439662 129.499574 
L 153.432522 130.685541 
L 154.436501 131.394546 
L 155.95736 131.886851 
L 156.97724 132.025431 
L 157.492149 131.91608 
L 159.047584 131.274263 
L 159.56087 131.293018 
L 160.575323 131.816003 
L 161.590635 132.335826 
L 163.128161 132.657258 
L 163.128161 132.657258 
" clip-path="url(#pfcc473cd31)" style="fill: none; stroke: #1fa187; stroke-opacity: 0.8; stroke-linecap: square"/>
   </g>
   <g id="line2d_33">
    <path d="M 79.333698 106.639494 
L 81.11668 103.040563 
L 83.840633 99.060898 
L 84.302974 98.734046 
L 84.771369 98.722964 
L 85.245161 99.004633 
L 86.202211 100.103965 
L 87.160901 101.303633 
L 87.637166 101.713489 
L 88.109111 101.843865 
L 88.575168 101.578388 
L 89.034699 100.853539 
L 89.939654 98.295975 
L 90.848314 95.714778 
L 91.312952 95.060144 
L 91.786699 95.029237 
L 92.26874 95.599473 
L 93.246733 97.836611 
L 94.222321 99.97828 
L 94.705015 100.655692 
L 96.144533 101.94895 
L 96.627328 102.64169 
L 97.113295 103.644253 
L 98.094046 106.61209 
L 99.56777 111.77611 
L 100.05002 112.625144 
L 100.523613 112.479526 
L 100.987879 111.157128 
L 101.444081 108.692569 
L 102.344078 101.408012 
L 103.707172 89.79038 
L 104.173805 87.076333 
L 104.650258 85.688535 
L 105.138465 86.158678 
L 105.63878 88.83853 
L 106.149073 93.676994 
L 108.689958 124.661105 
L 109.178468 127.951887 
L 109.66219 130.229433 
L 110.142795 131.773203 
L 110.621414 132.77593 
L 111.0988 133.363165 
L 112.529596 134.297329 
L 113.007215 134.950067 
L 113.962559 136.686061 
L 114.439868 137.296444 
L 114.91711 137.500255 
L 115.394627 137.334545 
L 116.351159 136.651696 
L 116.830036 136.455381 
L 118.268313 136.345273 
L 119.22836 136.468648 
L 120.669266 137.034596 
L 121.151101 136.917161 
L 122.118338 136.109911 
L 123.087495 135.362013 
L 123.572502 135.061705 
L 124.058741 134.623792 
L 124.547078 133.915971 
L 125.530479 131.771919 
L 127.016488 128.014211 
L 127.517097 126.331728 
L 128.532806 121.637262 
L 129.559941 116.395662 
L 130.581398 112.586573 
L 131.596087 110.066013 
L 133.63422 105.394606 
L 134.667119 102.38265 
L 136.763803 95.067882 
L 137.27933 94.180017 
L 137.788899 93.807698 
L 138.294655 93.758667 
L 139.303106 93.955678 
L 139.806199 94.161982 
L 140.306654 94.562645 
L 140.803396 95.217987 
L 142.777853 98.58381 
L 145.762821 102.071044 
L 147.268687 103.1013 
L 148.271301 103.890285 
L 151.272429 106.695288 
L 153.268702 108.822507 
L 154.257638 110.292662 
L 155.234317 112.265584 
L 156.695784 115.294093 
L 157.685637 116.642285 
L 158.187391 117.044269 
L 159.200478 117.492182 
L 160.215917 117.883603 
L 161.225937 118.507655 
L 162.22703 119.475255 
L 163.211264 121.043229 
L 165.150672 125.107292 
L 166.14333 126.327879 
L 166.644981 126.763088 
L 166.644981 126.763088 
" clip-path="url(#pfcc473cd31)" style="fill: none; stroke: #2db27d; stroke-opacity: 0.8; stroke-linecap: square"/>
   </g>
   <g id="line2d_34">
    <path d="M 83.03994 106.346299 
L 85.360986 107.055652 
L 87.693338 108.129804 
L 88.619007 108.009091 
L 91.857343 106.70989 
L 93.248125 105.911971 
L 95.105144 104.539587 
L 95.573957 104.489197 
L 96.046255 104.722639 
L 96.521854 105.24448 
L 97.479101 106.871361 
L 98.915245 109.455854 
L 99.867554 110.701047 
L 100.341725 111.101182 
L 101.287059 111.498515 
L 104.123286 111.999164 
L 105.068575 111.792252 
L 105.540761 111.508841 
L 106.011476 110.860712 
L 106.479458 109.536315 
L 106.943862 107.23815 
L 107.404842 103.818055 
L 108.322468 94.167643 
L 109.716936 78.211916 
L 110.191469 74.012951 
L 110.671878 71.090394 
L 111.158455 70.055335 
L 111.650799 71.516446 
L 112.147353 75.799526 
L 112.645413 82.673051 
L 114.12105 108.364511 
L 114.603296 114.588003 
L 115.082389 118.615665 
L 115.560107 120.698959 
L 116.037755 121.423142 
L 116.515958 121.394173 
L 116.994887 121.019683 
L 117.955152 119.783804 
L 118.918642 118.296824 
L 119.400885 117.78919 
L 119.882863 117.585866 
L 120.845962 117.808053 
L 121.327908 117.914169 
L 122.294134 117.759234 
L 123.261613 117.643229 
L 127.621605 118.60836 
L 130.543983 118.801345 
L 131.521268 118.789568 
L 132.99061 118.680063 
L 133.97194 118.602687 
L 134.958784 118.173556 
L 135.946776 117.796878 
L 136.932504 117.730464 
L 137.427668 117.562083 
L 137.926708 117.13773 
L 138.936137 115.604415 
L 139.947972 114.118312 
L 140.450633 113.66965 
L 143.46103 112.055738 
L 143.961917 111.937058 
L 144.460998 111.9461 
L 145.454316 112.290176 
L 146.442031 112.987882 
L 147.915364 114.510057 
L 149.879369 116.584483 
L 151.358852 117.851404 
L 157.800796 122.472201 
L 158.301022 122.678649 
L 158.804781 122.756877 
L 159.821143 122.612441 
L 160.841993 122.358827 
L 161.85698 122.377357 
L 162.861454 122.81527 
L 164.364179 123.662866 
L 168.398251 125.315617 
L 169.9295 125.478706 
L 169.9295 125.478706 
" clip-path="url(#pfcc473cd31)" style="fill: none; stroke: #4ac16d; stroke-opacity: 0.8; stroke-linecap: square"/>
   </g>
   <g id="line2d_35">
    <path d="M 86.714358 99.697541 
L 89.039833 100.915558 
L 91.823065 101.443644 
L 95.069069 101.003175 
L 96.460976 100.428334 
L 97.394582 100.400448 
L 98.329487 100.380411 
L 99.264098 100.196549 
L 99.733346 100.263383 
L 100.204693 100.542191 
L 101.625191 102.089404 
L 104.93821 105.348477 
L 107.300893 106.550781 
L 107.773026 106.577004 
L 109.662769 106.150737 
L 110.134993 105.65521 
L 110.605589 104.310062 
L 111.074212 101.661995 
L 111.541482 97.482466 
L 112.47809 85.205051 
L 113.909607 64.706614 
L 114.395814 59.992504 
L 114.885199 57.750326 
L 115.375535 58.824912 
L 115.863848 63.634554 
L 116.347278 71.812023 
L 117.763329 101.805618 
L 118.231441 108.224034 
L 118.702518 111.72753 
L 119.177478 112.947662 
L 119.655304 112.970846 
L 120.133989 112.805572 
L 120.611919 112.994136 
L 122.043158 114.477445 
L 122.522432 114.487088 
L 123.483617 114.159967 
L 124.444236 114.227598 
L 124.924935 114.26993 
L 125.889358 114.015995 
L 126.372296 113.866644 
L 126.854747 113.844667 
L 128.783682 114.268469 
L 129.751764 114.239069 
L 130.718584 114.486949 
L 131.686703 114.702364 
L 133.144435 114.683706 
L 135.087409 115.096775 
L 137.530988 114.931232 
L 138.022571 114.761239 
L 140.990153 113.133093 
L 141.98476 112.490608 
L 142.983395 111.726946 
L 143.977939 111.332472 
L 146.958347 110.885187 
L 149.437938 111.219008 
L 150.422716 111.789609 
L 153.851426 114.799581 
L 155.791094 117.406798 
L 156.769509 118.34879 
L 157.755447 119.000771 
L 161.730155 120.689328 
L 163.228413 121.171817 
L 164.725848 121.755926 
L 170.263344 122.983087 
L 171.776083 123.413429 
L 173.295746 123.709434 
L 173.295746 123.709434 
" clip-path="url(#pfcc473cd31)" style="fill: none; stroke: #73d056; stroke-opacity: 0.8; stroke-linecap: square"/>
   </g>
   <g id="line2d_36">
    <path d="M 90.349595 96.343984 
L 91.742231 97.294379 
L 92.203162 97.346744 
L 92.660818 97.127886 
L 93.569933 96.096802 
L 94.482234 95.142249 
L 94.942106 94.912833 
L 95.867407 94.840461 
L 99.587694 95.28323 
L 101.456681 95.82152 
L 102.85788 95.82023 
L 103.32677 96.000193 
L 104.267886 96.796558 
L 105.681275 98.195617 
L 107.565155 99.777654 
L 109.920584 101.334221 
L 110.863954 102.079513 
L 111.335226 102.196 
L 111.806249 102.056542 
L 112.277245 101.667717 
L 112.748443 101.045069 
L 113.219996 100.151141 
L 113.692033 98.864482 
L 114.164786 97.001212 
L 114.638689 94.372483 
L 115.114383 90.841011 
L 116.074208 80.972022 
L 117.541346 62.945782 
L 118.0343 58.923572 
L 118.524202 57.73108 
L 119.006836 60.191196 
L 119.478998 66.365759 
L 121.295293 102.320435 
L 121.755128 106.848898 
L 122.223306 108.866224 
L 122.697913 109.267733 
L 123.175387 109.084816 
L 123.652562 109.042115 
L 124.128146 109.360222 
L 125.078215 110.248821 
L 125.555266 110.380075 
L 126.512063 110.346651 
L 126.989303 110.563104 
L 128.418039 111.735194 
L 128.897258 111.782263 
L 130.823582 111.256195 
L 132.268378 111.255937 
L 133.234048 111.170116 
L 138.559182 111.435442 
L 140.021079 111.284983 
L 140.997162 111.200374 
L 142.960592 110.59399 
L 144.429728 110.585127 
L 144.925293 110.285059 
L 145.929314 109.054754 
L 146.935395 107.858788 
L 147.433685 107.563753 
L 148.421972 107.473318 
L 149.904358 107.467837 
L 150.893929 107.478916 
L 151.880395 107.693241 
L 152.864458 108.063293 
L 153.84261 108.731459 
L 154.326832 109.284711 
L 155.283744 110.879757 
L 156.713943 113.440645 
L 157.197859 113.990639 
L 158.178419 114.589749 
L 159.657082 115.233945 
L 163.595446 117.428732 
L 164.581524 117.984123 
L 166.563832 118.826756 
L 168.049083 119.575649 
L 171.039489 120.622495 
L 175.070287 121.153684 
L 176.082902 121.232528 
L 176.587408 121.334463 
L 176.587408 121.334463 
" clip-path="url(#pfcc473cd31)" style="fill: none; stroke: #a0da39; stroke-opacity: 0.8; stroke-linecap: square"/>
   </g>
   <g id="line2d_37">
    <path d="M 93.908494 92.2783 
L 95.289121 92.612603 
L 98.514939 93.016901 
L 99.898789 92.905795 
L 100.823293 92.878985 
L 102.676799 92.95476 
L 103.604796 92.926415 
L 104.53522 93.099344 
L 106.400633 93.767184 
L 107.335856 94.391066 
L 108.741338 95.793866 
L 110.616346 97.846445 
L 111.084696 98.169094 
L 112.021048 98.414395 
L 113.427126 98.605813 
L 114.36579 98.66059 
L 115.77601 98.48666 
L 116.246661 98.54631 
L 116.717733 98.444645 
L 117.189857 97.784224 
L 117.664159 96.128176 
L 118.141981 93.186944 
L 118.624409 88.948992 
L 120.100311 71.822065 
L 121.098933 61.15215 
L 121.596655 57.552682 
L 122.088139 56.08527 
L 122.568453 57.488567 
L 123.033646 62.106886 
L 123.482865 69.564007 
L 124.785995 95.739773 
L 125.230731 101.195663 
L 125.687797 104.231695 
L 126.155129 105.475504 
L 127.573146 106.704328 
L 128.514818 108.036636 
L 128.988432 108.350489 
L 130.417856 108.425349 
L 131.844095 109.089624 
L 132.322416 109.059889 
L 133.763527 108.586959 
L 136.16439 108.518329 
L 137.127019 108.485362 
L 138.089671 108.544941 
L 139.538819 108.427421 
L 141.470595 108.598813 
L 143.423411 107.781771 
L 144.875716 108.130651 
L 145.363638 108.059858 
L 147.330773 107.14769 
L 148.319662 106.555875 
L 150.816901 104.287547 
L 153.804373 102.816733 
L 154.79435 102.737112 
L 155.286979 102.81964 
L 155.776826 103.030508 
L 156.262843 103.408623 
L 158.192989 105.51325 
L 159.659396 106.379277 
L 160.139626 107.004236 
L 162.035425 110.400475 
L 163.974973 112.179897 
L 165.411795 114.139648 
L 165.898589 114.526647 
L 167.861764 115.592145 
L 168.843091 116.165417 
L 169.342965 116.171521 
L 169.850693 115.9443 
L 171.389103 114.887307 
L 171.894884 114.777023 
L 172.894143 114.95264 
L 174.392534 115.290168 
L 175.890663 115.701564 
L 178.384377 116.606764 
L 178.872986 117.075242 
L 179.833899 118.443207 
L 179.833899 118.443207 
" clip-path="url(#pfcc473cd31)" style="fill: none; stroke: #d0e11c; stroke-opacity: 0.8; stroke-linecap: square"/>
   </g>
   <g id="line2d_38">
    <path d="M 97.559359 90.177952 
L 99.391829 90.444791 
L 100.305172 90.065721 
L 101.219576 89.626811 
L 102.138723 89.6064 
L 105.367322 89.961591 
L 105.828999 89.901745 
L 106.751675 89.441769 
L 107.67632 89.056714 
L 108.604077 89.084533 
L 109.533633 89.321659 
L 109.999144 89.574803 
L 110.465273 90.002149 
L 111.398708 91.327715 
L 112.331813 92.614691 
L 113.264185 93.413789 
L 115.596567 94.991592 
L 116.530501 95.469718 
L 118.39934 96.931939 
L 118.867238 97.094452 
L 119.33566 97.129334 
L 119.804811 97.000783 
L 120.275305 96.55069 
L 120.748377 95.486552 
L 121.225741 93.471343 
L 121.709076 90.272977 
L 122.69666 80.52939 
L 124.726702 57.557951 
L 125.230724 53.912601 
L 125.72319 52.555566 
L 126.197261 54.268266 
L 126.648262 59.374156 
L 127.48902 77.085605 
L 128.313004 94.594507 
L 128.745612 99.917747 
L 129.197182 102.627584 
L 129.663736 103.443433 
L 130.612336 103.322127 
L 131.083725 103.625365 
L 132.489849 105.400828 
L 134.848381 107.019485 
L 135.324421 107.009091 
L 135.804184 106.717896 
L 136.767825 105.921586 
L 137.247309 105.7639 
L 138.679224 105.93357 
L 139.641808 105.587564 
L 140.123985 105.395381 
L 140.604766 105.32415 
L 145.891933 105.888357 
L 147.341509 105.949473 
L 148.309301 105.994523 
L 148.796532 105.870861 
L 149.287392 105.585126 
L 149.782366 105.120337 
L 150.78369 103.728971 
L 151.79175 102.155861 
L 152.293125 101.54387 
L 152.790472 101.144794 
L 153.774962 100.869968 
L 154.760608 100.613118 
L 156.253471 99.750444 
L 156.747398 99.654317 
L 157.237451 99.730716 
L 158.698111 100.397242 
L 159.670359 100.936633 
L 160.633768 101.83253 
L 161.5949 102.821025 
L 162.568053 103.381698 
L 163.54684 103.765963 
L 164.032083 104.113927 
L 164.989782 105.259583 
L 166.419276 107.20966 
L 167.383334 108.139992 
L 169.315326 109.898354 
L 170.28295 110.739669 
L 171.262043 111.242977 
L 175.217257 112.358274 
L 177.210515 112.647903 
L 179.208734 112.926881 
L 180.710866 113.124488 
L 181.706613 113.438071 
L 182.694827 113.964796 
L 183.186459 114.296443 
L 183.186459 114.296443 
" clip-path="url(#pfcc473cd31)" style="fill: none; stroke: #fde725; stroke-opacity: 0.8; stroke-linecap: square"/>
   </g>
  </g>
 </g>
 <defs>
  <clipPath id="pfcc473cd31">
   <rect x="21.6" y="21.6" width="181.98" height="181.98"/>
  </clipPath>
 </defs>
</svg>
